<svg xmlns="http://www.w3.org/2000/svg" xmlns:xlink="http://www.w3.org/1999/xlink" width="40" zoomAndPan="magnify" viewBox="0 0 30 30.000001" height="40" preserveAspectRatio="xMidYMid meet" version="1.0"><defs><clipPath id="418a19bf5c"><path d="M 1 0.289062 L 29.515625 0.289062 L 29.515625 29 L 1 29 Z M 1 0.289062 " clip-rule="nonzero"/></clipPath><clipPath id="c7f1cbd4c9"><path d="M 25 12 L 29.515625 12 L 29.515625 18 L 25 18 Z M 25 12 " clip-rule="nonzero"/></clipPath></defs><g clip-path="url(#418a19bf5c)"><path fill="#caddff" d="M 7.078125 1.230469 C 5.09375 1.992188 3.5 3.652344 2.890625 4.832031 C 0.484375 9.472656 1.054688 19.277344 5.296875 24.472656 C 6.292969 25.691406 11.332031 29.308594 18.480469 28.0625 C 24.804688 26.957031 28.527344 20.90625 29.070312 15.761719 C 29.515625 11.5 27.984375 5.898438 24.15625 3.863281 C 21.746094 2.582031 22.476562 3.476562 17.003906 2.367188 C 12.265625 1.40625 9.507812 0.300781 7.078125 1.230469 " fill-opacity="1" fill-rule="nonzero"/></g><path fill="#99b9ff" d="M 5.347656 7.480469 C 4.4375 7.730469 3.496094 7.195312 3.246094 6.292969 C 2.996094 5.386719 3.535156 4.453125 4.445312 4.207031 C 5.355469 3.957031 6.296875 4.488281 6.546875 5.394531 C 6.796875 6.300781 6.261719 7.234375 5.347656 7.480469 Z M 8.300781 5.261719 L 8.125 4.625 L 7.398438 4.65625 C 7.332031 4.515625 7.253906 4.382812 7.167969 4.257812 L 7.550781 3.648438 L 7.078125 3.183594 L 6.46875 3.574219 C 6.339844 3.484375 6.207031 3.410156 6.066406 3.34375 L 6.089844 2.625 L 5.449219 2.457031 L 5.113281 3.097656 C 4.960938 3.085938 4.804688 3.085938 4.652344 3.101562 L 4.308594 2.464844 L 3.667969 2.636719 L 3.703125 3.359375 C 3.5625 3.425781 3.425781 3.503906 3.300781 3.589844 L 2.6875 3.207031 L 2.21875 3.675781 L 2.609375 4.285156 C 2.523438 4.410156 2.445312 4.542969 2.382812 4.683594 L 1.65625 4.660156 L 1.488281 5.296875 L 2.132812 5.628906 C 2.121094 5.78125 2.121094 5.933594 2.132812 6.085938 L 1.492188 6.425781 L 1.667969 7.0625 L 2.394531 7.03125 C 2.460938 7.171875 2.539062 7.304688 2.628906 7.425781 L 2.242188 8.039062 L 2.714844 8.503906 L 3.328125 8.113281 C 3.453125 8.199219 3.589844 8.277344 3.730469 8.339844 L 3.703125 9.0625 L 4.347656 9.230469 L 4.679688 8.589844 C 4.832031 8.601562 4.988281 8.601562 5.144531 8.585938 L 5.484375 9.222656 L 6.125 9.046875 L 6.09375 8.328125 C 6.234375 8.261719 6.367188 8.183594 6.492188 8.097656 L 7.109375 8.476562 L 7.574219 8.007812 L 7.183594 7.402344 C 7.269531 7.277344 7.347656 7.140625 7.414062 7.003906 L 8.136719 7.027344 L 8.308594 6.390625 L 7.664062 6.058594 C 7.675781 5.90625 7.675781 5.753906 7.660156 5.597656 L 8.300781 5.261719 " fill-opacity="1" fill-rule="nonzero"/><path fill="#99b9ff" d="M 10.953125 5.632812 C 10.265625 5.59375 9.738281 5.007812 9.78125 4.324219 C 9.820312 3.640625 10.414062 3.117188 11.101562 3.160156 C 11.789062 3.199219 12.3125 3.785156 12.273438 4.46875 C 12.230469 5.152344 11.640625 5.671875 10.953125 5.632812 Z M 13.515625 4.785156 L 13.546875 4.304688 L 13.035156 4.15625 C 13.023438 4.042969 13 3.933594 12.96875 3.828125 L 13.378906 3.496094 L 13.160156 3.066406 L 12.648438 3.191406 C 12.582031 3.101562 12.503906 3.019531 12.421875 2.941406 L 12.609375 2.449219 L 12.207031 2.183594 L 11.824219 2.546875 C 11.722656 2.503906 11.613281 2.46875 11.503906 2.441406 L 11.417969 1.921875 L 10.933594 1.894531 L 10.789062 2.402344 C 10.675781 2.414062 10.5625 2.4375 10.457031 2.46875 L 10.121094 2.0625 L 9.6875 2.277344 L 9.8125 2.789062 C 9.722656 2.855469 9.640625 2.929688 9.5625 3.011719 L 9.066406 2.824219 L 8.800781 3.226562 L 9.164062 3.605469 C 9.121094 3.707031 9.085938 3.8125 9.058594 3.921875 L 8.535156 4.007812 L 8.507812 4.488281 L 9.015625 4.632812 C 9.03125 4.746094 9.054688 4.855469 9.085938 4.964844 L 8.675781 5.296875 L 8.890625 5.726562 L 9.40625 5.601562 C 9.472656 5.691406 9.546875 5.773438 9.628906 5.851562 L 9.441406 6.34375 L 9.847656 6.609375 L 10.230469 6.242188 C 10.332031 6.289062 10.4375 6.324219 10.550781 6.347656 L 10.636719 6.867188 L 11.121094 6.894531 L 11.265625 6.390625 C 11.378906 6.378906 11.492188 6.355469 11.597656 6.324219 L 11.933594 6.730469 L 12.367188 6.515625 L 12.238281 6.003906 C 12.328125 5.9375 12.414062 5.863281 12.492188 5.78125 L 12.988281 5.96875 L 13.253906 5.566406 L 12.886719 5.1875 C 12.933594 5.085938 12.96875 4.980469 12.992188 4.867188 L 13.515625 4.785156 " fill-opacity="1" fill-rule="nonzero"/><path fill="#5479f7" d="M 2.171875 20.660156 L 18.128906 18.457031 C 18.527344 18.40625 18.828125 18.070312 18.828125 17.667969 L 19.046875 6.628906 C 19.046875 6.628906 18.683594 6.367188 18.476562 6.269531 C 18.371094 6.21875 18.25 6.195312 18.125 6.210938 L 2.21875 8.222656 C 1.820312 8.273438 1.519531 8.613281 1.519531 9.011719 L 1.519531 19.855469 C 1.519531 20.050781 1.609375 20.222656 1.746094 20.335938 C 1.875 20.4375 2.171875 20.660156 2.171875 20.660156 " fill-opacity="1" fill-rule="nonzero"/><path fill="#99b9ff" d="M 2.660156 20.804688 L 18.566406 18.792969 C 18.96875 18.742188 19.265625 18.40625 19.265625 18.003906 L 19.265625 7.160156 C 19.265625 6.789062 18.9375 6.5 18.566406 6.546875 L 2.660156 8.558594 C 2.257812 8.609375 1.957031 8.949219 1.957031 9.347656 L 1.957031 20.191406 C 1.957031 20.566406 2.289062 20.851562 2.660156 20.804688 " fill-opacity="1" fill-rule="nonzero"/><path fill="#000000" d="M 19.265625 9.609375 C 19.238281 9.609375 19.21875 9.585938 19.21875 9.558594 L 19.21875 7.160156 C 19.21875 6.996094 19.148438 6.839844 19.023438 6.734375 C 18.898438 6.625 18.734375 6.574219 18.570312 6.59375 L 6.082031 8.175781 C 6.054688 8.179688 6.03125 8.160156 6.027344 8.132812 C 6.023438 8.105469 6.042969 8.082031 6.070312 8.078125 L 18.558594 6.496094 C 18.75 6.472656 18.945312 6.53125 19.089844 6.660156 C 19.234375 6.785156 19.316406 6.96875 19.316406 7.160156 L 19.316406 9.558594 C 19.316406 9.585938 19.296875 9.609375 19.265625 9.609375 " fill-opacity="1" fill-rule="nonzero"/><path fill="#ffffff" d="M 2.996094 20.359375 L 18.1875 18.4375 C 18.476562 18.402344 18.695312 18.15625 18.695312 17.863281 L 18.695312 7.402344 C 18.695312 7.15625 18.476562 6.960938 18.226562 6.992188 L 3.039062 8.914062 C 2.746094 8.953125 2.527344 9.199219 2.527344 9.488281 L 2.527344 19.949219 C 2.527344 20.199219 2.75 20.390625 2.996094 20.359375 " fill-opacity="1" fill-rule="nonzero"/><path fill="#99b9ff" d="M 11.941406 27.191406 L 28.300781 25.097656 C 28.425781 25.082031 28.5 24.976562 28.496094 24.871094 C 28.496094 24.796875 28.492188 24.28125 28.492188 24.28125 L 19.839844 19.375 C 19.40625 19.128906 18.847656 19.035156 18.351562 19.097656 L 2.199219 21.164062 C 2.101562 21.175781 2.019531 21.238281 1.980469 21.328125 L 1.953125 21.390625 C 1.953125 21.390625 1.96875 21.820312 1.960938 21.921875 C 1.957031 22 1.992188 22.082031 2.078125 22.128906 L 10.507812 26.910156 C 10.941406 27.15625 11.445312 27.253906 11.941406 27.191406 " fill-opacity="1" fill-rule="nonzero"/><path fill="#ffffff" d="M 11.941406 26.617188 L 28.242188 24.527344 C 28.457031 24.5 28.515625 24.214844 28.324219 24.109375 L 19.9375 19.355469 C 19.503906 19.109375 19 19.011719 18.507812 19.074219 L 2.207031 21.164062 C 1.988281 21.191406 1.933594 21.476562 2.121094 21.582031 L 10.507812 26.335938 C 10.941406 26.582031 11.445312 26.679688 11.941406 26.617188 " fill-opacity="1" fill-rule="nonzero"/><path fill="#000000" d="M 11.652344 26.683594 C 11.246094 26.683594 10.839844 26.582031 10.484375 26.378906 L 2.097656 21.625 C 1.992188 21.566406 1.9375 21.453125 1.960938 21.335938 C 1.984375 21.214844 2.078125 21.128906 2.199219 21.113281 L 18.5 19.023438 C 19.003906 18.960938 19.523438 19.0625 19.960938 19.3125 L 20.539062 19.640625 C 20.566406 19.65625 20.574219 19.683594 20.558594 19.707031 C 20.546875 19.734375 20.515625 19.742188 20.492188 19.726562 L 19.910156 19.398438 C 19.492188 19.160156 18.992188 19.0625 18.511719 19.125 L 2.210938 21.214844 C 2.117188 21.226562 2.070312 21.292969 2.058594 21.351562 C 2.046875 21.414062 2.066406 21.492188 2.144531 21.539062 L 10.535156 26.292969 C 10.957031 26.53125 11.453125 26.628906 11.933594 26.570312 L 23.960938 25.027344 C 23.988281 25.023438 24.011719 25.042969 24.015625 25.070312 C 24.019531 25.097656 24 25.121094 23.972656 25.125 L 11.945312 26.667969 C 11.847656 26.679688 11.75 26.683594 11.652344 26.683594 " fill-opacity="1" fill-rule="nonzero"/><path fill="#99b9ff" d="M 8.75 23.980469 L 22.882812 22.15625 C 23.078125 22.128906 23.128906 21.871094 22.960938 21.777344 L 19.636719 19.910156 C 19.246094 19.6875 18.789062 19.601562 18.34375 19.65625 L 4.207031 21.480469 C 4.011719 21.507812 3.960938 21.765625 4.132812 21.859375 L 7.457031 23.726562 C 7.847656 23.945312 8.300781 24.035156 8.75 23.980469 " fill-opacity="1" fill-rule="nonzero"/><path fill="#000000" d="M 7.414062 22.007812 C 7.390625 22.007812 7.367188 21.988281 7.363281 21.964844 C 7.359375 21.9375 7.378906 21.914062 7.40625 21.910156 L 14.464844 20.964844 C 14.492188 20.960938 14.519531 20.980469 14.523438 21.007812 C 14.523438 21.035156 14.507812 21.058594 14.480469 21.0625 L 7.421875 22.007812 C 7.417969 22.007812 7.417969 22.007812 7.414062 22.007812 " fill-opacity="1" fill-rule="nonzero"/><path fill="#000000" d="M 11.988281 22.292969 C 11.964844 22.292969 11.941406 22.273438 11.941406 22.25 C 11.9375 22.222656 11.953125 22.199219 11.980469 22.195312 L 15.648438 21.699219 C 15.675781 21.695312 15.699219 21.714844 15.703125 21.742188 C 15.707031 21.769531 15.6875 21.792969 15.660156 21.796875 L 11.996094 22.292969 C 11.992188 22.292969 11.992188 22.292969 11.988281 22.292969 " fill-opacity="1" fill-rule="nonzero"/><path fill="#99b9ff" d="M 8.828125 19.671875 C 8.34375 19.75 7.878906 19.351562 7.789062 18.785156 L 6.710938 11.789062 L 8.460938 11.519531 L 9.546875 18.527344 C 9.632812 19.085938 9.3125 19.601562 8.828125 19.671875 " fill-opacity="1" fill-rule="nonzero"/><path fill="#000000" d="M 8.820312 19.625 L 8.828125 19.671875 L 8.820312 19.625 C 9.273438 19.554688 9.578125 19.066406 9.496094 18.535156 L 8.421875 11.574219 L 6.765625 11.832031 L 7.839844 18.777344 C 7.882812 19.0625 8.03125 19.320312 8.25 19.476562 C 8.421875 19.601562 8.625 19.65625 8.820312 19.625 Z M 8.714844 19.734375 C 8.53125 19.734375 8.347656 19.671875 8.191406 19.554688 C 7.953125 19.382812 7.789062 19.105469 7.742188 18.792969 L 6.660156 11.796875 C 6.65625 11.769531 6.675781 11.742188 6.703125 11.738281 L 8.453125 11.46875 C 8.46875 11.46875 8.480469 11.472656 8.492188 11.480469 C 8.503906 11.488281 8.511719 11.5 8.511719 11.511719 L 9.59375 18.519531 C 9.683594 19.105469 9.34375 19.644531 8.835938 19.722656 C 8.796875 19.730469 8.753906 19.734375 8.714844 19.734375 " fill-opacity="1" fill-rule="nonzero"/><path fill="#5479f7" d="M 11.09375 6.679688 L 6.210938 7.765625 L 4.109375 8.65625 L 3.105469 9.425781 L 3.097656 9.429688 C 2.910156 9.558594 2.804688 9.988281 2.84375 10.484375 C 2.882812 10.976562 3.058594 11.382812 3.261719 11.484375 L 3.253906 11.484375 L 4.308594 12.066406 L 6.511719 12.601562 L 11.554688 12.878906 L 16.605469 16.085938 L 16.644531 16.101562 C 15.378906 15.277344 14.304688 12.691406 14.054688 9.5625 C 13.804688 6.4375 14.453125 3.726562 15.574219 2.722656 L 15.570312 2.722656 L 11.152344 6.628906 L 11.09375 6.679688 " fill-opacity="1" fill-rule="nonzero"/><path fill="#5479f7" d="M 19.996094 9.121094 C 20.304688 13.003906 19.226562 16.25 17.585938 16.371094 C 15.945312 16.496094 14.363281 13.445312 14.054688 9.5625 C 13.742188 5.679688 14.824219 2.433594 16.464844 2.3125 C 18.105469 2.1875 19.6875 5.238281 19.996094 9.121094 " fill-opacity="1" fill-rule="nonzero"/><path fill="#000000" d="M 17.488281 16.425781 C 16.707031 16.425781 15.925781 15.746094 15.277344 14.492188 C 14.605469 13.199219 14.152344 11.453125 14.003906 9.566406 C 13.777344 6.714844 14.292969 4.101562 15.320312 2.910156 C 15.664062 2.511719 16.046875 2.292969 16.460938 2.261719 C 17.304688 2.199219 18.144531 2.925781 18.835938 4.3125 C 18.847656 4.335938 18.835938 4.367188 18.8125 4.378906 C 18.789062 4.390625 18.757812 4.382812 18.746094 4.355469 C 18.085938 3.03125 17.257812 2.304688 16.46875 2.359375 C 16.082031 2.390625 15.722656 2.597656 15.394531 2.976562 C 14.386719 4.148438 13.878906 6.730469 14.101562 9.558594 C 14.410156 13.410156 15.96875 16.445312 17.582031 16.324219 C 18.742188 16.238281 19.660156 14.511719 19.925781 11.929688 C 19.925781 11.902344 19.953125 11.882812 19.980469 11.886719 C 20.007812 11.890625 20.027344 11.914062 20.023438 11.941406 C 19.753906 14.574219 18.800781 16.332031 17.589844 16.421875 C 17.554688 16.425781 17.523438 16.425781 17.488281 16.425781 " fill-opacity="1" fill-rule="nonzero"/><path fill="#000000" d="M 19.871094 8.066406 C 19.847656 8.066406 19.824219 8.046875 19.820312 8.023438 C 19.789062 7.808594 19.753906 7.589844 19.714844 7.378906 C 19.707031 7.351562 19.726562 7.328125 19.753906 7.320312 C 19.78125 7.316406 19.804688 7.335938 19.8125 7.363281 C 19.851562 7.574219 19.886719 7.792969 19.921875 8.007812 C 19.925781 8.035156 19.90625 8.0625 19.878906 8.066406 C 19.875 8.066406 19.875 8.066406 19.871094 8.066406 " fill-opacity="1" fill-rule="nonzero"/><path fill="#000000" d="M 18.152344 4.226562 C 18.136719 4.226562 18.121094 4.21875 18.109375 4.203125 C 17.613281 3.492188 17.066406 3.136719 16.53125 3.179688 C 16.503906 3.179688 16.480469 3.160156 16.480469 3.132812 C 16.476562 3.105469 16.496094 3.082031 16.523438 3.078125 C 17.097656 3.035156 17.671875 3.40625 18.191406 4.148438 C 18.207031 4.171875 18.203125 4.203125 18.179688 4.21875 C 18.171875 4.222656 18.160156 4.226562 18.152344 4.226562 " fill-opacity="1" fill-rule="nonzero"/><path fill="#000000" d="M 17.085938 15.554688 C 17.078125 15.554688 17.074219 15.554688 17.070312 15.550781 C 15.738281 15.148438 14.59375 12.617188 14.347656 9.542969 C 14.125 6.734375 14.730469 4.191406 15.820312 3.363281 C 15.84375 3.34375 15.875 3.347656 15.890625 3.371094 C 15.90625 3.390625 15.902344 3.421875 15.882812 3.441406 C 14.816406 4.25 14.226562 6.757812 14.449219 9.535156 C 14.566406 11.011719 14.902344 12.421875 15.398438 13.511719 C 15.882812 14.578125 16.488281 15.269531 17.097656 15.457031 C 17.125 15.464844 17.140625 15.492188 17.132812 15.519531 C 17.125 15.542969 17.105469 15.554688 17.085938 15.554688 " fill-opacity="1" fill-rule="nonzero"/><path fill="#000000" d="M 19.273438 13.519531 C 19.265625 13.519531 19.261719 13.519531 19.257812 13.519531 C 19.230469 13.511719 19.214844 13.484375 19.222656 13.457031 C 19.355469 13.039062 19.457031 12.574219 19.527344 12.078125 C 19.53125 12.050781 19.558594 12.03125 19.582031 12.035156 C 19.609375 12.039062 19.628906 12.0625 19.625 12.089844 C 19.554688 12.59375 19.453125 13.066406 19.320312 13.488281 C 19.3125 13.507812 19.292969 13.519531 19.273438 13.519531 " fill-opacity="1" fill-rule="nonzero"/><path fill="#99b9ff" d="M 16.816406 9.363281 C 16.890625 10.261719 16.640625 11.011719 16.257812 11.039062 C 15.878906 11.070312 15.511719 10.363281 15.441406 9.464844 C 15.371094 8.566406 15.621094 7.8125 16 7.785156 C 16.378906 7.757812 16.746094 8.460938 16.816406 9.363281 " fill-opacity="1" fill-rule="nonzero"/><path fill="#000000" d="M 16.023438 7.835938 C 16.015625 7.835938 16.011719 7.835938 16.003906 7.835938 C 15.925781 7.839844 15.851562 7.882812 15.78125 7.964844 C 15.554688 8.226562 15.441406 8.816406 15.492188 9.460938 C 15.558594 10.300781 15.898438 10.992188 16.238281 10.992188 C 16.242188 10.992188 16.25 10.992188 16.257812 10.992188 C 16.335938 10.984375 16.410156 10.941406 16.476562 10.863281 C 16.707031 10.597656 16.820312 10.011719 16.769531 9.367188 C 16.699219 8.523438 16.363281 7.835938 16.023438 7.835938 Z M 16.238281 11.089844 C 15.832031 11.089844 15.464844 10.390625 15.390625 9.46875 C 15.339844 8.796875 15.460938 8.183594 15.707031 7.898438 C 15.792969 7.796875 15.890625 7.742188 15.996094 7.734375 C 16.410156 7.703125 16.792969 8.417969 16.867188 9.359375 C 16.921875 10.027344 16.796875 10.644531 16.554688 10.925781 C 16.46875 11.027344 16.371094 11.082031 16.261719 11.089844 C 16.253906 11.089844 16.246094 11.089844 16.238281 11.089844 " fill-opacity="1" fill-rule="nonzero"/><path fill="#000000" d="M 6.519531 12.550781 L 11.558594 12.832031 C 11.566406 12.832031 11.574219 12.832031 11.582031 12.835938 L 16.105469 15.707031 C 15.03125 14.570312 14.214844 12.234375 14.003906 9.566406 C 13.792969 6.921875 14.222656 4.503906 15.085938 3.214844 L 11.128906 6.714844 C 11.121094 6.71875 11.113281 6.722656 11.105469 6.726562 L 6.226562 7.8125 L 4.132812 8.699219 L 3.132812 9.46875 C 3.128906 9.46875 3.128906 9.472656 3.128906 9.472656 C 2.957031 9.589844 2.859375 10.011719 2.894531 10.480469 C 2.929688 10.941406 3.09375 11.34375 3.285156 11.441406 C 3.292969 11.445312 3.296875 11.449219 3.300781 11.453125 L 4.324219 12.019531 Z M 16.644531 16.152344 C 16.636719 16.152344 16.628906 16.148438 16.625 16.148438 L 16.585938 16.128906 C 16.582031 16.128906 16.582031 16.128906 16.578125 16.125 L 11.539062 12.929688 L 6.507812 12.652344 C 6.503906 12.652344 6.503906 12.648438 6.5 12.648438 L 4.296875 12.113281 C 4.292969 12.113281 4.289062 12.109375 4.285156 12.109375 L 3.230469 11.527344 C 3.222656 11.523438 3.21875 11.519531 3.214844 11.515625 C 3 11.382812 2.835938 10.976562 2.796875 10.488281 C 2.753906 9.972656 2.863281 9.535156 3.066406 9.390625 L 3.074219 9.386719 L 4.078125 8.617188 C 4.082031 8.617188 4.085938 8.613281 4.089844 8.613281 L 6.191406 7.71875 C 6.191406 7.71875 6.195312 7.714844 6.199219 7.714844 L 11.070312 6.632812 L 15.539062 2.683594 C 15.558594 2.664062 15.589844 2.667969 15.609375 2.6875 C 15.617188 2.699219 15.625 2.710938 15.621094 2.722656 C 15.621094 2.738281 15.617188 2.75 15.605469 2.757812 C 15.066406 3.242188 14.621094 4.167969 14.347656 5.359375 C 14.066406 6.597656 13.984375 8.050781 14.101562 9.558594 C 14.222656 11.070312 14.539062 12.496094 15.015625 13.679688 C 15.472656 14.816406 16.058594 15.664062 16.671875 16.058594 C 16.695312 16.074219 16.703125 16.101562 16.6875 16.125 C 16.679688 16.140625 16.664062 16.152344 16.644531 16.152344 " fill-opacity="1" fill-rule="nonzero"/><path fill="#ffffff" d="M 11.105469 6.664062 L 15.570312 2.722656 L 15.574219 2.722656 C 14.453125 3.726562 13.804688 6.4375 14.054688 9.5625 C 14.304688 12.691406 15.378906 15.277344 16.644531 16.101562 L 16.605469 16.085938 L 11.5625 12.886719 L 11.445312 12.8125 C 10.859375 12.4375 10.363281 11.265625 10.253906 9.851562 C 10.140625 8.398438 10.535156 7.164062 11.050781 6.714844 L 11.105469 6.664062 " fill-opacity="1" fill-rule="nonzero"/><path fill="#000000" d="M 11.105469 6.667969 L 11.109375 6.667969 Z M 15.085938 3.214844 L 11.140625 6.703125 L 11.085938 6.75 C 10.609375 7.167969 10.1875 8.363281 10.304688 9.847656 C 10.40625 11.195312 10.886719 12.394531 11.472656 12.769531 L 11.589844 12.84375 L 16.105469 15.707031 C 15.03125 14.570312 14.214844 12.234375 14.003906 9.566406 C 13.792969 6.921875 14.222656 4.503906 15.085938 3.214844 Z M 16.644531 16.152344 C 16.636719 16.152344 16.628906 16.148438 16.625 16.148438 L 16.585938 16.128906 C 16.582031 16.128906 16.582031 16.128906 16.578125 16.125 L 11.535156 12.925781 L 11.417969 12.851562 C 10.800781 12.457031 10.3125 11.253906 10.203125 9.855469 C 10.082031 8.269531 10.539062 7.09375 11.019531 6.675781 L 11.074219 6.628906 L 15.539062 2.683594 C 15.558594 2.664062 15.589844 2.667969 15.609375 2.6875 C 15.617188 2.699219 15.625 2.710938 15.621094 2.722656 C 15.621094 2.738281 15.617188 2.75 15.605469 2.757812 C 15.066406 3.242188 14.621094 4.167969 14.347656 5.359375 C 14.066406 6.597656 13.984375 8.050781 14.101562 9.558594 C 14.222656 11.070312 14.539062 12.496094 15.015625 13.679688 C 15.472656 14.816406 16.058594 15.664062 16.671875 16.058594 C 16.695312 16.074219 16.703125 16.101562 16.6875 16.125 C 16.679688 16.140625 16.664062 16.152344 16.644531 16.152344 " fill-opacity="1" fill-rule="nonzero"/><path fill="#000000" d="M 4.25 12.082031 C 4.242188 12.082031 4.234375 12.082031 4.226562 12.078125 L 3.230469 11.527344 C 3.222656 11.523438 3.21875 11.519531 3.214844 11.515625 C 3 11.382812 2.835938 10.976562 2.796875 10.488281 C 2.753906 9.972656 2.863281 9.535156 3.066406 9.390625 L 3.074219 9.386719 L 4.078125 8.617188 C 4.097656 8.601562 4.128906 8.605469 4.148438 8.628906 C 4.164062 8.648438 4.160156 8.679688 4.136719 8.695312 L 3.132812 9.46875 C 3.128906 9.46875 3.128906 9.472656 3.128906 9.472656 C 2.957031 9.589844 2.859375 10.011719 2.894531 10.480469 C 2.929688 10.941406 3.09375 11.34375 3.285156 11.441406 C 3.292969 11.445312 3.296875 11.449219 3.300781 11.453125 L 4.273438 11.988281 C 4.300781 12.003906 4.308594 12.035156 4.292969 12.058594 C 4.285156 12.074219 4.269531 12.082031 4.25 12.082031 " fill-opacity="1" fill-rule="nonzero"/><path fill="#5479f7" d="M 4.320312 12.0625 C 3.992188 11.894531 3.71875 11.222656 3.65625 10.417969 C 3.585938 9.566406 3.808594 8.808594 4.140625 8.644531 L 3.105469 9.425781 L 3.097656 9.429688 C 2.910156 9.558594 2.804688 9.988281 2.84375 10.484375 C 2.882812 10.976562 3.058594 11.382812 3.261719 11.484375 L 3.253906 11.484375 L 4.320312 12.0625 " fill-opacity="1" fill-rule="nonzero"/><path fill="#000000" d="M 3.300781 11.453125 L 4.019531 11.84375 C 3.808594 11.535156 3.652344 11.019531 3.605469 10.421875 C 3.558594 9.84375 3.644531 9.304688 3.8125 8.953125 L 3.132812 9.46875 C 3.128906 9.46875 3.128906 9.472656 3.128906 9.472656 C 2.957031 9.589844 2.859375 10.011719 2.894531 10.480469 C 2.929688 10.941406 3.09375 11.34375 3.285156 11.441406 C 3.292969 11.445312 3.296875 11.449219 3.300781 11.453125 Z M 4.320312 12.113281 C 4.3125 12.113281 4.304688 12.109375 4.296875 12.105469 C 4.289062 12.101562 4.28125 12.097656 4.273438 12.09375 L 3.230469 11.527344 C 3.222656 11.523438 3.21875 11.519531 3.214844 11.515625 C 3 11.382812 2.835938 10.976562 2.796875 10.488281 C 2.753906 9.972656 2.863281 9.535156 3.066406 9.390625 L 3.074219 9.386719 L 3.984375 8.703125 C 4.027344 8.660156 4.070312 8.625 4.117188 8.601562 C 4.140625 8.589844 4.167969 8.597656 4.183594 8.617188 C 4.195312 8.640625 4.191406 8.667969 4.171875 8.683594 L 4.042969 8.78125 C 3.792969 9.046875 3.648438 9.710938 3.703125 10.414062 C 3.765625 11.183594 4.019531 11.828125 4.320312 12.007812 L 4.34375 12.019531 C 4.367188 12.03125 4.375 12.0625 4.363281 12.085938 C 4.355469 12.101562 4.335938 12.113281 4.320312 12.113281 " fill-opacity="1" fill-rule="nonzero"/><path fill="#000000" d="M 6.429688 12.582031 L 6.527344 12.601562 C 6.007812 12.5 5.5625 11.476562 5.460938 10.242188 C 5.363281 8.984375 5.699219 7.910156 6.210938 7.765625 L 6.140625 7.792969 L 4.148438 8.640625 C 3.8125 8.800781 3.585938 9.5625 3.65625 10.417969 C 3.722656 11.242188 4.015625 11.933594 4.359375 12.074219 L 6.429688 12.582031 " fill-opacity="1" fill-rule="nonzero"/><path fill="#000000" d="M 4.375 12.027344 L 6.195312 12.472656 C 5.800781 12.113281 5.496094 11.265625 5.414062 10.246094 C 5.335938 9.277344 5.519531 8.398438 5.851562 7.96875 L 4.167969 8.6875 C 3.84375 8.839844 3.640625 9.597656 3.703125 10.414062 C 3.769531 11.214844 4.050781 11.890625 4.375 12.027344 Z M 6.515625 12.648438 C 6.511719 12.648438 6.511719 12.648438 6.507812 12.648438 L 6.417969 12.628906 L 4.34375 12.121094 L 4.339844 12.121094 C 3.972656 11.972656 3.671875 11.273438 3.605469 10.421875 C 3.535156 9.554688 3.757812 8.769531 4.125 8.597656 L 6.082031 7.765625 C 6.117188 7.746094 6.15625 7.726562 6.195312 7.714844 L 6.230469 7.808594 L 6.121094 7.855469 C 5.691406 8.105469 5.421875 9.125 5.511719 10.238281 C 5.609375 11.457031 6.046875 12.449219 6.527344 12.550781 L 6.535156 12.550781 L 6.515625 12.648438 " fill-opacity="1" fill-rule="nonzero"/><path fill="#000000" d="M 16 7.785156 C 15.621094 7.8125 15.355469 8.566406 15.441406 9.464844 C 15.589844 10.96875 16.183594 11.046875 16.253906 11.050781 C 16.253906 11.050781 16.253906 11.054688 16.253906 11.054688 L 14.71875 11.488281 C 14.582031 10.878906 14.480469 10.222656 14.425781 9.535156 C 14.371094 8.878906 14.367188 8.242188 14.398438 7.640625 L 16 7.785156 " fill-opacity="1" fill-rule="nonzero"/><path fill="#000000" d="M 14.445312 7.695312 C 14.414062 8.289062 14.425781 8.910156 14.476562 9.53125 C 14.527344 10.183594 14.621094 10.820312 14.753906 11.425781 L 16.078125 11.050781 C 15.855469 10.941406 15.5 10.589844 15.390625 9.46875 C 15.328125 8.816406 15.445312 8.203125 15.695312 7.90625 C 15.726562 7.871094 15.757812 7.839844 15.792969 7.816406 Z M 14.679688 11.550781 L 14.667969 11.5 C 14.527344 10.875 14.429688 10.214844 14.375 9.539062 C 14.324219 8.894531 14.316406 8.253906 14.347656 7.636719 L 14.351562 7.585938 L 16.003906 7.734375 L 16.003906 7.835938 C 15.921875 7.839844 15.84375 7.886719 15.773438 7.972656 C 15.542969 8.242188 15.429688 8.839844 15.492188 9.460938 C 15.636719 10.925781 16.195312 10.996094 16.257812 11 L 16.300781 11.003906 L 16.308594 11.085938 L 16.269531 11.101562 L 14.679688 11.550781 " fill-opacity="1" fill-rule="nonzero"/><path fill="#ffffff" d="M 27.683594 9.601562 C 27.773438 9.601562 27.847656 9.671875 27.847656 9.761719 L 27.847656 10.875 C 27.847656 10.964844 27.773438 11.039062 27.683594 11.039062 L 24.589844 11.039062 C 24.5 11.039062 24.425781 10.964844 24.425781 10.875 L 24.425781 9.761719 C 24.425781 9.671875 24.5 9.601562 24.589844 9.601562 L 27.683594 9.601562 " fill-opacity="1" fill-rule="nonzero"/><path fill="#000000" d="M 27.683594 11.089844 L 24.589844 11.089844 C 24.472656 11.089844 24.375 10.992188 24.375 10.875 L 24.375 9.761719 C 24.375 9.644531 24.472656 9.550781 24.589844 9.550781 L 25.199219 9.550781 C 25.226562 9.550781 25.25 9.574219 25.25 9.601562 C 25.25 9.628906 25.226562 9.652344 25.199219 9.652344 L 24.589844 9.652344 C 24.527344 9.652344 24.476562 9.699219 24.476562 9.761719 L 24.476562 10.875 C 24.476562 10.9375 24.527344 10.988281 24.589844 10.988281 L 27.683594 10.988281 C 27.746094 10.988281 27.796875 10.9375 27.796875 10.875 L 27.796875 9.761719 C 27.796875 9.699219 27.746094 9.652344 27.683594 9.652344 L 25.613281 9.652344 C 25.585938 9.652344 25.5625 9.628906 25.5625 9.601562 C 25.5625 9.574219 25.585938 9.550781 25.613281 9.550781 L 27.683594 9.550781 C 27.800781 9.550781 27.898438 9.644531 27.898438 9.761719 L 27.898438 10.875 C 27.898438 10.992188 27.800781 11.089844 27.683594 11.089844 " fill-opacity="1" fill-rule="nonzero"/><path fill="#000000" d="M 27.394531 10.179688 L 24.9375 10.179688 C 24.910156 10.179688 24.886719 10.160156 24.886719 10.128906 C 24.886719 10.101562 24.910156 10.082031 24.9375 10.082031 L 27.394531 10.082031 C 27.421875 10.082031 27.445312 10.101562 27.445312 10.128906 C 27.445312 10.160156 27.421875 10.179688 27.394531 10.179688 " fill-opacity="1" fill-rule="nonzero"/><path fill="#000000" d="M 27.394531 10.507812 L 26.882812 10.507812 C 26.855469 10.507812 26.832031 10.484375 26.832031 10.457031 C 26.832031 10.429688 26.855469 10.40625 26.882812 10.40625 L 27.394531 10.40625 C 27.421875 10.40625 27.445312 10.429688 27.445312 10.457031 C 27.445312 10.484375 27.421875 10.507812 27.394531 10.507812 " fill-opacity="1" fill-rule="nonzero"/><path fill="#000000" d="M 26.554688 10.507812 L 24.9375 10.507812 C 24.910156 10.507812 24.886719 10.484375 24.886719 10.457031 C 24.886719 10.429688 24.910156 10.40625 24.9375 10.40625 L 26.554688 10.40625 C 26.582031 10.40625 26.601562 10.429688 26.601562 10.457031 C 26.601562 10.484375 26.582031 10.507812 26.554688 10.507812 " fill-opacity="1" fill-rule="nonzero"/><path fill="#5479f7" d="M 21.421875 9.3125 C 20.863281 8.761719 20.855469 7.863281 21.40625 7.304688 C 21.957031 6.746094 22.855469 6.738281 23.417969 7.285156 C 23.976562 7.835938 23.984375 8.734375 23.433594 9.292969 C 22.886719 9.851562 21.984375 9.863281 21.421875 9.3125 " fill-opacity="1" fill-rule="nonzero"/><path fill="#ffffff" d="M 23.382812 8.222656 L 22.417969 9.207031 C 22.367188 9.257812 22.28125 9.257812 22.230469 9.207031 L 21.550781 8.539062 C 21.5 8.488281 21.496094 8.40625 21.550781 8.355469 L 22.515625 7.371094 C 22.566406 7.320312 22.652344 7.320312 22.703125 7.371094 L 23.382812 8.035156 C 23.433594 8.085938 23.4375 8.171875 23.382812 8.222656 " fill-opacity="1" fill-rule="nonzero"/><path fill="#000000" d="M 22.609375 7.382812 C 22.585938 7.382812 22.566406 7.390625 22.550781 7.40625 L 21.585938 8.390625 C 21.554688 8.421875 21.554688 8.472656 21.585938 8.503906 L 22.265625 9.171875 C 22.28125 9.1875 22.300781 9.195312 22.324219 9.195312 C 22.347656 9.195312 22.367188 9.1875 22.382812 9.171875 L 23.347656 8.1875 C 23.378906 8.15625 23.378906 8.105469 23.347656 8.070312 L 22.667969 7.40625 C 22.652344 7.390625 22.632812 7.382812 22.609375 7.382812 Z M 22.324219 9.292969 C 22.273438 9.292969 22.230469 9.277344 22.195312 9.242188 L 21.515625 8.578125 C 21.445312 8.507812 21.441406 8.390625 21.511719 8.320312 L 22.480469 7.335938 C 22.515625 7.300781 22.558594 7.285156 22.609375 7.28125 C 22.65625 7.28125 22.703125 7.300781 22.738281 7.335938 L 23.417969 8 C 23.488281 8.070312 23.488281 8.1875 23.421875 8.257812 L 22.453125 9.242188 C 22.417969 9.273438 22.375 9.292969 22.324219 9.292969 " fill-opacity="1" fill-rule="nonzero"/><path fill="#000000" d="M 21.894531 8.503906 C 21.871094 8.503906 21.847656 8.488281 21.84375 8.464844 C 21.839844 8.441406 21.855469 8.414062 21.882812 8.40625 L 22.5 8.273438 C 22.527344 8.269531 22.550781 8.285156 22.558594 8.3125 C 22.5625 8.339844 22.546875 8.363281 22.519531 8.371094 L 21.902344 8.503906 C 21.898438 8.503906 21.894531 8.503906 21.894531 8.503906 " fill-opacity="1" fill-rule="nonzero"/><path fill="#000000" d="M 22.511719 8.371094 C 22.507812 8.371094 22.503906 8.367188 22.503906 8.367188 C 22.476562 8.363281 22.457031 8.335938 22.464844 8.308594 L 22.585938 7.691406 C 22.589844 7.664062 22.617188 7.648438 22.644531 7.652344 C 22.671875 7.660156 22.6875 7.683594 22.683594 7.710938 L 22.5625 8.328125 C 22.554688 8.351562 22.535156 8.371094 22.511719 8.371094 " fill-opacity="1" fill-rule="nonzero"/><path fill="#ffffff" d="M 17.738281 6.316406 C 17.738281 5.609375 18.320312 5.03125 19.035156 5.03125 C 19.75 5.03125 20.328125 5.609375 20.328125 6.316406 C 20.328125 7.027344 19.75 7.601562 19.035156 7.601562 C 18.320312 7.601562 17.738281 7.027344 17.738281 6.316406 " fill-opacity="1" fill-rule="nonzero"/><path fill="#000000" d="M 19.035156 5.082031 C 18.347656 5.082031 17.789062 5.636719 17.789062 6.316406 C 17.789062 6.996094 18.347656 7.550781 19.035156 7.550781 C 19.71875 7.550781 20.277344 6.996094 20.277344 6.316406 C 20.277344 5.636719 19.71875 5.082031 19.035156 5.082031 Z M 19.035156 7.652344 C 18.292969 7.652344 17.691406 7.050781 17.691406 6.316406 C 17.691406 5.582031 18.292969 4.984375 19.035156 4.984375 C 19.773438 4.984375 20.378906 5.582031 20.378906 6.316406 C 20.378906 7.050781 19.773438 7.652344 19.035156 7.652344 " fill-opacity="1" fill-rule="nonzero"/><path fill="#5479f7" d="M 19.382812 6.445312 C 19.3125 6.445312 19.246094 6.480469 19.207031 6.53125 L 18.769531 6.363281 C 18.769531 6.359375 18.769531 6.351562 18.769531 6.347656 C 18.769531 6.335938 18.769531 6.324219 18.765625 6.316406 L 19.214844 6.109375 C 19.257812 6.15625 19.316406 6.1875 19.382812 6.1875 C 19.507812 6.1875 19.609375 6.085938 19.609375 5.960938 C 19.609375 5.835938 19.507812 5.734375 19.382812 5.734375 C 19.257812 5.734375 19.15625 5.835938 19.15625 5.960938 C 19.15625 5.972656 19.160156 5.980469 19.160156 5.992188 L 18.714844 6.199219 C 18.671875 6.152344 18.613281 6.121094 18.542969 6.121094 C 18.417969 6.121094 18.316406 6.222656 18.316406 6.347656 C 18.316406 6.46875 18.417969 6.570312 18.542969 6.574219 C 18.617188 6.574219 18.679688 6.539062 18.722656 6.484375 L 19.160156 6.652344 C 19.160156 6.660156 19.15625 6.664062 19.15625 6.671875 C 19.15625 6.792969 19.257812 6.894531 19.382812 6.894531 C 19.507812 6.898438 19.609375 6.796875 19.609375 6.671875 C 19.609375 6.546875 19.507812 6.445312 19.382812 6.445312 " fill-opacity="1" fill-rule="nonzero"/><path fill="#ffffff" d="M 20.433594 12.261719 C 20.433594 11.667969 20.917969 11.1875 21.519531 11.1875 C 22.117188 11.1875 22.605469 11.667969 22.605469 12.261719 C 22.605469 12.859375 22.117188 13.339844 21.519531 13.339844 C 20.917969 13.339844 20.433594 12.859375 20.433594 12.261719 " fill-opacity="1" fill-rule="nonzero"/><path fill="#000000" d="M 21.519531 11.234375 C 20.945312 11.234375 20.480469 11.695312 20.480469 12.261719 C 20.480469 12.828125 20.945312 13.289062 21.519531 13.289062 C 22.089844 13.289062 22.554688 12.828125 22.554688 12.261719 C 22.554688 11.695312 22.089844 11.234375 21.519531 11.234375 Z M 21.519531 13.390625 C 20.890625 13.390625 20.382812 12.882812 20.382812 12.261719 C 20.382812 11.640625 20.890625 11.136719 21.519531 11.136719 C 22.144531 11.136719 22.652344 11.640625 22.652344 12.261719 C 22.652344 12.882812 22.144531 13.390625 21.519531 13.390625 " fill-opacity="1" fill-rule="nonzero"/><path fill="#5479f7" d="M 21.523438 12.804688 C 21.511719 12.8125 21.5 12.8125 21.488281 12.804688 C 21.394531 12.753906 20.949219 12.488281 20.964844 12.140625 C 20.984375 11.773438 21.386719 11.835938 21.484375 12.015625 C 21.488281 12.023438 21.496094 12.027344 21.503906 12.027344 C 21.511719 12.027344 21.519531 12.023438 21.523438 12.015625 C 21.570312 11.898438 21.726562 11.816406 21.875 11.871094 C 22.050781 11.9375 22.230469 12.371094 21.523438 12.804688 " fill-opacity="1" fill-rule="nonzero"/><path fill="#ffffff" d="M 24.640625 2.859375 C 24.382812 2.183594 24.726562 1.425781 25.40625 1.167969 C 26.085938 0.90625 26.847656 1.246094 27.105469 1.921875 C 27.363281 2.597656 27.019531 3.355469 26.335938 3.617188 C 25.65625 3.875 24.898438 3.539062 24.640625 2.859375 " fill-opacity="1" fill-rule="nonzero"/><path fill="#000000" d="M 25.878906 1.128906 C 25.726562 1.128906 25.570312 1.15625 25.425781 1.214844 C 24.769531 1.460938 24.4375 2.195312 24.6875 2.84375 C 24.804688 3.15625 25.039062 3.40625 25.347656 3.542969 C 25.65625 3.679688 26.003906 3.691406 26.320312 3.570312 C 26.972656 3.320312 27.304688 2.589844 27.058594 1.941406 C 26.9375 1.625 26.703125 1.378906 26.394531 1.238281 C 26.230469 1.167969 26.054688 1.128906 25.878906 1.128906 Z M 25.863281 3.753906 C 25.675781 3.753906 25.484375 3.714844 25.308594 3.632812 C 24.976562 3.484375 24.722656 3.21875 24.59375 2.878906 C 24.324219 2.179688 24.683594 1.390625 25.386719 1.121094 C 25.730469 0.992188 26.101562 1 26.4375 1.148438 C 26.769531 1.296875 27.023438 1.566406 27.152344 1.90625 C 27.417969 2.605469 27.0625 3.394531 26.355469 3.664062 C 26.195312 3.722656 26.03125 3.753906 25.863281 3.753906 " fill-opacity="1" fill-rule="nonzero"/><path fill="#5479f7" d="M 26.546875 2.722656 L 26.324219 2.5625 C 26.292969 2.542969 26.230469 2.539062 26.164062 2.582031 C 26.105469 2.625 26.003906 2.691406 25.777344 2.46875 C 25.550781 2.246094 25.605469 2.140625 25.65625 2.085938 C 25.664062 2.078125 25.71875 1.996094 25.675781 1.929688 L 25.546875 1.757812 C 25.441406 1.625 25.332031 1.75 25.324219 1.757812 C 25.144531 1.957031 25.253906 2.34375 25.582031 2.664062 C 25.914062 2.988281 26.304688 3.089844 26.5 2.910156 C 26.507812 2.902344 26.625 2.785156 26.546875 2.722656 " fill-opacity="1" fill-rule="nonzero"/><path fill="#5479f7" d="M 26.023438 7.296875 C 25.550781 6.832031 25.542969 6.074219 26.007812 5.601562 C 26.472656 5.128906 27.230469 5.121094 27.703125 5.585938 C 28.175781 6.050781 28.183594 6.808594 27.71875 7.28125 C 27.253906 7.75 26.496094 7.757812 26.023438 7.296875 " fill-opacity="1" fill-rule="nonzero"/><path fill="#ffffff" d="M 26.640625 6.847656 L 26.566406 6.117188 C 26.5625 6.078125 26.597656 6.050781 26.636719 6.0625 L 27.410156 6.351562 C 27.453125 6.363281 27.457031 6.417969 27.421875 6.441406 L 26.71875 6.886719 C 26.6875 6.90625 26.644531 6.886719 26.640625 6.847656 " fill-opacity="1" fill-rule="nonzero"/><path fill="#5479f7" d="M 21.207031 3.675781 C 21.207031 3.011719 21.746094 2.476562 22.410156 2.472656 C 23.078125 2.46875 23.617188 3 23.617188 3.660156 C 23.617188 4.320312 23.074219 4.859375 22.410156 4.863281 C 21.746094 4.867188 21.207031 4.335938 21.207031 3.675781 " fill-opacity="1" fill-rule="nonzero"/><path fill="#ffffff" d="M 22.78125 3.089844 L 22.9375 3.089844 C 22.957031 3.089844 22.972656 3.105469 22.972656 3.125 L 22.976562 4.210938 C 22.976562 4.230469 22.957031 4.246094 22.9375 4.246094 L 22.78125 4.246094 C 22.761719 4.246094 22.746094 4.230469 22.746094 4.210938 L 22.742188 3.125 C 22.742188 3.105469 22.757812 3.089844 22.78125 3.089844 " fill-opacity="1" fill-rule="nonzero"/><path fill="#ffffff" d="M 22.332031 3.425781 L 22.488281 3.425781 C 22.507812 3.425781 22.527344 3.441406 22.527344 3.460938 L 22.527344 4.210938 C 22.527344 4.230469 22.511719 4.246094 22.492188 4.246094 L 22.332031 4.246094 C 22.3125 4.246094 22.296875 4.230469 22.296875 4.210938 L 22.296875 3.460938 C 22.296875 3.441406 22.3125 3.425781 22.332031 3.425781 " fill-opacity="1" fill-rule="nonzero"/><path fill="#ffffff" d="M 21.882812 3.855469 L 22.042969 3.855469 C 22.0625 3.855469 22.078125 3.871094 22.078125 3.890625 L 22.078125 4.210938 C 22.078125 4.230469 22.0625 4.246094 22.042969 4.246094 L 21.882812 4.246094 C 21.863281 4.246094 21.847656 4.230469 21.847656 4.210938 L 21.847656 3.890625 C 21.847656 3.871094 21.863281 3.855469 21.882812 3.855469 " fill-opacity="1" fill-rule="nonzero"/><g clip-path="url(#c7f1cbd4c9)"><path fill="#000000" d="M 26.308594 16.765625 C 26.328125 16.816406 26.351562 16.859375 26.386719 16.898438 C 26.476562 17 26.617188 17.042969 26.746094 17.078125 C 26.851562 17.113281 26.960938 17.144531 27.074219 17.144531 C 27.296875 17.148438 27.503906 17.027344 27.722656 17.015625 C 27.875 17.007812 28.019531 17.050781 28.167969 17.078125 C 28.449219 17.125 28.671875 17.011719 28.878906 16.832031 C 29.246094 16.507812 29.226562 15.605469 28.871094 15.03125 C 28.496094 14.425781 27.910156 14.457031 27.828125 13.9375 C 27.78125 13.636719 27.980469 13.515625 27.878906 13.195312 C 27.828125 13.027344 27.675781 12.886719 27.375 12.597656 C 26.957031 12.207031 26.785156 12.144531 26.722656 12.128906 C 26.621094 12.09375 26.414062 12.035156 26.195312 12.125 C 26.128906 12.152344 25.96875 12.214844 25.910156 12.375 C 25.847656 12.546875 25.9375 12.714844 25.988281 12.804688 C 26.097656 13.007812 26.238281 13.0625 26.316406 13.160156 C 26.667969 13.589844 26.003906 14.199219 26.160156 15.167969 C 26.195312 15.375 26.28125 15.566406 26.332031 15.765625 C 26.40625 16.03125 26.292969 16.097656 26.277344 16.332031 C 26.265625 16.476562 26.257812 16.636719 26.308594 16.765625 " fill-opacity="1" fill-rule="nonzero"/></g><path fill="#5479f7" d="M 24.332031 26.054688 L 24.496094 26.410156 C 24.488281 26.441406 24.472656 26.46875 24.4375 26.507812 C 24.261719 26.707031 23.789062 26.546875 23.675781 26.511719 C 23.261719 26.371094 23.207031 26.199219 22.835938 26.070312 C 22.578125 25.980469 22.347656 25.96875 22.195312 25.976562 C 22.214844 25.9375 22.246094 25.882812 22.300781 25.832031 C 22.382812 25.757812 22.519531 25.6875 22.742188 25.683594 C 23.195312 25.683594 24.332031 26.054688 24.332031 26.054688 " fill-opacity="1" fill-rule="nonzero"/><path fill="#ffffff" d="M 22.910156 27.71875 C 22.910156 27.71875 22.144531 28.011719 22.144531 27.515625 C 22.144531 27.496094 22.773438 25.484375 22.773438 25.484375 L 23.671875 25.96875 L 22.910156 27.71875 " fill-opacity="1" fill-rule="nonzero"/><path fill="#000000" d="M 22.910156 27.71875 Z M 22.195312 27.519531 C 22.195312 27.609375 22.222656 27.667969 22.28125 27.707031 C 22.425781 27.808594 22.738281 27.726562 22.871094 27.679688 L 23.609375 25.992188 L 22.804688 25.558594 C 22.625 26.128906 22.222656 27.425781 22.195312 27.519531 Z M 22.480469 27.855469 C 22.386719 27.855469 22.292969 27.835938 22.222656 27.789062 C 22.136719 27.730469 22.09375 27.636719 22.09375 27.515625 C 22.097656 27.503906 22.097656 27.492188 22.726562 25.472656 C 22.730469 25.457031 22.738281 25.445312 22.753906 25.441406 C 22.769531 25.433594 22.785156 25.433594 22.796875 25.441406 L 23.695312 25.925781 C 23.71875 25.9375 23.726562 25.964844 23.71875 25.988281 L 22.953125 27.738281 C 22.949219 27.75 22.9375 27.761719 22.925781 27.765625 C 22.914062 27.769531 22.691406 27.855469 22.480469 27.855469 " fill-opacity="1" fill-rule="nonzero"/><path fill="#5479f7" d="M 23.003906 28.242188 L 21.109375 28.242188 C 21.058594 28.242188 21.019531 28.195312 21.027344 28.144531 L 21.042969 28.039062 C 21.078125 27.945312 21.144531 27.863281 21.234375 27.816406 L 22.261719 27.269531 C 22.261719 27.269531 22.59375 27.339844 22.5625 27.683594 C 22.5625 27.683594 22.785156 27.472656 22.992188 27.621094 C 22.992188 27.621094 23.074219 27.886719 23.066406 28.179688 C 23.066406 28.214844 23.035156 28.242188 23.003906 28.242188 " fill-opacity="1" fill-rule="nonzero"/><path fill="#000000" d="M 21.640625 27.90625 C 21.617188 27.90625 21.59375 27.886719 21.589844 27.863281 C 21.585938 27.835938 21.605469 27.808594 21.632812 27.804688 C 22.105469 27.730469 22.394531 27.480469 22.394531 27.476562 C 22.417969 27.460938 22.449219 27.460938 22.464844 27.480469 C 22.484375 27.5 22.484375 27.53125 22.460938 27.550781 C 22.449219 27.5625 22.152344 27.824219 21.648438 27.902344 C 21.644531 27.90625 21.640625 27.90625 21.640625 27.90625 " fill-opacity="1" fill-rule="nonzero"/><path fill="#000000" d="M 23 28.167969 L 21.097656 28.167969 C 21.070312 28.167969 21.046875 28.144531 21.046875 28.117188 C 21.046875 28.089844 21.070312 28.070312 21.097656 28.070312 L 23 28.070312 C 23.027344 28.070312 23.050781 28.089844 23.050781 28.117188 C 23.050781 28.144531 23.027344 28.167969 23 28.167969 " fill-opacity="1" fill-rule="nonzero"/><path fill="#5479f7" d="M 26.945312 26.582031 C 27.109375 26.546875 27.429688 26.476562 27.503906 26.257812 C 27.554688 26.09375 27.441406 25.921875 27.414062 25.882812 C 27.089844 25.402344 26.019531 25.265625 25.414062 25.738281 C 25.09375 25.984375 24.878906 26.425781 24.992188 26.566406 C 25.058594 26.648438 25.203125 26.570312 25.558594 26.539062 C 26.222656 26.480469 26.390625 26.707031 26.945312 26.582031 " fill-opacity="1" fill-rule="nonzero"/><path fill="#ffffff" d="M 26.851562 25.683594 C 26.878906 25.703125 26.53125 27.796875 26.53125 27.796875 L 25.839844 27.878906 L 25.871094 25.863281 L 26.851562 25.683594 " fill-opacity="1" fill-rule="nonzero"/><path fill="#000000" d="M 25.921875 25.902344 L 25.890625 27.824219 L 26.488281 27.75 C 26.605469 27.03125 26.773438 25.996094 26.796875 25.746094 Z M 25.839844 27.929688 C 25.828125 27.929688 25.816406 27.925781 25.808594 27.917969 C 25.796875 27.90625 25.789062 27.894531 25.792969 27.878906 L 25.820312 25.863281 C 25.820312 25.839844 25.839844 25.816406 25.863281 25.8125 L 26.839844 25.636719 C 26.855469 25.632812 26.867188 25.636719 26.878906 25.644531 C 26.914062 25.667969 26.921875 25.671875 26.75 26.753906 C 26.667969 27.273438 26.582031 27.800781 26.582031 27.804688 C 26.578125 27.824219 26.558594 27.84375 26.539062 27.84375 L 25.847656 27.929688 C 25.84375 27.929688 25.84375 27.929688 25.839844 27.929688 " fill-opacity="1" fill-rule="nonzero"/><path fill="#5479f7" d="M 24.722656 28.242188 L 26.621094 28.242188 C 26.621094 28.242188 26.691406 27.773438 26.582031 27.5625 L 26.523438 27.628906 C 26.492188 27.664062 26.441406 27.667969 26.40625 27.636719 C 26.332031 27.566406 26.199219 27.457031 26.082031 27.40625 C 25.859375 27.304688 25.117188 27.804688 24.832031 27.976562 C 24.761719 28.015625 24.722656 28.085938 24.722656 28.164062 L 24.722656 28.242188 " fill-opacity="1" fill-rule="nonzero"/><path fill="#000000" d="M 26.582031 28.144531 L 24.8125 28.144531 C 24.785156 28.144531 24.761719 28.121094 24.761719 28.09375 C 24.761719 28.066406 24.785156 28.042969 24.8125 28.042969 L 26.582031 28.042969 C 26.609375 28.042969 26.632812 28.066406 26.632812 28.09375 C 26.632812 28.121094 26.609375 28.144531 26.582031 28.144531 " fill-opacity="1" fill-rule="nonzero"/><path fill="#000000" d="M 25.609375 27.917969 C 25.589844 27.917969 25.574219 27.90625 25.5625 27.890625 C 25.550781 27.867188 25.5625 27.835938 25.585938 27.824219 L 26.132812 27.546875 C 26.160156 27.535156 26.1875 27.546875 26.199219 27.570312 C 26.214844 27.59375 26.203125 27.625 26.179688 27.636719 L 25.632812 27.910156 C 25.625 27.914062 25.617188 27.917969 25.609375 27.917969 " fill-opacity="1" fill-rule="nonzero"/><path fill="#000000" d="M 22.195312 25.976562 C 22.5625 24.824219 22.929688 23.671875 23.300781 22.523438 C 23.804688 20.972656 24.3125 19.425781 24.824219 17.878906 C 25.625 17.972656 27.40625 17.371094 27.21875 18.160156 C 27.128906 18.550781 27.136719 18.636719 27.144531 18.78125 C 27.222656 19.917969 27.34375 20.730469 27.339844 21.011719 C 27.335938 21.265625 27.324219 22.023438 27.34375 23.054688 C 27.347656 23.226562 27.351562 23.40625 27.359375 23.621094 C 27.398438 24.714844 27.472656 24.980469 27.476562 25.871094 C 27.476562 25.996094 27.476562 26.117188 27.476562 26.234375 C 27.070312 26.15625 26.605469 26.136719 26.113281 26.246094 C 25.722656 26.332031 25.679688 26.421875 25.332031 26.46875 C 25.214844 26.484375 25.105469 26.488281 25.003906 26.488281 C 25.292969 22.683594 25.269531 21.808594 25.269531 21.808594 C 25.160156 22.65625 25.027344 23.539062 24.859375 24.453125 C 24.734375 25.125 24.601562 25.773438 24.460938 26.398438 C 24.046875 26.277344 23.683594 26.0625 23.1875 25.972656 C 22.929688 25.925781 22.597656 25.90625 22.195312 25.976562 " fill-opacity="1" fill-rule="nonzero"/><path fill="#caddff" d="M 25.269531 21.796875 C 25.242188 21.796875 25.21875 21.773438 25.222656 21.746094 L 25.273438 19.90625 L 25.050781 19.753906 C 25.027344 19.738281 25.019531 19.707031 25.035156 19.683594 C 25.050781 19.664062 25.082031 19.65625 25.105469 19.671875 L 25.351562 19.839844 C 25.363281 19.847656 25.371094 19.867188 25.371094 19.882812 L 25.320312 21.746094 C 25.320312 21.773438 25.296875 21.796875 25.269531 21.796875 " fill-opacity="1" fill-rule="nonzero"/><path fill="#5479f7" d="M 27.335938 16.214844 C 27.664062 15.851562 27.992188 15.484375 28.320312 15.121094 C 28.472656 15.601562 28.917969 16.773438 28.722656 18.167969 C 28.570312 19.234375 27.410156 19.90625 27.097656 20.253906 C 27.019531 20.167969 26.957031 20.066406 26.902344 19.960938 C 26.996094 19.796875 27.132812 19.550781 27.300781 19.253906 C 27.621094 18.683594 27.683594 18.574219 27.710938 18.523438 C 27.894531 18.171875 27.949219 17.523438 27.335938 16.214844 " fill-opacity="1" fill-rule="nonzero"/><path fill="#5479f7" d="M 27.34375 18.539062 C 27.117188 18.691406 26.953125 18.535156 25.988281 18.371094 C 25.199219 18.238281 24.867188 18.269531 24.632812 17.980469 C 24.503906 17.820312 24.464844 17.636719 24.453125 17.507812 C 24.535156 17.109375 24.621094 16.707031 24.703125 16.300781 C 24.8125 15.738281 24.917969 15.183594 25.019531 14.636719 C 25.582031 14.589844 26.058594 14.613281 26.417969 14.648438 C 26.890625 14.699219 27.246094 14.78125 27.394531 14.816406 C 27.75 14.90625 28.054688 15.015625 28.320312 15.121094 C 28.050781 15.503906 27.785156 15.890625 27.515625 16.277344 C 27.601562 16.546875 27.703125 16.976562 27.667969 17.507812 C 27.636719 17.957031 27.613281 18.355469 27.34375 18.539062 " fill-opacity="1" fill-rule="nonzero"/><path fill="#5479f7" d="M 23.039062 14.546875 C 23.078125 14.683594 23.148438 14.882812 23.285156 15.09375 C 23.410156 15.289062 23.679688 15.707031 24.007812 15.714844 C 24.34375 15.726562 24.589844 15.015625 25.019531 14.636719 C 25.074219 14.6875 25.394531 15.175781 25.300781 15.773438 C 25.195312 16.464844 24.382812 16.875 23.820312 16.785156 C 23.121094 16.667969 22.488281 15.714844 22.71875 14.527344 L 23.039062 14.546875 " fill-opacity="1" fill-rule="nonzero"/><path fill="#ffffff" d="M 23.085938 14.070312 L 22.917969 13.507812 C 22.90625 13.46875 22.867188 13.441406 22.828125 13.445312 C 22.78125 13.453125 22.746094 13.492188 22.75 13.539062 L 22.777344 13.769531 L 22.550781 13.949219 C 22.480469 14.003906 22.453125 14.097656 22.480469 14.179688 L 22.558594 14.402344 C 22.59375 14.515625 22.695312 14.589844 22.816406 14.597656 L 22.894531 14.601562 C 23.015625 14.605469 23.128906 14.535156 23.175781 14.421875 L 23.226562 14.289062 C 23.261719 14.207031 23.21875 14.109375 23.132812 14.082031 L 23.085938 14.070312 " fill-opacity="1" fill-rule="nonzero"/><path fill="#000000" d="M 22.835938 13.496094 C 22.835938 13.496094 22.832031 13.496094 22.832031 13.496094 C 22.8125 13.496094 22.800781 13.515625 22.800781 13.535156 L 22.824219 13.765625 C 22.828125 13.78125 22.820312 13.796875 22.808594 13.808594 L 22.582031 13.988281 C 22.527344 14.03125 22.507812 14.101562 22.53125 14.164062 L 22.605469 14.386719 C 22.636719 14.480469 22.71875 14.542969 22.816406 14.546875 L 22.898438 14.550781 C 22.996094 14.554688 23.089844 14.496094 23.128906 14.402344 L 23.179688 14.269531 C 23.191406 14.242188 23.191406 14.214844 23.179688 14.1875 C 23.167969 14.160156 23.144531 14.140625 23.117188 14.128906 L 23.070312 14.117188 C 23.054688 14.109375 23.042969 14.097656 23.039062 14.082031 L 22.871094 13.519531 C 22.863281 13.503906 22.851562 13.496094 22.835938 13.496094 Z M 22.90625 14.648438 C 22.902344 14.648438 22.898438 14.648438 22.890625 14.648438 L 22.8125 14.644531 C 22.671875 14.640625 22.554688 14.550781 22.507812 14.417969 L 22.433594 14.195312 C 22.398438 14.09375 22.433594 13.980469 22.519531 13.910156 L 22.722656 13.75 L 22.703125 13.542969 C 22.695312 13.472656 22.746094 13.40625 22.820312 13.398438 C 22.886719 13.390625 22.945312 13.429688 22.964844 13.492188 L 23.128906 14.03125 L 23.148438 14.035156 C 23.199219 14.054688 23.246094 14.09375 23.269531 14.144531 C 23.292969 14.195312 23.296875 14.253906 23.273438 14.308594 L 23.21875 14.441406 C 23.167969 14.566406 23.046875 14.648438 22.90625 14.648438 " fill-opacity="1" fill-rule="nonzero"/><path fill="#ffffff" d="M 23.085938 14.070312 L 22.890625 14.09375 C 22.890625 14.09375 22.863281 14.253906 22.984375 14.25 L 23.085938 14.070312 " fill-opacity="1" fill-rule="nonzero"/><path fill="#000000" d="M 22.984375 14.296875 C 22.925781 14.296875 22.894531 14.273438 22.878906 14.253906 C 22.824219 14.191406 22.839844 14.09375 22.84375 14.085938 C 22.847656 14.0625 22.863281 14.046875 22.886719 14.042969 L 23.082031 14.019531 C 23.109375 14.015625 23.132812 14.035156 23.136719 14.0625 C 23.140625 14.089844 23.121094 14.113281 23.09375 14.117188 L 22.9375 14.136719 C 22.941406 14.15625 22.941406 14.175781 22.953125 14.1875 C 22.957031 14.191406 22.960938 14.199219 22.984375 14.199219 C 23.015625 14.199219 23.035156 14.21875 23.035156 14.246094 C 23.035156 14.273438 23.015625 14.296875 22.988281 14.296875 C 22.984375 14.296875 22.984375 14.296875 22.984375 14.296875 " fill-opacity="1" fill-rule="nonzero"/><path fill="#ffffff" d="M 22.714844 13.816406 L 22.765625 14.097656 L 22.714844 13.816406 " fill-opacity="1" fill-rule="nonzero"/><path fill="#000000" d="M 22.765625 14.148438 C 22.738281 14.148438 22.71875 14.128906 22.714844 14.105469 L 22.667969 13.828125 C 22.660156 13.800781 22.679688 13.773438 22.707031 13.769531 C 22.734375 13.765625 22.761719 13.78125 22.765625 13.808594 L 22.8125 14.089844 C 22.816406 14.117188 22.800781 14.140625 22.773438 14.144531 C 22.769531 14.148438 22.765625 14.148438 22.765625 14.148438 " fill-opacity="1" fill-rule="nonzero"/><path fill="#ffffff" d="M 22.582031 13.941406 L 22.625 14.164062 L 22.582031 13.941406 " fill-opacity="1" fill-rule="nonzero"/><path fill="#000000" d="M 22.625 14.214844 C 22.597656 14.214844 22.578125 14.199219 22.574219 14.171875 L 22.535156 13.953125 C 22.527344 13.925781 22.546875 13.898438 22.574219 13.894531 C 22.601562 13.890625 22.628906 13.90625 22.632812 13.933594 L 22.671875 14.15625 C 22.675781 14.183594 22.660156 14.207031 22.632812 14.214844 C 22.628906 14.214844 22.625 14.214844 22.625 14.214844 " fill-opacity="1" fill-rule="nonzero"/><path fill="#000000" d="M 24.644531 16.464844 C 24.644531 16.464844 24.640625 16.464844 24.636719 16.464844 C 24.609375 16.457031 24.589844 16.429688 24.597656 16.40625 L 24.820312 15.425781 C 24.828125 15.398438 24.855469 15.382812 24.882812 15.390625 C 24.90625 15.394531 24.925781 15.421875 24.917969 15.449219 L 24.695312 16.425781 C 24.691406 16.449219 24.667969 16.464844 24.644531 16.464844 " fill-opacity="1" fill-rule="nonzero"/><path fill="#caddff" d="M 27.296875 20.445312 C 27.289062 20.445312 27.28125 20.441406 27.277344 20.441406 C 26.558594 20.152344 26.65625 18.660156 26.660156 18.597656 C 26.664062 18.570312 26.6875 18.550781 26.714844 18.550781 C 26.742188 18.554688 26.761719 18.578125 26.761719 18.605469 C 26.761719 18.621094 26.664062 20.085938 27.316406 20.347656 C 27.339844 20.359375 27.351562 20.386719 27.34375 20.414062 C 27.335938 20.433594 27.316406 20.445312 27.296875 20.445312 " fill-opacity="1" fill-rule="nonzero"/><path fill="#ffffff" d="M 25.832031 14.609375 C 26.035156 14.578125 26.179688 14.398438 26.167969 14.195312 L 26.152344 13.878906 C 25.960938 13.863281 25.800781 13.773438 25.800781 13.714844 C 25.800781 13.683594 25.871094 13.398438 25.917969 13.28125 C 25.878906 13.25 25.832031 13.167969 25.914062 13.117188 C 25.992188 13.066406 26.171875 12.746094 26.171875 12.746094 C 26.394531 12.488281 26.460938 12.847656 26.625 12.878906 C 26.738281 12.898438 26.800781 12.96875 26.757812 13.117188 C 26.714844 13.265625 26.796875 13.191406 26.882812 13.148438 C 26.96875 13.105469 27.023438 13.140625 26.976562 13.273438 C 26.933594 13.410156 26.761719 13.492188 26.761719 13.492188 L 26.683594 13.648438 L 26.851562 14.414062 C 26.882812 14.558594 26.988281 14.675781 27.128906 14.726562 L 27.363281 14.808594 L 26.140625 15.445312 L 25.550781 14.65625 L 25.832031 14.609375 " fill-opacity="1" fill-rule="nonzero"/><path fill="#000000" d="M 25.640625 14.691406 L 26.15625 15.378906 L 27.238281 14.816406 L 27.113281 14.773438 C 26.953125 14.71875 26.839844 14.585938 26.800781 14.425781 L 26.632812 13.660156 C 26.632812 13.648438 26.632812 13.636719 26.636719 13.625 L 26.71875 13.46875 C 26.722656 13.460938 26.730469 13.453125 26.742188 13.445312 C 26.742188 13.445312 26.890625 13.375 26.929688 13.257812 C 26.949219 13.210938 26.945312 13.1875 26.941406 13.183594 C 26.9375 13.183594 26.925781 13.183594 26.90625 13.195312 C 26.890625 13.199219 26.875 13.210938 26.863281 13.21875 C 26.8125 13.246094 26.765625 13.273438 26.722656 13.242188 C 26.6875 13.210938 26.695312 13.160156 26.710938 13.105469 C 26.726562 13.046875 26.726562 13.003906 26.710938 12.976562 C 26.695312 12.953125 26.664062 12.9375 26.617188 12.925781 C 26.539062 12.914062 26.484375 12.851562 26.4375 12.792969 C 26.394531 12.746094 26.355469 12.703125 26.320312 12.703125 C 26.292969 12.703125 26.253906 12.726562 26.214844 12.773438 C 26.179688 12.835938 26.023438 13.105469 25.941406 13.160156 C 25.921875 13.171875 25.917969 13.183594 25.917969 13.1875 C 25.917969 13.207031 25.933594 13.230469 25.949219 13.242188 C 25.964844 13.253906 25.96875 13.277344 25.964844 13.296875 C 25.921875 13.410156 25.855469 13.671875 25.851562 13.714844 C 25.863281 13.742188 25.988281 13.816406 26.15625 13.832031 C 26.179688 13.832031 26.199219 13.851562 26.203125 13.878906 L 26.21875 14.191406 C 26.230469 14.421875 26.070312 14.621094 25.839844 14.660156 Z M 26.140625 15.492188 C 26.125 15.492188 26.109375 15.484375 26.101562 15.472656 L 25.511719 14.683594 C 25.5 14.671875 25.496094 14.652344 25.503906 14.636719 C 25.511719 14.621094 25.523438 14.609375 25.542969 14.605469 L 25.824219 14.558594 C 26 14.53125 26.128906 14.375 26.121094 14.199219 L 26.105469 13.925781 C 25.929688 13.902344 25.75 13.8125 25.75 13.714844 C 25.75 13.675781 25.816406 13.421875 25.859375 13.292969 C 25.835938 13.261719 25.816406 13.222656 25.820312 13.179688 C 25.820312 13.152344 25.835938 13.109375 25.886719 13.074219 C 25.933594 13.042969 26.058594 12.847656 26.128906 12.71875 C 26.132812 12.71875 26.132812 12.714844 26.136719 12.710938 C 26.199219 12.640625 26.257812 12.601562 26.320312 12.601562 C 26.402344 12.601562 26.460938 12.671875 26.511719 12.730469 C 26.550781 12.777344 26.59375 12.824219 26.632812 12.828125 C 26.710938 12.84375 26.765625 12.875 26.792969 12.925781 C 26.828125 12.976562 26.832031 13.046875 26.808594 13.132812 C 26.804688 13.132812 26.804688 13.132812 26.804688 13.136719 C 26.808594 13.132812 26.8125 13.132812 26.8125 13.132812 C 26.828125 13.121094 26.84375 13.113281 26.859375 13.105469 C 26.941406 13.0625 26.988281 13.085938 27.007812 13.105469 C 27.050781 13.140625 27.054688 13.203125 27.023438 13.292969 C 26.980469 13.421875 26.847656 13.503906 26.800781 13.527344 L 26.734375 13.65625 L 26.898438 14.402344 C 26.929688 14.53125 27.019531 14.636719 27.144531 14.679688 L 27.378906 14.761719 C 27.398438 14.769531 27.410156 14.785156 27.410156 14.804688 C 27.414062 14.824219 27.402344 14.84375 27.382812 14.851562 L 26.164062 15.488281 C 26.15625 15.492188 26.148438 15.492188 26.140625 15.492188 " fill-opacity="1" fill-rule="nonzero"/><path fill="#000000" d="M 26.222656 13.9375 C 26.195312 13.9375 26.167969 13.933594 26.140625 13.929688 C 26.113281 13.921875 26.097656 13.894531 26.105469 13.867188 C 26.109375 13.84375 26.136719 13.824219 26.164062 13.832031 C 26.335938 13.871094 26.40625 13.722656 26.410156 13.71875 C 26.421875 13.695312 26.453125 13.683594 26.476562 13.695312 C 26.503906 13.707031 26.511719 13.734375 26.5 13.761719 C 26.46875 13.828125 26.375 13.9375 26.222656 13.9375 " fill-opacity="1" fill-rule="nonzero"/><path fill="#000000" d="M 21.914062 17.636719 C 21.902344 17.636719 21.890625 17.632812 21.878906 17.625 C 21.859375 17.605469 21.859375 17.574219 21.878906 17.554688 L 22 17.425781 C 22.019531 17.40625 22.050781 17.40625 22.074219 17.425781 C 22.09375 17.445312 22.09375 17.476562 22.074219 17.496094 L 21.953125 17.621094 C 21.941406 17.632812 21.929688 17.636719 21.914062 17.636719 " fill-opacity="1" fill-rule="nonzero"/><path fill="#000000" d="M 21.488281 18.082031 C 21.472656 18.082031 21.460938 18.078125 21.453125 18.070312 C 21.433594 18.050781 21.429688 18.019531 21.449219 18 L 21.574219 17.871094 C 21.59375 17.851562 21.625 17.851562 21.644531 17.871094 C 21.664062 17.890625 21.664062 17.921875 21.644531 17.941406 L 21.523438 18.066406 C 21.511719 18.078125 21.5 18.082031 21.488281 18.082031 " fill-opacity="1" fill-rule="nonzero"/><path fill="#000000" d="M 21.605469 17.644531 C 21.59375 17.644531 21.582031 17.640625 21.570312 17.628906 L 21.445312 17.507812 C 21.425781 17.488281 21.425781 17.457031 21.445312 17.4375 C 21.464844 17.417969 21.496094 17.417969 21.515625 17.4375 L 21.640625 17.558594 C 21.660156 17.578125 21.660156 17.609375 21.640625 17.628906 C 21.632812 17.640625 21.621094 17.644531 21.605469 17.644531 " fill-opacity="1" fill-rule="nonzero"/><path fill="#000000" d="M 22.042969 18.070312 C 22.03125 18.070312 22.015625 18.066406 22.007812 18.054688 L 21.882812 17.933594 C 21.863281 17.914062 21.863281 17.882812 21.882812 17.863281 C 21.902344 17.84375 21.933594 17.84375 21.953125 17.863281 L 22.078125 17.984375 C 22.097656 18.003906 22.097656 18.035156 22.078125 18.054688 C 22.066406 18.066406 22.054688 18.070312 22.042969 18.070312 " fill-opacity="1" fill-rule="nonzero"/><path fill="#000000" d="M 7.621094 1.671875 C 7.609375 1.671875 7.597656 1.667969 7.585938 1.65625 C 7.566406 1.636719 7.566406 1.605469 7.585938 1.585938 L 7.707031 1.460938 C 7.726562 1.441406 7.757812 1.441406 7.777344 1.460938 C 7.796875 1.476562 7.800781 1.507812 7.78125 1.53125 L 7.65625 1.65625 C 7.648438 1.667969 7.636719 1.671875 7.621094 1.671875 " fill-opacity="1" fill-rule="nonzero"/><path fill="#000000" d="M 7.191406 2.117188 C 7.179688 2.117188 7.167969 2.109375 7.15625 2.101562 C 7.136719 2.082031 7.136719 2.050781 7.15625 2.03125 L 7.277344 1.90625 C 7.296875 1.886719 7.328125 1.882812 7.351562 1.902344 C 7.371094 1.921875 7.371094 1.953125 7.351562 1.972656 L 7.230469 2.101562 C 7.21875 2.109375 7.207031 2.117188 7.191406 2.117188 " fill-opacity="1" fill-rule="nonzero"/><path fill="#000000" d="M 7.3125 1.679688 C 7.300781 1.679688 7.289062 1.671875 7.277344 1.664062 L 7.152344 1.542969 C 7.132812 1.523438 7.132812 1.492188 7.152344 1.472656 C 7.171875 1.453125 7.203125 1.453125 7.222656 1.472656 L 7.347656 1.59375 C 7.367188 1.613281 7.367188 1.644531 7.347656 1.664062 C 7.339844 1.671875 7.324219 1.679688 7.3125 1.679688 " fill-opacity="1" fill-rule="nonzero"/><path fill="#000000" d="M 7.75 2.105469 C 7.734375 2.105469 7.722656 2.097656 7.714844 2.089844 L 7.589844 1.96875 C 7.570312 1.949219 7.570312 1.917969 7.589844 1.898438 C 7.609375 1.878906 7.640625 1.878906 7.660156 1.898438 L 7.785156 2.019531 C 7.804688 2.039062 7.804688 2.070312 7.785156 2.089844 C 7.773438 2.097656 7.761719 2.105469 7.75 2.105469 " fill-opacity="1" fill-rule="nonzero"/><path fill="#000000" d="M 27.980469 3.546875 C 27.953125 3.546875 27.929688 3.523438 27.929688 3.496094 L 27.925781 3.320312 C 27.925781 3.292969 27.945312 3.269531 27.972656 3.269531 C 28 3.269531 28.023438 3.292969 28.023438 3.320312 L 28.027344 3.496094 C 28.03125 3.523438 28.007812 3.546875 27.980469 3.546875 " fill-opacity="1" fill-rule="nonzero"/><path fill="#000000" d="M 27.992188 4.160156 C 27.964844 4.160156 27.941406 4.140625 27.941406 4.113281 L 27.9375 3.9375 C 27.9375 3.910156 27.960938 3.886719 27.988281 3.886719 C 28.015625 3.882812 28.039062 3.90625 28.039062 3.933594 L 28.042969 4.109375 C 28.042969 4.136719 28.019531 4.160156 27.992188 4.160156 " fill-opacity="1" fill-rule="nonzero"/><path fill="#000000" d="M 27.589844 3.769531 C 27.5625 3.769531 27.542969 3.746094 27.539062 3.71875 C 27.539062 3.691406 27.5625 3.667969 27.589844 3.667969 L 27.765625 3.667969 C 27.792969 3.667969 27.816406 3.691406 27.816406 3.71875 C 27.816406 3.746094 27.792969 3.765625 27.765625 3.765625 L 27.589844 3.769531 " fill-opacity="1" fill-rule="nonzero"/><path fill="#000000" d="M 28.203125 3.765625 C 28.175781 3.765625 28.152344 3.742188 28.152344 3.714844 C 28.152344 3.6875 28.175781 3.664062 28.203125 3.664062 L 28.375 3.664062 C 28.402344 3.664062 28.425781 3.683594 28.425781 3.710938 C 28.425781 3.738281 28.40625 3.761719 28.378906 3.761719 L 28.203125 3.765625 " fill-opacity="1" fill-rule="nonzero"/></svg>