<svg xmlns="http://www.w3.org/2000/svg" xmlns:xlink="http://www.w3.org/1999/xlink" width="40" zoomAndPan="magnify" viewBox="0 0 30 30.000001" height="40" preserveAspectRatio="xMidYMid meet" version="1.0"><defs><clipPath id="5805300328"><path d="M 0.484375 0 L 29.515625 0 L 29.515625 28.304688 L 0.484375 28.304688 Z M 0.484375 0 " clip-rule="nonzero"/></clipPath></defs><g clip-path="url(#5805300328)"><path fill="#66e3ce" d="M 28.257812 12.984375 L 27.492188 14.132812 L 10.847656 2.835938 L 11.617188 1.6875 C 11.96875 1.15625 12.683594 1.015625 13.207031 1.371094 L 27.949219 11.378906 C 28.472656 11.734375 28.613281 12.457031 28.257812 12.984375 Z M 22.898438 21.007812 L 23.742188 14.929688 L 25.957031 16.429688 Z M 21.332031 26.28125 C 21.242188 26.910156 20.664062 27.351562 20.039062 27.261719 L 2.4375 24.777344 C 1.8125 24.6875 1.375 24.101562 1.460938 23.472656 L 2.542969 15.699219 L 22.414062 18.507812 Z M 3.117188 11.582031 C 3.203125 10.953125 3.78125 10.511719 4.40625 10.601562 L 22.007812 13.085938 C 22.636719 13.175781 23.074219 13.757812 22.984375 14.390625 L 22.792969 15.761719 L 2.921875 12.953125 Z M 9.316406 5.132812 L 19.210938 11.851562 L 6.066406 9.992188 Z M 28.40625 10.691406 L 13.667969 0.683594 C 12.769531 0.0742188 11.539062 0.3125 10.933594 1.222656 L 5.15625 9.863281 L 4.523438 9.777344 C 3.449219 9.625 2.449219 10.382812 2.296875 11.46875 L 0.648438 23.355469 C 0.496094 24.441406 1.25 25.445312 2.324219 25.597656 L 19.921875 28.085938 C 21 28.238281 21.996094 27.476562 22.148438 26.394531 L 22.636719 22.886719 L 28.941406 13.445312 C 29.550781 12.539062 29.308594 11.304688 28.40625 10.691406 " fill-opacity="1" fill-rule="nonzero"/></g><path fill="#66e3ce" d="M 12.042969 19.207031 L 20.53125 20.40625 L 20.625 19.730469 L 12.140625 18.53125 L 12.042969 19.207031 " fill-opacity="1" fill-rule="nonzero"/><path fill="#66e3ce" d="M 11.84375 20.671875 L 20.328125 21.871094 L 20.421875 21.191406 L 11.9375 19.992188 L 11.84375 20.671875 " fill-opacity="1" fill-rule="nonzero"/></svg>