<svg xmlns="http://www.w3.org/2000/svg" xmlns:xlink="http://www.w3.org/1999/xlink" width="40" zoomAndPan="magnify" viewBox="0 0 30 30.000001" height="40" preserveAspectRatio="xMidYMid meet" version="1.0"><defs><clipPath id="5733475aa2"><path d="M 3.386719 0 L 27.339844 0 L 27.339844 29.03125 L 3.386719 29.03125 Z M 3.386719 0 " clip-rule="nonzero"/></clipPath></defs><g clip-path="url(#5733475aa2)"><path fill="#38b6ff" d="M 6.324219 29.027344 L 23.496094 29.027344 C 25.113281 29.027344 26.433594 27.707031 26.433594 26.097656 L 26.433594 23.847656 C 26.984375 23.460938 27.339844 22.816406 27.339844 22.109375 L 27.339844 19.855469 C 27.339844 19.148438 26.984375 18.503906 26.433594 18.121094 L 26.433594 12.648438 C 26.433594 12.359375 26.402344 12.070312 26.304688 11.78125 C 26.113281 10.71875 25.273438 9.914062 24.207031 9.785156 C 23.980469 9.722656 23.753906 9.691406 23.496094 9.691406 L 23.078125 9.691406 L 25.402344 7.921875 C 25.628906 7.761719 25.660156 7.4375 25.5 7.246094 L 20.203125 0.261719 C 20.042969 0.0390625 19.71875 0.0078125 19.527344 0.167969 L 6.875 9.722656 L 6.324219 9.722656 C 6.097656 9.722656 5.839844 9.753906 5.613281 9.820312 C 4.550781 9.949219 3.675781 10.75 3.515625 11.8125 C 3.417969 12.070312 3.386719 12.359375 3.386719 12.648438 L 3.386719 26.097656 C 3.386719 27.707031 4.710938 29.027344 6.324219 29.027344 Z M 25.242188 26.097656 C 25.242188 27.0625 24.464844 27.835938 23.496094 27.835938 L 6.324219 27.835938 C 5.355469 27.835938 4.582031 27.0625 4.582031 26.097656 L 4.582031 14.226562 C 4.96875 14.453125 5.386719 14.613281 5.871094 14.613281 L 23.917969 14.613281 C 24.402344 14.613281 24.851562 14.484375 25.207031 14.226562 L 25.207031 17.734375 C 25.207031 17.734375 25.175781 17.734375 25.175781 17.734375 L 19.496094 17.734375 C 17.6875 17.734375 16.234375 19.179688 16.234375 20.984375 C 16.234375 22.785156 17.6875 24.230469 19.496094 24.230469 L 25.207031 24.230469 C 25.207031 24.230469 25.242188 24.230469 25.242188 24.230469 Z M 26.304688 19.855469 L 26.304688 22.109375 C 26.304688 22.6875 25.820312 23.171875 25.242188 23.171875 L 19.496094 23.171875 C 18.269531 23.171875 17.300781 22.171875 17.300781 20.984375 C 17.300781 19.761719 18.300781 18.796875 19.496094 18.796875 L 25.207031 18.796875 C 25.820312 18.796875 26.304688 19.277344 26.304688 19.855469 Z M 19.71875 1.261719 L 24.433594 7.46875 L 21.429688 9.722656 C 21.429688 9.722656 21.398438 9.753906 21.398438 9.753906 L 18.816406 11.71875 L 16.363281 11.71875 C 16.816406 11.652344 17.234375 11.492188 17.621094 11.203125 C 18.234375 10.75 18.589844 10.171875 18.71875 9.433594 C 18.847656 8.691406 18.6875 8.015625 18.234375 7.40625 C 17.785156 6.792969 17.203125 6.441406 16.460938 6.3125 C 15.71875 6.183594 15.039062 6.34375 14.425781 6.792969 C 13.8125 7.246094 13.457031 7.824219 13.328125 8.5625 C 13.199219 9.304688 13.363281 9.980469 13.8125 10.589844 C 14.265625 11.203125 14.847656 11.554688 15.589844 11.683594 C 15.621094 11.683594 15.652344 11.683594 15.6875 11.683594 L 10.617188 11.683594 L 9.746094 10.558594 L 10.972656 9.625 L 10.488281 8.980469 L 8.585938 10.398438 L 9.550781 11.683594 L 8.261719 11.683594 C 8.261719 11.652344 8.261719 11.652344 8.261719 11.621094 C 8.261719 11.492188 8.230469 11.394531 8.164062 11.300781 L 7.519531 10.429688 Z M 15.71875 10.878906 C 15.203125 10.785156 14.78125 10.558594 14.460938 10.109375 C 14.136719 9.691406 14.039062 9.207031 14.105469 8.691406 C 14.199219 8.179688 14.425781 7.761719 14.878906 7.4375 C 15.234375 7.179688 15.589844 7.085938 15.976562 7.085938 C 16.074219 7.085938 16.203125 7.085938 16.300781 7.117188 C 16.816406 7.214844 17.234375 7.4375 17.558594 7.886719 C 17.878906 8.308594 17.976562 8.789062 17.914062 9.304688 C 17.816406 9.820312 17.589844 10.238281 17.136719 10.558594 C 16.71875 10.847656 16.234375 10.976562 15.71875 10.878906 Z M 5.90625 10.847656 L 6.613281 10.847656 L 7.261719 11.71875 L 6.292969 11.71875 C 6.035156 11.71875 5.808594 11.941406 5.808594 12.199219 C 5.808594 12.457031 6.035156 12.683594 6.292969 12.683594 L 23.496094 12.683594 C 23.753906 12.683594 23.980469 12.457031 23.980469 12.199219 C 23.980469 11.941406 23.753906 11.71875 23.496094 11.71875 L 20.398438 11.71875 L 21.527344 10.847656 L 23.886719 10.847656 C 24.628906 10.847656 25.242188 11.460938 25.242188 12.199219 C 25.242188 12.941406 24.628906 13.550781 23.886719 13.550781 L 5.90625 13.550781 C 5.164062 13.550781 4.550781 12.941406 4.550781 12.199219 C 4.550781 11.460938 5.164062 10.847656 5.90625 10.847656 Z M 5.90625 10.847656 " fill-opacity="1" fill-rule="nonzero"/></g><path fill="#38b6ff" d="M 19.65625 19.40625 C 18.785156 19.40625 18.074219 20.113281 18.074219 20.984375 C 18.074219 21.851562 18.785156 22.558594 19.65625 22.558594 C 20.527344 22.558594 21.238281 21.851562 21.238281 20.984375 C 21.238281 20.113281 20.527344 19.40625 19.65625 19.40625 Z M 19.65625 21.753906 C 19.238281 21.753906 18.882812 21.402344 18.882812 20.984375 C 18.882812 20.566406 19.238281 20.210938 19.65625 20.210938 C 20.074219 20.210938 20.429688 20.566406 20.429688 20.984375 C 20.429688 21.402344 20.109375 21.753906 19.65625 21.753906 Z M 19.65625 21.753906 " fill-opacity="1" fill-rule="nonzero"/><path fill="#38b6ff" d="M 19.238281 3.382812 L 20.171875 4.605469 L 20.816406 4.09375 L 19.398438 2.257812 L 17.527344 3.675781 L 18.011719 4.316406 Z M 19.238281 3.382812 " fill-opacity="1" fill-rule="nonzero"/><path fill="#38b6ff" d="M 21.496094 8.917969 L 23.367188 7.46875 L 21.980469 5.636719 L 21.335938 6.117188 L 22.238281 7.339844 L 21.011719 8.273438 Z M 21.496094 8.917969 " fill-opacity="1" fill-rule="nonzero"/></svg>