<svg xmlns="http://www.w3.org/2000/svg" xmlns:xlink="http://www.w3.org/1999/xlink" width="40" zoomAndPan="magnify" viewBox="0 0 30 30.000001" height="40" preserveAspectRatio="xMidYMid meet" version="1.0"><defs><clipPath id="40b182f23d"><path d="M 2.515625 0 L 27.195312 0 L 27.195312 29.03125 L 2.515625 29.03125 Z M 2.515625 0 " clip-rule="nonzero"/></clipPath></defs><g clip-path="url(#40b182f23d)"><path fill="#38b6ff" d="M 27.058594 7.878906 L 27.058594 7.855469 C 27.042969 7.574219 27.035156 7.28125 27.03125 6.953125 C 27.007812 5.351562 25.75 4.027344 24.167969 3.9375 C 20.867188 3.75 18.3125 2.664062 16.132812 0.511719 L 16.113281 0.496094 C 15.402344 -0.164062 14.328125 -0.164062 13.617188 0.496094 L 13.597656 0.511719 C 11.417969 2.664062 8.863281 3.75 5.566406 3.9375 C 3.984375 4.027344 2.722656 5.351562 2.699219 6.953125 C 2.695312 7.277344 2.6875 7.574219 2.675781 7.855469 L 2.671875 7.90625 C 2.609375 11.3125 2.53125 15.546875 3.929688 19.390625 C 4.703125 21.507812 5.867188 23.34375 7.398438 24.855469 C 9.140625 26.574219 11.425781 27.941406 14.183594 28.914062 C 14.273438 28.945312 14.367188 28.972656 14.460938 28.992188 C 14.597656 29.019531 14.730469 29.03125 14.867188 29.03125 C 15 29.03125 15.136719 29.019531 15.269531 28.992188 C 15.363281 28.972656 15.457031 28.945312 15.550781 28.914062 C 18.304688 27.941406 20.585938 26.574219 22.328125 24.851562 C 23.859375 23.339844 25.023438 21.503906 25.796875 19.386719 C 27.203125 15.53125 27.121094 11.289062 27.058594 7.878906 Z M 24.214844 18.796875 C 22.738281 22.851562 19.722656 25.632812 14.992188 27.304688 C 14.976562 27.3125 14.957031 27.316406 14.941406 27.320312 C 14.890625 27.332031 14.839844 27.332031 14.792969 27.320312 C 14.773438 27.316406 14.753906 27.3125 14.738281 27.304688 C 10.007812 25.636719 6.988281 22.855469 5.511719 18.804688 C 4.21875 15.257812 4.292969 11.371094 4.359375 7.941406 L 4.359375 7.921875 C 4.371094 7.625 4.378906 7.316406 4.382812 6.976562 C 4.394531 6.265625 4.953125 5.679688 5.660156 5.640625 C 7.527344 5.535156 9.167969 5.167969 10.675781 4.523438 C 12.179688 3.878906 13.515625 2.96875 14.761719 1.746094 C 14.824219 1.691406 14.90625 1.691406 14.96875 1.746094 C 16.214844 2.96875 17.550781 3.878906 19.058594 4.523438 C 20.566406 5.167969 22.207031 5.535156 24.074219 5.640625 C 24.777344 5.679688 25.335938 6.265625 25.347656 6.976562 C 25.351562 7.320312 25.359375 7.628906 25.375 7.921875 C 25.4375 11.355469 25.511719 15.246094 24.214844 18.796875 Z M 24.214844 18.796875 " fill-opacity="1" fill-rule="nonzero"/></g><path fill="#38b6ff" d="M 14.867188 7.28125 C 10.921875 7.28125 7.710938 10.527344 7.710938 14.515625 C 7.710938 18.507812 10.921875 21.753906 14.867188 21.753906 C 18.808594 21.753906 22.019531 18.507812 22.019531 14.515625 C 22.019531 10.527344 18.808594 7.28125 14.867188 7.28125 Z M 14.867188 20.046875 C 11.851562 20.046875 9.398438 17.566406 9.398438 14.515625 C 9.398438 11.464844 11.851562 8.984375 14.867188 8.984375 C 17.882812 8.984375 20.335938 11.464844 20.335938 14.515625 C 20.335938 17.566406 17.882812 20.046875 14.867188 20.046875 Z M 14.867188 20.046875 " fill-opacity="1" fill-rule="nonzero"/><path fill="#38b6ff" d="M 16.921875 12.269531 L 13.597656 15.632812 L 12.699219 14.71875 C 12.367188 14.386719 11.835938 14.386719 11.507812 14.71875 C 11.175781 15.050781 11.175781 15.589844 11.507812 15.921875 L 13.003906 17.4375 C 13.167969 17.605469 13.382812 17.6875 13.597656 17.6875 C 13.816406 17.6875 14.03125 17.605469 14.195312 17.4375 L 18.113281 13.476562 C 18.441406 13.140625 18.441406 12.601562 18.113281 12.269531 C 17.785156 11.9375 17.25 11.9375 16.921875 12.269531 Z M 16.921875 12.269531 " fill-opacity="1" fill-rule="nonzero"/></svg>