<svg xmlns="http://www.w3.org/2000/svg" xmlns:xlink="http://www.w3.org/1999/xlink" width="40" zoomAndPan="magnify" viewBox="0 0 30 30.000001" height="40" preserveAspectRatio="xMidYMid meet" version="1.0"><defs><clipPath id="dc6c1258fe"><path d="M 0.570312 2.347656 L 26.6875 2.347656 L 26.6875 28.253906 L 0.570312 28.253906 Z M 0.570312 2.347656 " clip-rule="nonzero"/></clipPath><clipPath id="74ff223ee3"><path d="M 5 0 L 29.515625 0 L 29.515625 25 L 5 25 Z M 5 0 " clip-rule="nonzero"/></clipPath></defs><g clip-path="url(#dc6c1258fe)"><path fill="#7ed957" d="M 22.417969 28.253906 L 4.425781 28.253906 C 2.296875 28.257812 0.570312 26.53125 0.570312 24.402344 L 0.570312 6.433594 C 0.570312 4.308594 2.296875 2.582031 4.425781 2.582031 L 16.410156 2.582031 C 16.601562 2.582031 16.757812 2.742188 16.753906 2.933594 C 16.753906 3.125 16.597656 3.277344 16.410156 3.28125 L 4.425781 3.28125 C 2.679688 3.28125 1.265625 4.691406 1.265625 6.433594 L 1.265625 24.402344 C 1.265625 26.144531 2.679688 27.554688 4.425781 27.558594 L 22.417969 27.558594 C 24.160156 27.554688 25.574219 26.144531 25.574219 24.402344 L 25.574219 12.328125 C 25.585938 12.136719 25.746094 11.984375 25.941406 11.996094 C 26.121094 12.007812 26.261719 12.148438 26.269531 12.328125 L 26.269531 24.402344 C 26.269531 26.527344 24.546875 28.253906 22.417969 28.253906 " fill-opacity="1" fill-rule="nonzero"/></g><g clip-path="url(#74ff223ee3)"><path fill="#7ed957" d="M 12.242188 16.769531 C 11.300781 16.316406 10.484375 15.640625 9.859375 14.804688 C 9.472656 14.285156 8.730469 14.179688 8.210938 14.570312 C 8.207031 14.570312 8.207031 14.570312 8.207031 14.570312 C 7.570312 15.054688 6.914062 15.503906 6.238281 15.925781 C 5.6875 16.269531 5.519531 16.996094 5.867188 17.546875 C 5.902344 17.605469 5.941406 17.65625 5.988281 17.707031 C 7.636719 19.558594 9.117188 21.558594 10.40625 23.675781 C 10.617188 24.03125 11 24.246094 11.414062 24.246094 L 14.054688 24.246094 C 14.542969 24.246094 14.984375 23.941406 15.160156 23.488281 C 18.007812 15.992188 22.226562 9.097656 27.601562 3.148438 C 27.988281 2.738281 28.429688 2.378906 28.910156 2.078125 C 29.300781 1.832031 29.417969 1.320312 29.171875 0.925781 C 29.054688 0.738281 28.863281 0.601562 28.640625 0.554688 C 25.953125 -0.0234375 23.167969 0.964844 21.445312 3.109375 C 18.140625 7.238281 15.316406 11.726562 13.035156 16.492188 C 12.894531 16.785156 12.542969 16.910156 12.25 16.769531 C 12.246094 16.769531 12.242188 16.769531 12.242188 16.769531 " fill-opacity="1" fill-rule="nonzero"/></g></svg>