<svg width="180" height="164" viewBox="0 0 180 164" fill="none" xmlns="http://www.w3.org/2000/svg">
<path d="M93.2108 95.7511C93.9318 95.7159 94.5908 96.2094 94.8352 96.9467C97.4057 104.692 101.622 112.131 107.004 118.36C109.853 121.634 112.986 124.625 116.442 127.1C119.883 129.584 123.529 131.682 127.299 133.292C128.253 133.664 129.184 134.083 130.14 134.419L132.964 135.354C132.996 135.364 133.028 135.374 133.06 135.382L135.904 136.122C136.865 136.366 137.841 136.502 138.8 136.702C142.657 137.362 146.49 137.563 150.199 137.34C151.122 137.251 152.049 137.219 152.957 137.095L155.61 136.696C155.644 136.69 155.677 136.684 155.71 136.677L158.293 136.103C159.172 135.927 160.001 135.606 160.853 135.373C163.736 134.457 166.461 133.265 169.001 131.839C169.717 131.438 170.614 131.674 171.081 132.411C171.081 132.411 171.054 138.425 172.105 140.283C173.361 142.504 179.716 146.068 179.716 146.068C180.315 147.015 179.925 148.278 178.936 148.627C175.106 149.979 171.113 150.964 167.013 151.554C165.801 151.694 164.62 151.91 163.39 151.972C162.165 152.047 160.946 152.131 159.724 152.185L156.021 152.165C154.786 152.137 153.534 152.009 152.298 151.93C147.33 151.48 142.345 150.473 137.483 148.915C136.271 148.491 135.056 148.125 133.863 147.646L130.348 146.192C130.318 146.18 130.288 146.167 130.259 146.152L126.826 144.479C125.681 143.892 124.567 143.218 123.446 142.589C119.004 139.953 114.882 136.799 111.169 133.299C107.437 129.808 104.251 125.853 101.544 121.762C96.5473 114.129 93.298 105.927 91.7707 97.7592C91.5803 96.7408 92.2497 95.7985 93.2103 95.752L93.2108 95.7511Z" fill="url(#paint0_linear_1_261)"/>
<path d="M93.0748 97.1602C93.7958 97.125 94.4548 97.6185 94.6992 98.3559C97.2697 106.101 101.486 113.54 106.868 119.77C109.717 123.043 112.85 126.034 116.306 128.509C119.747 130.993 123.393 133.091 127.163 134.701C128.117 135.073 129.049 135.492 130.004 135.828L132.828 136.763C132.86 136.773 132.892 136.783 132.924 136.791L135.768 137.531C136.729 137.775 137.705 137.911 138.664 138.111C142.521 138.771 146.354 138.972 150.063 138.749C150.986 138.66 151.914 138.628 152.821 138.504L155.474 138.105C155.508 138.1 155.541 138.093 155.574 138.086L158.157 137.512C159.036 137.336 159.865 137.015 160.717 136.782C163.6 135.866 166.325 134.674 168.865 133.248C169.581 132.847 170.478 133.083 170.945 133.82C170.945 133.82 169.17 140.617 170.221 142.475C171.477 144.696 179.58 147.476 179.58 147.476C180.179 148.423 179.789 149.687 178.8 150.036C174.97 151.388 170.977 152.372 166.877 152.963C165.665 153.102 164.484 153.318 163.254 153.381C162.029 153.456 160.81 153.54 159.588 153.594L155.885 153.573C154.65 153.546 153.398 153.418 152.162 153.339C147.194 152.888 142.209 151.881 137.347 150.324C136.135 149.9 134.92 149.534 133.727 149.054L130.212 147.601C130.182 147.588 130.152 147.575 130.123 147.561L126.69 145.888C125.545 145.301 124.431 144.626 123.31 143.998C118.868 141.362 114.746 138.207 111.033 134.708C107.301 131.216 104.115 127.262 101.408 123.17C96.4113 115.538 93.1621 107.335 91.6347 99.1678C91.4443 98.1495 92.1137 97.2071 93.0743 97.1607L93.0748 97.1602Z" fill="url(#paint1_linear_1_261)"/>
<path d="M93.8977 84.3216L90.3267 84.6415C95.8444 84.1476 102.244 82.8816 111.069 78.3311C117.764 74.8797 123.285 70.1561 127.897 65.4639C134.234 59.0334 138.035 51.3195 139.383 43.9335C140.731 36.5474 139.625 29.4893 136.148 24.3703C132.043 18.3296 126.13 15.8604 119.111 15.8491L122.682 15.5292C129.701 15.5404 135.614 18.0096 139.719 24.0504C143.196 29.1694 144.302 36.2275 142.954 43.6136C141.607 50.9996 137.805 58.7135 131.468 65.144C126.856 69.8362 121.335 74.5597 114.64 78.0112C105.815 82.5617 99.4154 83.8277 93.8977 84.3216Z" fill="url(#paint2_linear_1_261)"/>
<path d="M75.8318 0.083061C76.4585 0.0267722 77.0753 -0.000434046 77.6832 0.000504101C77.6865 0.000504101 77.6898 0.000504101 77.6926 0.000504101C76.8389 0.00144225 76.3496 0.0413135 75.8313 0.0835301L75.8318 0.083061Z" fill="#F9B233"/>
<path d="M77.693 1.90735e-05C77.6897 1.90735e-05 77.6864 1.90735e-05 77.6836 1.90735e-05C87.3015 0.0150294 94.7072 7.1032 103.357 19.1701C103.388 19.1673 103.403 19.1668 103.404 19.1682C103.022 18.6349 102.507 17.9266 102.118 17.3989C101.74 16.8881 101.229 16.2135 100.847 15.706C100.478 15.2149 99.9726 14.5699 99.5898 14.0896C99.2188 13.6243 98.7206 13.007 98.3402 12.5491C97.9743 12.1087 97.4747 11.5313 97.1037 11.0955C96.7453 10.6743 96.2453 10.132 95.8724 9.72344C95.5107 9.32708 95.0149 8.8111 94.6378 8.4288C94.2761 8.06199 93.7798 7.58775 93.4116 7.22797C93.0523 6.87664 92.5438 6.43946 92.1709 6.1022C91.4303 5.43283 90.7717 4.94218 89.6811 4.1288C89.3077 3.85064 88.7941 3.49931 88.3939 3.26196C87.6542 2.8229 86.6499 2.26611 85.8839 1.87491C85.4946 1.67602 84.9533 1.45743 84.5466 1.29795C84.1643 1.14831 83.6432 0.978975 83.2548 0.845289C82.8457 0.704567 82.2847 0.567129 81.863 0.470031C81.4667 0.378561 80.9329 0.277241 80.5309 0.215793C79.3188 0.031447 78.5289 0.0164366 77.693 1.90735e-05Z" fill="#F9B233"/>
<path d="M72.2607 0.402496L75.8318 0.082588C76.4585 0.0262992 77.0753 -0.000907068 77.6832 3.10787e-05L74.1122 0.319939C73.5043 0.319001 72.8874 0.346207 72.2607 0.402496Z" fill="#F9B233"/>
<path d="M74.1123 0.320396L77.6834 1.90735e-05C87.3012 0.0150294 94.707 7.1032 103.357 19.1701L99.7861 19.49C91.1359 7.42311 83.7307 0.334938 74.1123 0.320396Z" fill="url(#paint3_linear_1_261)"/>
<path d="M73.7608 1.59065C82.8027 1.58831 89.9378 8.37017 98.0832 19.7189C90.5874 41.1054 82.8731 63.1167 75.8083 83.2742C70.7241 77.8568 64.9559 71.9723 59.5943 61.784C55.9098 54.7864 54.3895 47.1968 53.3604 40.3544C53.078 38.192 52.8275 35.9484 52.7543 33.7865C52.7271 31.6775 52.7346 29.5001 52.9072 27.4371C53.1211 25.4365 53.3707 23.3768 53.7731 21.4658C54.2122 19.6308 54.6874 17.7385 55.3023 16.033C57.7471 9.26892 61.7694 4.35678 66.8467 2.74786C69.2141 2.09772 71.6069 1.5869 73.7604 1.59065H73.7608Z" fill="url(#paint4_linear_1_261)"/>
<path d="M136.147 24.3703C132.043 18.3295 126.13 15.8603 119.111 15.8491C118.129 15.8477 117.126 15.8941 116.102 15.9856C114.672 16.1179 113.67 16.2698 112.515 16.472C112.386 16.4945 111.697 16.617 110.785 16.814C110.108 16.9598 109.77 17.0429 109.027 17.2249C109.02 17.2267 108.262 17.4134 107.243 17.7015C106.383 17.9449 105.695 18.1602 105.435 18.2414C105.038 18.3657 104.398 18.5702 103.605 18.8413C103.139 19.0008 103.032 19.0369 102.434 19.2527L99.7855 19.49C91.1358 7.42312 83.7305 0.334946 74.1122 0.320405C73.5042 0.319466 72.8874 0.346673 72.2607 0.402962C71.6847 0.457843 71.3052 0.501936 70.5815 0.618266C70.3338 0.658138 69.8126 0.749138 69.1053 0.910499C68.3144 1.09109 67.6643 1.28201 67.5925 1.30311C66.9771 1.48511 66.5704 1.60567 65.9822 1.83504C64.795 2.29802 63.9183 2.83839 63.6523 3.00163C62.535 3.68976 61.7432 4.3793 61.4833 4.60586C60.5832 5.38968 59.7369 6.28467 58.91 7.33305C58.3241 8.07607 57.8982 8.71963 57.7584 8.93119C57.234 9.72345 56.9 10.3173 56.7002 10.6724C56.4792 11.065 56.1331 11.7086 55.7381 12.5468C55.3361 13.3996 55.0654 14.0628 54.875 14.5451C54.7521 14.8556 54.5973 15.2731 54.4819 15.5859C54.4528 15.6652 54.4153 15.7712 54.3876 15.851C54.36 15.9312 54.3243 16.0381 54.2948 16.1179C54.2371 16.2783 54.1719 16.4959 54.1142 16.6564C53.7183 17.8647 53.4584 18.8676 53.4575 18.8732C53.4396 18.9595 53.4045 19.0716 53.3829 19.157C53.3041 19.4642 53.2853 19.5369 53.2384 19.7293C53.1329 20.1594 53.0555 20.5028 53.0344 20.598C52.9579 20.9409 52.7989 21.6539 52.6188 22.6708C52.493 23.3824 52.4128 23.927 52.3748 24.1887C52.3434 24.4026 52.2773 24.8891 52.2496 25.1133C52.2383 25.2062 52.2238 25.3305 52.2111 25.4233C52.2102 25.429 52.1225 26.1452 52.0465 26.9896C51.9621 27.924 51.9203 28.6731 51.8936 29.2219C51.8645 29.8181 51.842 30.5634 51.8354 31.1676C51.8316 31.4922 51.8223 32.3544 51.8528 33.4679C51.8804 34.4765 51.933 35.3062 51.9433 35.462C51.9499 35.5624 51.9606 35.6956 51.9653 35.796C51.9653 35.8011 52.0507 37.0915 52.213 38.4823C52.2421 38.73 52.3185 39.3881 52.4321 40.1701C52.4954 40.6082 52.6084 41.3376 52.6417 41.551C52.691 41.8676 52.7613 42.2889 52.8106 42.605C52.8275 42.7284 53.0864 44.2402 53.1802 44.7431C53.4715 46.307 53.5011 46.4552 53.8332 48.0083C53.8355 48.0195 54.1221 49.3226 54.3496 50.212C54.4345 50.5441 54.5471 50.9874 54.6362 51.319C54.7254 51.6525 54.8511 52.0953 54.9435 52.4279C55.0364 52.7623 55.1733 53.2047 55.2723 53.5377C55.3961 53.9538 55.7498 55.0505 56.0008 55.7564C56.2381 56.4235 56.5669 57.3091 56.8315 57.9658C57.3489 59.2487 57.7593 60.1235 57.7767 60.1606C58.0849 60.8163 58.5061 61.6865 58.8438 62.3277C59.5563 63.6786 59.9893 64.4329 60.4903 65.3063C60.6075 65.5108 61.2399 66.6052 62.1616 68.0537C62.8816 69.1856 63.4698 70.0369 63.8587 70.6007C64.0777 70.9183 64.6847 71.7856 65.583 72.979C66.1435 73.7238 66.2561 73.8655 67.335 75.2202C67.3922 75.2919 68.7605 77.0064 70.9281 79.4184C71.8442 80.4372 72.5694 81.2215 72.7701 81.4373C73.0497 81.7384 73.4222 82.1409 73.7031 82.4406C73.9855 82.7422 74.3617 83.1442 74.6441 83.4454C75.2792 84.1218 75.9148 84.7973 76.5504 85.4732C76.5429 85.4652 76.5349 85.4544 76.527 85.4446C76.5701 85.499 76.61 85.5285 76.6438 85.5253L78.7011 85.3409C78.6007 85.4647 78.5726 85.5342 78.6373 85.5285C79.5173 85.3953 80.3888 85.2963 81.2594 85.2185C82.6352 85.1007 83.3937 85.0557 85.6795 84.9408C86.7481 84.887 87.8193 84.8257 88.8931 84.7569C89.3242 84.7292 89.8974 84.6772 90.328 84.6429C95.8458 84.149 102.246 82.883 111.07 78.3325C117.765 74.881 123.287 70.1575 127.898 65.4653C134.235 59.0348 138.037 51.3209 139.385 43.9349C140.732 36.5488 139.627 29.4907 136.149 24.3717L136.147 24.3703ZM83.2333 83.731C85.9703 83.5772 88.9522 83.5964 92.5073 83.1264C88.9522 83.5964 85.9703 83.5772 83.2333 83.731ZM75.8083 83.2742C70.7241 77.8568 64.9559 71.9723 59.5943 61.784C55.9098 54.7864 54.3895 47.1968 53.3604 40.3544C53.078 38.192 52.8275 35.9484 52.7543 33.7864C52.7271 31.6775 52.7346 29.5001 52.9072 27.4371C53.1211 25.4365 53.3707 23.3768 53.7731 21.4658C54.2122 19.6308 54.6874 17.7385 55.3023 16.033C57.7471 9.26892 61.7694 4.35678 66.8467 2.74786C69.2141 2.09772 71.6068 1.5869 73.7604 1.59066C82.8022 1.58831 89.9373 8.37017 98.0828 19.7189L75.8079 83.2742H75.8083Z" fill="url(#paint5_linear_1_261)"/>
<path d="M99.0242 21.606C112.549 16.7732 124.417 16.4303 131.074 25.9581C137.524 35.1904 135.09 51.441 123.213 63.0702C118.891 67.313 113.72 71.5858 107.46 74.7117C92.9567 81.9542 85.4816 80.0273 77.1677 81.2567L99.0242 21.606Z" fill="url(#paint6_linear_1_261)"/>
<path d="M77.1676 81.2567C71.1808 75.0668 65.7471 69.6912 60.7031 60.3515C57.2043 53.8731 55.7924 46.8924 54.8491 40.6495C52.3761 24.3501 58.066 8.62536 68.3565 5.44176C80.9132 1.55783 89.0962 8.14222 99.0241 21.606L77.1676 81.2567Z" fill="url(#paint7_linear_1_261)"/>
<path d="M76.5359 87.2899C77.2409 87.3006 78.1809 87.3002 78.8855 87.2899C78.8874 87.2899 78.8897 87.2899 78.8916 87.2899C78.0979 87.3157 77.3155 87.3124 76.5359 87.2899Z" fill="#F9B233"/>
<path d="M75.6372 163.374C75.0762 163.358 74.5264 163.318 73.9879 163.254C73.9851 163.254 73.9823 163.254 73.9795 163.253C74.7361 163.341 75.1738 163.357 75.6372 163.374Z" fill="#F9B233"/>
<path d="M73.9794 163.253C73.9822 163.253 73.985 163.254 73.9878 163.254C65.468 162.235 59.6483 155.18 53.2463 143.585C53.2191 143.584 53.2055 143.583 53.2046 143.582C53.4874 144.094 53.8693 144.775 54.1592 145.284C54.4401 145.776 54.8229 146.427 55.1076 146.917C55.383 147.39 55.7639 148.015 56.0528 148.481C56.3328 148.931 56.71 149.53 56.9989 149.976C57.2771 150.405 57.6594 150.968 57.9427 151.393C58.2162 151.804 58.6027 152.337 58.8898 152.738C59.1689 153.127 59.5544 153.636 59.8481 154.014C60.13 154.376 60.5203 154.848 60.8087 155.206C61.0902 155.555 61.4955 155.996 61.7905 156.333C62.3769 157.004 62.9088 157.507 63.7902 158.342C64.0918 158.628 64.5102 158.992 64.84 159.245C65.4493 159.712 66.281 160.31 66.9189 160.737C67.243 160.954 67.6994 161.204 68.0433 161.388C68.3665 161.561 68.8107 161.765 69.1404 161.924C69.488 162.092 69.9712 162.272 70.3342 162.402C70.6757 162.525 71.1377 162.67 71.4881 162.767C72.5421 163.057 73.2406 163.153 73.9794 163.254V163.253Z" fill="#F9B233"/>
<path d="M53.2051 143.581C62.3304 124.91 69.0795 105.081 80.5797 87.5704C80.6022 87.5244 80.628 87.5 80.6571 87.501L53.2464 143.584C53.2173 143.583 53.2041 143.582 53.2046 143.581L53.2051 143.581Z" fill="#F9B233"/>
<path d="M38.4246 144.983C37.5085 144.957 36.6144 144.894 35.7448 144.789C35.742 144.789 35.7391 144.789 35.7363 144.789C35.8925 144.806 36.1008 144.831 36.2575 144.846C36.4718 144.867 36.758 144.893 36.9733 144.909C37.4081 144.94 37.9888 144.966 38.4246 144.983Z" fill="#F9B233"/>
<path d="M79.7331 87.3804L76.5359 87.2903C77.3155 87.3124 78.0979 87.3157 78.8916 87.2903L82.0888 87.3804C81.2951 87.4062 80.5127 87.4029 79.7331 87.3804Z" fill="#F9B233"/>
<path d="M78.8343 163.464L75.6371 163.374C75.076 163.358 74.5263 163.318 73.9878 163.254L77.185 163.344C77.7235 163.408 78.2728 163.448 78.8343 163.464Z" fill="#F9B233"/>
<path d="M35.7362 144.789C35.739 144.789 35.7418 144.789 35.7447 144.789C29.5276 144.045 24.5469 141.239 21.5425 135.458C18.9969 130.559 18.7553 124.19 20.7216 117.787C22.688 111.384 26.8628 104.948 33.1497 99.9132C37.7265 96.2384 43.1124 92.6313 49.4045 90.2732C57.6987 87.1647 63.5011 86.7125 68.4414 86.8518C67.8893 86.8387 67.1529 86.8293 66.6003 86.8307C66.1796 86.8321 65.619 86.8462 65.1987 86.8612C64.7592 86.8767 64.1738 86.9086 63.7352 86.94C63.2849 86.9723 62.6854 87.0315 62.2361 87.0732C61.7557 87.1178 61.1183 87.2045 60.6412 87.274C60.1473 87.3457 59.4915 87.4621 58.999 87.5432C58.4788 87.6291 57.792 87.7843 57.2756 87.8922C56.7193 88.0085 55.9842 88.1934 55.4345 88.3374C54.8594 88.4879 54.099 88.7117 53.5272 88.8726C52.9099 89.0466 52.0994 89.3215 51.4905 89.5227C50.8498 89.7347 50.0054 90.0462 49.3717 90.2784C49.0875 90.3825 48.7131 90.5331 48.4307 90.6429C48.1404 90.7554 47.5864 90.982 46.5948 91.4225C46.3232 91.543 45.963 91.7076 45.6956 91.8376C45.1674 92.0942 44.4643 92.4385 43.9431 92.7096C42.8427 93.2814 42.0134 93.7655 41.4078 94.1187C41.1601 94.2632 40.8318 94.4597 40.5883 94.6112C40.107 94.911 39.4663 95.313 38.9911 95.623C38.439 95.9837 37.5042 96.6137 36.6884 97.201C36.4652 97.3619 36.1668 97.5753 35.9459 97.739C35.1133 98.3577 34.9402 98.4862 34.4988 98.8277C32.9044 100.061 32.2796 100.6 32.1708 100.696C31.9011 100.932 31.5385 101.243 31.2725 101.484C31.0103 101.72 30.6623 102.038 30.4108 102.286C30.1603 102.533 29.8198 102.856 29.5768 103.111C29.3376 103.362 29.0144 103.693 28.7789 103.948C28.5444 104.201 28.2329 104.541 28.0096 104.805C27.7896 105.065 27.4918 105.409 27.2755 105.672C27.0602 105.934 26.7746 106.285 26.571 106.556C26.3698 106.824 26.0944 107.176 25.9012 107.449C25.7093 107.721 25.4494 108.082 25.2618 108.357C25.0761 108.629 24.8345 108.995 24.6567 109.272C24.0446 110.224 23.5464 111.123 23.5422 111.131C23.3893 111.413 23.1777 111.785 23.0332 112.072C22.7494 112.636 22.377 113.392 22.1153 113.968C21.824 114.608 21.4342 115.584 21.3277 115.881C21.2245 116.168 21.0781 116.549 20.9839 116.839C20.8905 117.127 20.7615 117.51 20.6724 117.799C20.5847 118.085 20.4735 118.469 20.3947 118.757C20.1123 119.788 19.9397 120.661 19.9383 120.668C19.8848 120.953 19.8041 121.332 19.76 121.619C19.6737 122.183 19.5677 122.937 19.5035 123.504C19.472 123.783 19.4439 124.156 19.4256 124.436C19.4073 124.714 19.3946 125.084 19.381 125.361C19.3679 125.635 19.3735 126.002 19.3702 126.276C19.3702 126.284 19.3679 127.098 19.4495 128.075C19.6287 130.22 20.0471 131.674 20.2418 132.339C20.3131 132.583 20.4191 132.904 20.5031 133.145C20.5861 133.382 20.7095 133.693 20.7976 133.929C20.8858 134.164 21.0284 134.467 21.1283 134.697C21.3413 135.187 21.6002 135.649 21.9591 136.288C21.9628 136.295 22.3606 137.001 22.9779 137.849C23.4545 138.502 23.8522 138.956 24.1102 139.239C24.2894 139.436 24.5305 139.698 24.7252 139.88C24.9128 140.056 25.1591 140.295 25.3514 140.465C25.5475 140.639 25.8111 140.868 26.0203 141.026C26.2229 141.178 26.4898 141.386 26.6967 141.533C26.9087 141.683 27.1967 141.876 27.4163 142.014C28.2104 142.516 28.9018 142.847 28.9089 142.85C29.3714 143.071 29.9952 143.351 30.4742 143.533C31.2645 143.835 31.9053 144.017 32.1469 144.085C32.5235 144.192 33.1333 144.351 33.9026 144.502C34.6606 144.651 35.1832 144.718 35.7367 144.789L35.7362 144.789Z" fill="#F9B233"/>
<path d="M77.1855 163.344L73.9883 163.254C65.4685 162.235 59.6487 155.18 53.2468 143.585L56.444 143.675C62.8459 155.27 68.6657 162.325 77.1855 163.344Z" fill="url(#paint8_linear_1_261)"/>
<path d="M77.6298 162.255C69.619 161.312 64.0065 154.557 57.9766 143.65C66.8542 125.486 75.9909 106.792 84.3582 89.6718C88.2961 95.0029 92.7912 100.82 96.4758 110.407C99.0083 116.992 99.5613 123.875 99.7579 130.045C99.7818 131.99 99.7691 134.004 99.6078 135.927C99.4112 137.798 99.1767 139.726 98.808 141.536C98.4093 143.286 97.9726 145.085 97.4163 146.737C96.8355 148.316 96.2164 149.943 95.4931 151.39C92.6195 157.126 88.5423 161.058 83.8755 161.953C81.7098 162.281 79.5371 162.483 77.6289 162.255H77.6298Z" fill="url(#paint9_linear_1_261)"/>
<path d="M82.1114 87.4226C78.008 95.819 73.9045 104.215 69.801 112.611C68.4318 115.413 67.0626 118.214 65.6934 121.016C64.8716 122.697 63.7763 124.939 62.9544 126.62C62.5435 127.46 61.9957 128.581 61.5848 129.422C60.7629 131.103 59.6672 133.345 58.8454 135.027C58.4345 135.867 57.8866 136.988 57.4757 137.829C56.6539 139.51 55.2649 141.638 54.7368 143.433C54.7888 143.326 54.6063 142.956 54.27 142.513L80.6432 88.5522C81.458 88.0151 82.0439 87.5605 82.1114 87.4226Z" fill="#F9B233"/>
<path d="M41.6218 145.073L38.4246 144.983C37.5085 144.957 36.6144 144.894 35.7448 144.789L38.942 144.879C39.8116 144.984 40.7057 145.047 41.6218 145.073Z" fill="#F9B233"/>
<path d="M68.4411 86.8518L71.6383 86.9418C66.698 86.8025 60.8956 87.2547 52.6014 90.3633C46.3093 92.7213 40.9234 96.3285 36.3466 100.003C30.0596 105.038 25.8853 111.474 23.9185 117.877C21.9521 124.28 22.1937 130.649 24.7394 135.548C27.7438 141.33 32.7244 144.136 38.9415 144.879L35.7443 144.789C29.5272 144.045 24.5466 141.239 21.5422 135.458C18.9965 130.559 18.7549 124.19 20.7213 117.787C22.6877 111.384 26.8624 104.948 33.1494 99.9131C37.7262 96.2384 43.1121 92.6312 49.4042 90.2732C57.6984 87.1647 63.5008 86.7125 68.4411 86.8518Z" fill="url(#paint10_linear_1_261)"/>
<path d="M24.74 135.549C27.7444 141.33 32.725 144.136 38.9421 144.88C39.8118 144.984 40.7059 145.048 41.622 145.074C42.9025 145.106 43.8069 145.076 44.8511 145.018C44.9674 145.011 45.5908 144.975 46.4196 144.896C47.0341 144.837 47.3428 144.799 48.0201 144.716C48.0267 144.715 48.7181 144.629 49.6501 144.48C50.4373 144.354 51.07 144.235 51.3083 144.191C51.6733 144.122 52.2615 144.008 52.9928 143.851C53.4224 143.758 53.5209 143.737 54.0735 143.609L56.4447 143.676C62.8466 155.271 68.6664 162.326 77.1862 163.345C77.7247 163.409 78.274 163.449 78.8354 163.465C79.3514 163.477 79.692 163.477 80.3454 163.45C80.5691 163.441 81.0406 163.414 81.6841 163.345C82.4037 163.269 82.9999 163.167 83.0655 163.156C83.6298 163.059 84.0027 162.995 84.5478 162.853C85.6478 162.567 86.4813 162.18 86.7337 162.063C87.7952 161.57 88.5692 161.042 88.8234 160.868C89.7029 160.268 90.5463 159.564 91.3883 158.721C91.985 158.124 92.4297 157.598 92.5755 157.425C93.1229 156.778 93.4813 156.287 93.6952 155.993C93.9321 155.669 94.306 155.134 94.7436 154.433C95.1892 153.72 95.4979 153.16 95.7174 152.753C95.8586 152.491 96.0396 152.137 96.1747 151.872C96.209 151.805 96.2531 151.715 96.2859 151.647C96.3187 151.579 96.3619 151.488 96.3961 151.421C96.4642 151.285 96.5444 151.098 96.6124 150.962C97.0894 149.933 97.4248 149.072 97.4262 149.067C97.4511 148.992 97.4938 148.897 97.5219 148.823C97.6237 148.559 97.6481 148.496 97.7095 148.331C97.8479 147.961 97.9525 147.665 97.9811 147.583C98.0848 147.288 98.3001 146.672 98.5661 145.79C98.7518 145.173 98.8799 144.699 98.9413 144.471C98.9915 144.285 99.1013 143.861 99.1491 143.665C99.1688 143.584 99.1946 143.475 99.2153 143.394C99.2167 143.39 99.3691 142.764 99.5249 142.024C99.6975 141.205 99.8129 140.546 99.894 140.063C99.9822 139.537 100.08 138.879 100.149 138.345C100.186 138.058 100.285 137.295 100.374 136.305C100.456 135.408 100.495 134.668 100.502 134.528C100.507 134.439 100.512 134.32 100.518 134.23C100.518 134.225 100.578 133.073 100.579 131.824C100.579 131.602 100.58 131.011 100.562 130.306C100.551 129.911 100.527 129.253 100.52 129.061C100.51 128.775 100.491 128.395 100.481 128.109C100.479 127.998 100.408 126.632 100.377 126.177C100.282 124.761 100.272 124.626 100.14 123.215C100.139 123.205 100.022 122.021 99.9128 121.209C99.872 120.906 99.8185 120.501 99.7749 120.199C99.7308 119.894 99.6656 119.489 99.6187 119.184C99.5713 118.878 99.4962 118.472 99.4432 118.167C99.3771 117.785 99.1782 116.776 99.03 116.125C98.8897 115.509 98.6908 114.69 98.5248 114.081C98.2007 112.89 97.9286 112.072 97.9169 112.037C97.7124 111.424 97.4305 110.609 97.1978 110.006C96.7076 108.735 96.4032 108.021 96.0504 107.195C95.9679 107.001 95.5218 105.966 94.8566 104.586C94.3369 103.508 93.9049 102.692 93.6192 102.152C93.4583 101.848 93.0113 101.016 92.3405 99.8648C91.9217 99.1462 91.8367 99.0092 91.0224 97.6958C90.9793 97.6264 89.9464 95.9645 88.2784 93.6008C87.5733 92.6022 87.0128 91.8319 86.8575 91.6195C86.6413 91.3235 86.3537 90.928 86.1361 90.633C85.9175 90.3365 85.6262 89.9406 85.4076 89.6447C84.9156 88.979 84.423 88.3139 83.931 87.6487C83.9366 87.6567 83.9427 87.667 83.9488 87.6764C83.9164 87.6239 83.8841 87.5934 83.8536 87.5925L82.0115 87.5404C82.1133 87.4409 82.1457 87.3828 82.0875 87.3809C81.2938 87.4067 80.5114 87.4034 79.7318 87.3809C78.5005 87.3415 77.8236 87.3016 75.7869 87.1647C74.8347 87.1006 73.8792 87.0429 72.9204 86.9916C72.5358 86.9709 72.0221 86.9573 71.6375 86.9428C66.6972 86.8035 60.8948 87.2557 52.6006 90.3642C46.3085 92.7222 40.9226 96.3294 36.3458 100.004C30.0588 105.039 25.8845 111.475 23.9177 117.878C21.9514 124.281 22.1929 130.65 24.7386 135.549L24.74 135.549ZM77.8283 88.4907C75.3873 88.3406 72.7473 88.0118 69.5482 88.0564C72.7469 88.0118 75.3873 88.3406 77.8283 88.4907ZM84.3588 89.6719C88.2966 95.0029 92.7918 100.82 96.4763 110.407C99.0089 116.992 99.5619 123.875 99.7585 130.045C99.7824 131.99 99.7697 134.004 99.6084 135.927C99.4118 137.798 99.1773 139.726 98.8086 141.536C98.4099 143.286 97.9732 145.085 97.4168 146.737C96.8361 148.316 96.217 149.943 95.4936 151.39C92.6201 157.127 88.5429 161.058 83.8761 161.953C81.7104 162.281 79.5376 162.483 77.6294 162.255C69.6186 161.312 64.0061 154.557 57.9762 143.65L84.3578 89.6719H84.3588Z" fill="url(#paint11_linear_1_261)"/>
<path d="M57.3405 141.88C44.8528 144.748 34.3019 143.81 29.401 134.672C24.6521 125.818 28.5079 111.676 40.2465 102.614C44.5188 99.3071 49.5473 96.062 55.4205 93.9474C69.0274 89.0475 75.4486 91.5364 82.943 91.3169L57.3405 141.88V141.88Z" fill="url(#paint12_linear_1_261)"/>
<path d="M82.9428 91.3174C87.5998 97.4275 91.8515 102.759 95.3437 111.561C97.766 117.666 98.2872 123.999 98.4696 129.628C98.9561 144.328 92.2704 157.665 82.8204 159.409C71.2892 161.537 64.7282 154.847 57.3403 141.88L82.9428 91.3174Z" fill="url(#paint13_linear_1_261)"/>
<path d="M83.4675 95.1736C82.9979 94.5882 82.3595 93.8175 81.8721 93.2472C81.8707 93.2453 81.8693 93.2439 81.8679 93.2425C82.428 93.8757 82.9562 94.5197 83.4675 95.1741V95.1736Z" fill="#F9B233"/>
<path d="M146.47 44.2618C146.837 44.7327 147.178 45.2107 147.49 45.6962C147.492 45.6986 147.494 45.7009 147.496 45.7037C147.055 45.0236 146.77 44.6535 146.47 44.2623V44.2618Z" fill="#F9B233"/>
<path d="M147.495 45.7033C147.494 45.7009 147.492 45.6981 147.49 45.6958C152.438 53.374 150.604 62.9351 145.441 76.0565C145.459 76.0795 145.467 76.0912 145.467 76.0931C145.695 75.5129 145.994 74.738 146.214 74.1549C146.427 73.5906 146.701 72.8345 146.91 72.2688C147.111 71.7209 147.365 70.9854 147.55 70.4319C147.73 69.8962 147.965 69.1804 148.134 68.641C148.297 68.1222 148.5 67.4261 148.656 66.9049C148.807 66.4021 148.981 65.7233 149.115 65.2158C149.245 64.7228 149.401 64.0614 149.511 63.5637C149.617 63.0862 149.74 62.4459 149.837 61.9665C149.932 61.4988 150.018 60.8675 150.095 60.3965C150.247 59.4607 150.298 58.6825 150.384 57.393C150.414 56.9516 150.429 56.3611 150.412 55.9192C150.381 55.1026 150.307 54.0148 150.224 53.2019C150.182 52.7891 150.077 52.2445 149.995 51.8378C149.917 51.4555 149.783 50.9527 149.689 50.5741C149.591 50.1754 149.411 49.6571 149.271 49.2706C149.14 48.907 148.946 48.4295 148.787 48.0772C148.309 47.0162 147.914 46.3783 147.495 45.7028V45.7033Z" fill="#F9B233"/>
<path d="M145.466 76.0931C123.961 81.2844 103.118 89.2108 80.9523 91.6664C80.8993 91.679 80.8618 91.6743 80.8425 91.6499L145.441 76.0561C145.46 76.0805 145.468 76.0922 145.466 76.0927L145.466 76.0931Z" fill="#F9B233"/>
<path d="M156.649 87.2627C157.25 88.0315 157.805 88.8078 158.31 89.5917C158.312 89.594 158.314 89.5964 158.315 89.5992C158.223 89.4594 158.102 89.2718 158.008 89.1329C157.88 88.9429 157.707 88.6906 157.574 88.5034C157.305 88.1253 156.931 87.6319 156.649 87.2627Z" fill="#F9B233"/>
<path d="M81.3713 92.4905L83.4676 95.1736C82.9563 94.5193 82.4281 93.8752 81.868 93.242L79.7717 90.5589C80.3318 91.1921 80.86 91.8362 81.3713 92.4905Z" fill="#F9B233"/>
<path d="M144.374 41.5787L146.47 44.2618C146.838 44.7327 147.178 45.2107 147.491 45.6962L145.394 43.0131C145.081 42.5276 144.742 42.0496 144.374 41.5787Z" fill="#F9B233"/>
<path d="M158.315 89.5987C158.314 89.5963 158.312 89.5935 158.31 89.5912C161.92 95.1942 163 101.184 160.299 107.572C158.01 112.985 152.951 117.507 146.365 120.241C139.78 122.975 131.668 123.921 123.272 122.183C117.151 120.924 110.537 118.957 104.332 115.397C96.153 110.706 91.8427 106.255 88.6038 102.109C88.9678 102.57 89.4603 103.181 89.8365 103.633C90.1231 103.977 90.5152 104.427 90.8126 104.761C91.1236 105.111 91.5472 105.57 91.8709 105.908C92.203 106.255 92.6584 106.707 92.998 107.047C93.3606 107.41 93.8644 107.874 94.2453 108.219C94.6393 108.575 95.1797 109.034 95.5812 109.382C96.0048 109.751 96.5982 110.208 97.0372 110.558C97.5101 110.935 98.1607 111.412 98.6518 111.766C99.1654 112.135 99.8653 112.607 100.385 112.966C100.947 113.354 101.723 113.832 102.301 114.195C102.91 114.577 103.739 115.058 104.359 115.42C104.638 115.582 105.016 115.787 105.297 115.944C105.587 116.105 106.149 116.406 107.183 116.92C107.466 117.061 107.846 117.244 108.134 117.375C108.703 117.635 109.463 117.977 110.038 118.221C111.254 118.735 112.214 119.087 112.915 119.344C113.201 119.449 113.586 119.584 113.875 119.681C114.448 119.873 115.212 120.125 115.789 120.304C116.46 120.512 117.61 120.851 118.647 121.121C118.93 121.195 119.307 121.295 119.592 121.365C120.664 121.627 120.887 121.682 121.467 121.812C123.561 122.283 124.426 122.429 124.578 122.454C124.955 122.514 125.457 122.6 125.835 122.655C126.207 122.709 126.703 122.779 127.078 122.817C127.45 122.855 127.946 122.915 128.32 122.941C128.688 122.967 129.179 123.007 129.548 123.027C129.915 123.047 130.405 123.073 130.772 123.076C131.135 123.08 131.619 123.091 131.982 123.09C132.343 123.088 132.824 123.084 133.185 123.067C133.541 123.05 134.017 123.038 134.372 123.01C134.726 122.983 135.197 122.951 135.551 122.918C135.899 122.886 136.364 122.835 136.711 122.794C137.907 122.65 138.983 122.448 138.993 122.446C139.328 122.38 139.777 122.301 140.11 122.224C140.766 122.074 141.638 121.866 142.287 121.69C143.011 121.494 144.075 121.151 144.391 121.037C144.697 120.927 145.108 120.788 145.41 120.668C145.71 120.55 146.111 120.396 146.409 120.272C146.703 120.15 147.093 119.981 147.383 119.849C148.42 119.381 149.253 118.93 149.261 118.926C149.531 118.776 149.896 118.586 150.161 118.427C150.682 118.115 151.372 117.69 151.881 117.357C152.131 117.194 152.457 116.963 152.699 116.789C152.939 116.615 153.251 116.375 153.487 116.197C153.721 116.022 154.018 115.769 154.245 115.585C154.252 115.58 154.921 115.029 155.667 114.298C157.303 112.696 158.212 111.366 158.625 110.754C158.777 110.53 158.969 110.225 159.108 109.993C159.247 109.764 159.418 109.451 159.551 109.219C159.684 108.987 159.836 108.665 159.956 108.426C160.213 107.92 160.416 107.393 160.697 106.665C160.7 106.657 161.009 105.853 161.284 104.771C161.497 103.936 161.598 103.302 161.656 102.898C161.697 102.617 161.747 102.242 161.765 101.959C161.781 101.686 161.811 101.322 161.82 101.048C161.828 100.77 161.838 100.398 161.825 100.12C161.813 99.8498 161.802 99.49 161.782 99.2208C161.761 98.945 161.723 98.5781 161.688 98.3037C161.56 97.3116 161.363 96.5198 161.361 96.5119C161.228 95.9828 161.034 95.281 160.858 94.7646C160.569 93.9118 160.283 93.2626 160.176 93.0182C160.008 92.6369 159.724 92.0285 159.326 91.2958C158.933 90.5734 158.634 90.0992 158.317 89.5973L158.315 89.5987Z" fill="#F9B233"/>
<path d="M145.394 43.0131L147.49 45.6962C152.438 53.3745 150.603 62.9356 145.441 76.057L143.344 73.3739C148.507 60.2525 150.341 50.6914 145.394 43.0131Z" fill="url(#paint14_linear_1_261)"/>
<path d="M144.199 43.3874C148.864 50.5971 147.134 59.7848 142.284 72.1332C121.362 77.1837 99.8297 82.3815 80.1104 87.1417C81.8089 80.2932 83.5276 72.6586 88.8881 63.1289C92.5689 56.582 97.838 51.456 102.764 47.1067C104.343 45.7666 106.003 44.4096 107.69 43.2364C109.358 42.127 111.098 41.0106 112.832 40.0842C114.538 39.2235 116.31 38.3599 118.042 37.6957C119.731 37.0995 121.485 36.5029 123.163 36.114C129.818 34.5759 135.81 35.2509 139.711 38.4701C141.451 40.0228 143.092 41.6678 144.199 43.3874Z" fill="url(#paint15_linear_1_261)"/>
<path d="M79.7913 90.5115C89.4626 88.1769 99.1321 85.8428 108.803 83.5082C112.031 82.7291 115.257 81.9504 118.484 81.1713C120.421 80.7036 123.003 80.0807 124.939 79.613C125.907 79.3794 127.199 79.0675 128.167 78.8339C130.104 78.3662 132.685 77.7433 134.622 77.2756C135.59 77.042 136.882 76.7301 137.85 76.4965C139.786 76.0288 142.474 75.7239 144.305 74.9382C144.182 74.9678 144.003 75.3689 143.867 75.9449L81.714 90.9482C80.7205 90.6447 79.9498 90.473 79.7913 90.511V90.5115Z" fill="#F9B233"/>
<path d="M154.553 84.5796L156.649 87.2627C157.25 88.0315 157.805 88.8078 158.31 89.5916L156.213 86.9085C155.708 86.1247 155.154 85.3484 154.553 84.5796Z" fill="#F9B233"/>
<path d="M88.6029 102.109L86.5066 99.4258C89.746 103.571 94.0559 108.023 102.235 112.714C108.44 116.273 115.054 118.241 121.174 119.5C129.57 121.238 137.683 120.292 144.268 117.558C150.854 114.824 155.913 110.302 158.202 104.889C160.903 98.5008 159.823 92.5116 156.213 86.9081L158.309 89.5912C161.92 95.1943 162.999 101.184 160.298 107.572C158.009 112.985 152.95 117.507 146.365 120.241C139.779 122.975 131.667 123.921 123.271 122.183C117.15 120.924 110.536 118.957 104.331 115.397C96.1521 110.706 91.8418 106.255 88.6029 102.109Z" fill="url(#paint16_linear_1_261)"/>
<path d="M158.203 104.889C160.903 98.5008 159.824 92.5116 156.213 86.9081C155.708 86.1243 155.154 85.3479 154.553 84.5791C153.71 83.5068 153.071 82.7854 152.315 81.9692C152.23 81.8782 151.777 81.3918 151.15 80.766C150.685 80.3021 150.444 80.0746 149.916 79.576C149.911 79.5708 149.371 79.0628 148.616 78.3991C147.979 77.839 147.452 77.4004 147.253 77.2353C146.949 76.9825 146.456 76.5777 145.831 76.0851C145.463 75.7953 145.38 75.7291 144.899 75.3632L143.344 73.3734C148.507 60.252 150.341 50.6909 145.394 43.0126C145.081 42.5272 144.741 42.0492 144.373 41.5782C144.032 41.1471 143.802 40.8676 143.335 40.3502C143.176 40.1733 142.834 39.8042 142.341 39.3234C141.789 38.7858 141.301 38.3655 141.248 38.3196C140.785 37.9227 140.48 37.6605 139.993 37.3097C139.012 36.6018 138.129 36.1806 137.861 36.0535C136.736 35.5173 135.778 35.2415 135.463 35.151C134.374 34.8372 133.224 34.6237 131.961 34.5051C131.067 34.4211 130.333 34.4131 130.093 34.4108C129.19 34.4014 128.544 34.4408 128.158 34.4647C127.732 34.491 127.04 34.5468 126.167 34.6641C125.28 34.7832 124.611 34.9094 124.129 35.006C123.818 35.0684 123.405 35.1599 123.096 35.2293C123.017 35.2467 122.914 35.2715 122.836 35.2908C122.757 35.31 122.654 35.3367 122.575 35.3541C122.418 35.3907 122.211 35.4512 122.053 35.4878C120.885 35.795 119.951 36.1051 119.946 36.1069C119.868 36.137 119.761 36.167 119.681 36.1937C119.396 36.2894 119.328 36.3119 119.151 36.3734C118.753 36.5108 118.44 36.6262 118.353 36.6586C118.04 36.7744 117.389 37.0151 116.486 37.396C115.853 37.6624 115.378 37.8796 115.149 37.9842C114.962 38.0696 114.54 38.2675 114.347 38.3608C114.266 38.3998 114.16 38.4523 114.079 38.4903C114.074 38.4927 113.458 38.7919 112.745 39.1667C111.957 39.5809 111.337 39.9341 110.886 40.1959C110.395 40.4801 109.789 40.8465 109.304 41.1528C109.043 41.3174 108.351 41.7541 107.478 42.3527C106.688 42.8949 106.054 43.3645 105.935 43.4531C105.858 43.5099 105.757 43.5873 105.679 43.6431C105.675 43.6459 104.69 44.3791 103.665 45.2257C103.482 45.3763 102.997 45.7769 102.432 46.2708C102.115 46.5476 101.592 47.0138 101.439 47.1503C101.212 47.353 100.912 47.626 100.685 47.8286C100.596 47.9056 99.5233 48.8915 99.1706 49.2255C98.0739 50.2641 97.9707 50.3644 96.9036 51.4302C96.8956 51.4381 96.0044 52.3383 95.4124 52.9786C95.1914 53.2178 94.8959 53.5363 94.6773 53.7779C94.4573 54.0209 94.1689 54.3497 93.9512 54.5945C93.7322 54.8413 93.4502 55.1785 93.2359 55.429C92.968 55.7424 92.2757 56.59 91.8418 57.1543C91.4318 57.6876 90.8957 58.4062 90.5082 58.956C89.7521 60.0302 89.2656 60.8088 89.2455 60.8412C88.8815 61.4252 88.4044 62.2099 88.0676 62.8099C87.3574 64.0745 86.9794 64.8091 86.5413 65.659C86.4385 65.8584 85.8921 66.927 85.2124 68.4088C84.6809 69.5669 84.3052 70.475 84.0566 71.0759C83.9163 71.4146 83.5378 72.3457 83.049 73.6774C82.7441 74.5086 82.6892 74.6714 82.1653 76.2306C82.1376 76.3131 81.4757 78.2884 80.6699 81.2609C80.3293 82.5166 80.0784 83.4998 80.0094 83.7709C79.9132 84.1495 79.7847 84.6537 79.69 85.0322C79.5952 85.4127 79.4686 85.9202 79.3738 86.3006C79.1618 87.1557 78.9507 88.0113 78.7392 88.8665C78.7415 88.8561 78.7462 88.8444 78.7499 88.8332C78.7288 88.8955 78.726 88.9424 78.7457 88.9682L79.9536 90.5138C79.803 90.4979 79.7331 90.511 79.7711 90.5598C80.3312 91.1931 80.8594 91.8371 81.3707 92.4915C82.1742 93.5281 82.601 94.1098 83.8713 95.8735C84.4651 96.6978 85.0665 97.5205 85.6754 98.3417C85.9197 98.671 86.257 99.1016 86.5061 99.4272C89.7455 103.573 94.0554 108.024 102.235 112.716C108.439 116.275 115.053 118.243 121.174 119.501C129.57 121.239 137.682 120.293 144.268 117.559C150.854 114.825 155.912 110.304 158.202 104.89L158.203 104.889ZM80.1107 87.1417C81.8092 80.2932 83.5279 72.6586 88.8885 63.1289C92.5693 56.582 97.8384 51.456 102.764 47.1067C104.343 45.7666 106.003 44.4095 107.69 43.2364C109.358 42.127 111.098 41.0106 112.833 40.0842C114.539 39.2235 116.31 38.3599 118.042 37.6957C119.731 37.0995 121.486 36.5028 123.163 36.114C129.818 34.5759 135.81 35.2509 139.712 38.4701C141.451 40.0228 143.092 41.6678 144.2 43.3874C148.864 50.5971 147.135 59.7848 142.284 72.1332L80.1107 87.1417Z" fill="url(#paint17_linear_1_261)"/>
<path d="M141.264 73.857C152.092 82.1512 158.486 91.4398 154.319 101.661C150.282 111.566 136.067 118.005 120.668 114.529C115.056 113.271 108.982 111.35 103.26 107.969C90.0053 100.137 87.6876 93.1819 82.4199 87.1853L141.264 73.8565V73.857Z" fill="url(#paint18_linear_1_261)"/>
<path d="M82.4204 87.1858C84.2699 79.219 85.755 72.1135 90.6024 63.2747C93.9648 57.144 98.8042 52.4176 103.297 48.4464C115.021 38.0691 130.496 34.498 138.341 41.0636C147.914 49.075 146.882 58.9963 141.264 73.857L82.4199 87.1858H82.4204Z" fill="url(#paint19_linear_1_261)"/>
<path d="M81.1257 81.3763C81.1459 82.1278 81.1881 83.1297 81.2313 83.8802C81.2313 83.8826 81.2313 83.8844 81.2313 83.8868C81.1684 83.042 81.137 82.2084 81.1257 81.3763Z" fill="#F9B233"/>
<path d="M0.00181557 83.8169C-0.00615868 83.2183 0.0121351 82.6306 0.0566971 82.0541C0.0566971 82.0508 0.0566971 82.048 0.0566971 82.0452C-0.00334432 82.8553 -0.00099887 83.3225 0.00181557 83.8173V83.8169Z" fill="#F9B233"/>
<path d="M0.0571289 82.0452C0.0571289 82.048 0.0571289 82.0513 0.0571289 82.0541C0.762615 72.9292 8.02059 66.4119 20.0922 59.0714C20.0922 59.0423 20.0922 59.0277 20.0936 59.0268C19.5598 59.3514 18.851 59.7886 18.3224 60.1202C17.8106 60.4415 17.1337 60.8787 16.6248 61.2038C16.1323 61.5185 15.484 61.9519 15.0004 62.2812C14.5323 62.5997 13.9107 63.0285 13.4492 63.3559C13.005 63.6711 12.421 64.1041 11.981 64.4249C11.5555 64.735 11.0053 65.1703 10.5906 65.4944C10.1886 65.8091 9.66329 66.2426 9.27349 66.5728C8.89963 66.8894 8.41414 67.3266 8.04592 67.6498C7.68661 67.9655 7.23536 68.4167 6.88871 68.7465C6.20058 69.4008 5.68742 69.9905 4.83699 70.9671C4.54616 71.3011 4.17606 71.7636 3.92183 72.1261C3.45181 72.7965 2.8514 73.7093 2.42501 74.4082C2.2083 74.7633 1.96204 75.261 1.78144 75.6358C1.61211 75.988 1.41369 76.4702 1.25889 76.8291C1.09613 77.2067 0.925384 77.7297 0.802487 78.1223C0.687095 78.4919 0.55247 78.991 0.465692 79.3682C0.203949 80.5047 0.13265 81.2529 0.0571289 82.0452Z" fill="#F9B233"/>
<path d="M20.0936 59.0268C40.3993 67.9176 61.8331 74.2243 81.0074 85.6988C81.0576 85.7209 81.0844 85.7471 81.0848 85.7781L20.0917 59.0714C20.0917 59.0404 20.0917 59.0259 20.0936 59.0268Z" fill="#F9B233"/>
<path d="M17.9396 43.3372C17.926 42.3597 17.9541 41.4042 18.0264 40.4726C18.0264 40.4693 18.0264 40.4665 18.0264 40.4637C18.0151 40.6312 17.9978 40.854 17.9888 41.0219C17.9762 41.2513 17.9612 41.5576 17.9541 41.7874C17.9401 42.2523 17.9387 42.8724 17.9396 43.3377V43.3372Z" fill="#F9B233"/>
<path d="M81.1726 84.7874L81.1257 81.3758C81.137 82.208 81.1684 83.0415 81.2313 83.8863L81.2782 87.2979C81.2153 86.4531 81.1839 85.6196 81.1726 84.7874Z" fill="#F9B233"/>
<path d="M0.0487229 87.2285L0.00181557 83.8169C-0.00615868 83.2183 0.0121351 82.6306 0.0566971 82.0541L0.103604 85.4657C0.0590425 86.0426 0.0407487 86.6299 0.0487229 87.2285Z" fill="#F9B233"/>
<path d="M18.0265 40.4637C18.0265 40.4665 18.0265 40.4698 18.0265 40.4726C18.5415 33.8137 21.3095 28.3804 27.3362 24.92C32.4434 21.9883 39.2201 21.4461 46.1315 23.2557C53.0428 25.0654 60.0892 29.2271 65.735 35.7021C69.8558 40.4154 73.9405 45.9941 76.7343 52.5944C80.4175 61.2948 81.1586 67.4584 81.2308 72.7294C81.2201 72.1402 81.1975 71.355 81.1708 70.7663C81.1506 70.3184 81.1108 69.7212 81.0756 69.2742C81.0395 68.8065 80.9789 68.1841 80.9259 67.7183C80.8715 67.2398 80.7819 66.6038 80.7172 66.1262C80.6483 65.6164 80.5272 64.9409 80.4325 64.4357C80.334 63.9122 80.1806 63.2189 80.0722 62.6973C79.9573 62.1466 79.7612 61.4219 79.6233 60.8764C79.4746 60.2886 79.2443 59.5137 79.0665 58.9344C78.8808 58.3284 78.6082 57.5281 78.4108 56.9258C78.1978 56.2757 77.869 55.4243 77.6269 54.784C77.3727 54.1105 77.0026 53.2248 76.7268 52.5597C76.6034 52.2614 76.4257 51.8692 76.2962 51.5732C76.1634 51.2693 75.897 50.6886 75.3834 49.6514C75.2426 49.3677 75.0513 48.9905 74.9007 48.7114C74.6038 48.1598 74.2051 47.4262 73.8931 46.883C73.2345 45.7356 72.682 44.8735 72.2781 44.244C72.113 43.9864 71.8888 43.6454 71.7166 43.3926C71.3756 42.893 70.9187 42.2279 70.5669 41.7358C70.1579 41.1636 69.4449 40.1954 68.7821 39.352C68.6006 39.1212 68.3599 38.8126 68.1756 38.5846C67.4795 37.7248 67.3345 37.5461 66.9508 37.0911C65.5652 35.447 64.9629 34.8053 64.8564 34.6936C64.5928 34.4169 64.2443 34.0444 63.9764 33.7714C63.7124 33.5027 63.3582 33.1462 63.0829 32.8891C62.8084 32.6335 62.4491 32.2845 62.1672 32.0373C61.8891 31.7934 61.5213 31.4641 61.2394 31.2244C60.9589 30.9856 60.5832 30.669 60.2923 30.4429C60.0053 30.2196 59.6258 29.918 59.335 29.6994C59.046 29.4818 58.6595 29.1928 58.3612 28.9883C58.0666 28.7861 57.6796 28.508 57.3794 28.3142C57.0806 28.1219 56.6852 27.8611 56.3835 27.6735C56.0857 27.4877 55.6842 27.2466 55.3816 27.0693C54.3403 26.4595 53.3594 25.9689 53.351 25.9646C53.0433 25.8145 52.6371 25.6053 52.3251 25.4646C51.7111 25.1874 50.8888 24.8243 50.264 24.571C49.5684 24.2891 48.5106 23.9171 48.1898 23.8168C47.8788 23.7197 47.4669 23.5803 47.1531 23.4931C46.8421 23.4063 46.4289 23.2862 46.1165 23.2041C45.8078 23.1235 45.3941 23.0221 45.0826 22.9508C43.9719 22.6961 43.0337 22.5512 43.0257 22.5498C42.7194 22.5057 42.3123 22.4363 42.005 22.402C41.3999 22.335 40.5917 22.2561 39.9847 22.213C39.6859 22.1919 39.2868 22.1788 38.9875 22.1712C38.6915 22.1642 38.2965 22.167 38.0001 22.1651C37.7074 22.1633 37.3171 22.1858 37.0239 22.1942C37.016 22.1942 36.1477 22.2285 35.1101 22.3593C32.8332 22.646 31.3017 23.1568 30.6019 23.3941C30.3453 23.4809 30.0066 23.6085 29.7547 23.7089C29.5056 23.8078 29.1792 23.9533 28.9324 24.0579C28.6862 24.1625 28.3691 24.328 28.1284 24.4448C27.6167 24.6935 27.1359 24.9904 26.4703 25.4013C26.4628 25.406 25.7287 25.861 24.8534 26.5571C24.1779 27.0942 23.7126 27.5384 23.4218 27.8259C23.2196 28.0258 22.9513 28.2941 22.766 28.5098C22.5873 28.7181 22.3429 28.9906 22.1698 29.2036C21.9939 29.4203 21.7612 29.7116 21.6027 29.9414C21.4493 30.1643 21.2396 30.4579 21.0928 30.6849C20.9422 30.9176 20.7499 31.2333 20.612 31.4734C20.1129 32.3422 19.7902 33.0936 19.7874 33.1011C19.573 33.6035 19.3023 34.2813 19.1293 34.7996C18.8431 35.6557 18.678 36.3466 18.6156 36.6065C18.5185 37.0127 18.3764 37.6699 18.2497 38.4959C18.1254 39.3103 18.0771 39.8703 18.026 40.4632L18.0265 40.4637Z" fill="#F9B233"/>
<path d="M0.10367 85.4657L0.0567627 82.0541C0.762249 72.9292 8.02022 66.4119 20.0918 59.0714L20.1387 62.483C8.06713 69.8235 0.809157 76.3408 0.10367 85.4657Z" fill="url(#paint20_linear_1_261)"/>
<path d="M1.28384 85.8907C1.93116 77.3113 8.87955 71.0285 20.2335 64.1153C39.9876 72.7651 60.3186 81.6671 78.9371 89.8196C73.4316 94.2547 67.4331 99.3048 57.3808 103.66C50.4761 106.653 43.1655 107.55 36.5994 108.034C34.5275 108.147 32.3806 108.223 30.3237 108.137C28.3203 108.011 26.2554 107.848 24.3097 107.536C22.4269 107.188 20.4901 106.804 18.7057 106.285C16.9964 105.736 15.2346 105.149 13.6608 104.443C7.41839 101.637 3.04662 97.4674 1.88473 92.5342C1.43817 90.2409 1.1253 87.934 1.28337 85.8907H1.28384Z" fill="url(#paint21_linear_1_261)"/>
<path d="M81.2336 87.3242C72.1022 83.3258 62.9721 79.3279 53.8407 75.3299C50.7936 73.9959 47.7474 72.6619 44.7003 71.3278C42.8719 70.5271 40.4341 69.46 38.6056 68.6592C37.6914 68.2591 36.4723 67.7253 35.5581 67.3247C33.7296 66.524 31.2914 65.4564 29.4629 64.6557C28.5487 64.2556 27.3296 63.7218 26.4153 63.3212C24.5869 62.5205 22.2575 61.1353 20.3207 60.6526C20.4365 60.7033 20.8226 60.4922 21.2799 60.1146L79.9648 85.8104C80.5736 86.6548 81.084 87.2589 81.2341 87.3246L81.2336 87.3242Z" fill="#F9B233"/>
<path d="M17.986 46.7488L17.9391 43.3373C17.9255 42.3597 17.9536 41.4042 18.0259 40.4726L18.0728 43.8842C18.0006 44.8158 17.9729 45.7713 17.986 46.7488Z" fill="#F9B233"/>
<path d="M81.2312 72.7299L81.2781 76.1414C81.2059 70.8705 80.4648 64.7068 76.7816 56.0065C73.9878 49.4061 69.9031 43.8274 65.7823 39.1142C60.1361 32.6391 53.0901 28.4775 46.1788 26.6678C39.2674 24.8581 32.4907 25.3999 27.3835 28.3321C21.3568 31.7924 18.5888 37.2257 18.0738 43.8847L18.0269 40.4731C18.5419 33.8141 21.3099 28.3809 27.3366 24.9205C32.4438 21.9888 39.2205 21.4465 46.1319 23.2562C53.0432 25.0659 60.0896 29.2275 65.7354 35.7026C69.8562 40.4159 73.9409 45.9946 76.7347 52.5949C80.4179 61.2953 81.159 67.4589 81.2312 72.7299Z" fill="url(#paint22_linear_1_261)"/>
<path d="M27.3826 28.3321C21.3559 31.7924 18.5879 37.2257 18.0729 43.8847C18.0006 44.8162 17.9729 45.7717 17.9861 46.7493C18.0091 48.1157 18.0808 49.0782 18.1901 50.1881C18.2023 50.3119 18.2689 50.9742 18.3904 51.8542C18.4805 52.5062 18.5349 52.8341 18.654 53.5518C18.6555 53.5588 18.7779 54.2915 18.9782 55.2784C19.147 56.1115 19.3018 56.7809 19.3605 57.0328C19.4496 57.4188 19.5983 58.0408 19.7981 58.8125C19.9159 59.2665 19.9426 59.3706 20.1044 59.9532L20.1391 62.4834C8.06752 69.8239 0.809547 76.3413 0.10406 85.4661C0.0594984 86.0431 0.0412046 86.6304 0.0491789 87.2289C0.0599675 87.7796 0.0745088 88.1427 0.132674 88.8378C0.152844 89.0757 0.201628 89.5771 0.303886 90.2596C0.41834 91.0228 0.552495 91.6537 0.567505 91.7231C0.696031 92.3202 0.780933 92.7147 0.956367 93.2894C1.31052 94.4489 1.75989 95.32 1.89592 95.5836C2.46866 96.6929 3.06579 97.4941 3.26233 97.7573C3.94155 98.6677 4.72959 99.5351 5.6654 100.395C6.3282 101.004 6.90844 101.455 7.09889 101.602C7.81328 102.157 8.35272 102.516 8.67497 102.731C9.03147 102.969 9.61781 103.344 10.3843 103.779C11.1648 104.222 11.7741 104.526 12.2179 104.741C12.5036 104.88 12.8887 105.057 13.1776 105.189C13.2508 105.223 13.3488 105.266 13.4225 105.298C13.4966 105.33 13.5956 105.372 13.6687 105.406C13.8165 105.472 14.0187 105.55 14.1664 105.616C15.2847 106.078 16.2172 106.397 16.2228 106.399C16.3035 106.422 16.4077 106.463 16.4869 106.49C16.7726 106.587 16.8406 106.61 17.0193 106.668C17.4199 106.799 17.7403 106.898 17.8289 106.924C18.1484 107.021 18.8135 107.224 19.7657 107.468C20.4318 107.639 20.9431 107.754 21.1889 107.809C21.3897 107.854 21.8466 107.952 22.0572 107.994C22.1444 108.012 22.2617 108.034 22.3489 108.052C22.3541 108.053 23.0277 108.189 23.8232 108.321C24.7037 108.469 25.412 108.562 25.9303 108.627C26.4941 108.697 27.1996 108.773 27.7724 108.822C28.0801 108.849 28.8977 108.92 29.9564 108.971C30.9152 109.018 31.706 109.027 31.8552 109.029C31.9509 109.03 32.0785 109.029 32.1737 109.032C32.1784 109.032 33.4092 109.044 34.7405 108.99C34.9778 108.98 35.6073 108.955 36.3574 108.903C36.7776 108.875 37.478 108.82 37.6825 108.803C37.9864 108.78 38.3913 108.743 38.6947 108.719C38.813 108.712 40.2661 108.575 40.7498 108.522C42.2545 108.358 42.3971 108.341 43.8949 108.137C43.9057 108.136 45.1628 107.957 46.0231 107.805C46.3444 107.749 46.7731 107.673 47.094 107.613C47.4167 107.552 47.8459 107.465 48.1682 107.401C48.4923 107.338 48.922 107.239 49.2447 107.169C49.6481 107.082 50.7147 106.825 51.4024 106.638C52.0525 106.46 52.9161 106.212 53.5583 106.008C54.8126 105.61 55.6724 105.283 55.7085 105.269C56.353 105.024 57.2091 104.687 57.8414 104.412C59.1745 103.834 59.9213 103.477 60.7862 103.064C60.9889 102.968 62.0724 102.446 63.513 101.676C64.6387 101.074 65.4887 100.577 66.0516 100.249C66.3687 100.063 67.2355 99.5496 68.4321 98.7836C69.1789 98.3051 69.3215 98.2085 70.6846 97.2821C70.7569 97.2328 72.4821 96.0583 74.9265 94.1745C75.9594 93.3785 76.7554 92.7466 76.9749 92.5717C77.2807 92.3277 77.6893 92.0036 77.9942 91.7588C78.3005 91.5125 78.7091 91.1846 79.0149 90.9379C79.7021 90.3839 80.3888 89.8295 81.076 89.275C81.068 89.2816 81.0568 89.2882 81.0469 89.2952C81.1013 89.2581 81.1323 89.2225 81.1318 89.1901C81.1318 89.1901 81.2791 87.3607 81.2782 87.2988C81.2153 86.454 81.2655 79.0478 81.2833 77.5116C81.288 77.1007 81.2796 76.5528 81.2782 76.1419C81.2059 70.8709 80.4648 64.7073 76.7816 56.0069C73.9878 49.4066 69.9031 43.8279 65.7823 39.1146C60.1361 32.6396 53.0901 28.4779 46.1788 26.6682C39.2675 24.8586 32.4908 25.4003 27.3835 28.3325L27.3826 28.3321ZM78.937 89.8191C73.4315 94.2542 67.433 99.3043 57.3808 103.659C50.476 106.652 43.1655 107.549 36.5994 108.034C34.5275 108.147 32.3805 108.223 30.3237 108.137C28.3202 108.011 26.2554 107.848 24.3097 107.536C22.4268 107.188 20.49 106.804 18.7056 106.285C16.9963 105.736 15.2345 105.149 13.6608 104.443C7.41833 101.637 3.04656 97.4674 1.88466 92.5341C1.43811 90.2408 1.12523 87.9339 1.28331 85.8906C1.93063 77.3113 8.87902 71.0285 20.2329 64.1153L78.9366 89.8196L78.937 89.8191Z" fill="url(#paint23_linear_1_261)"/>
<path d="M22.0909 63.3578C18.4772 50.1778 19.0053 38.8914 28.5242 33.2606C37.7481 27.8039 52.9925 31.2816 63.1733 43.387C66.8884 47.7925 70.5711 53.0063 73.0872 59.1708C78.9168 73.4532 76.5513 80.4077 77.1198 88.3843L22.0909 63.3578Z" fill="url(#paint24_linear_1_261)"/>
<path d="M77.1204 88.3843C70.8165 93.6201 65.3256 98.3896 56.1007 102.504C49.7026 105.358 42.977 106.197 36.9855 106.642C21.3419 107.818 6.83021 101.288 4.54957 91.2949C1.76656 79.1008 8.60284 71.81 22.0915 63.3573L77.1204 88.3838V88.3843Z" fill="url(#paint25_linear_1_261)"/>
<defs>
<linearGradient id="paint0_linear_1_261" x1="64.9477" y1="186.585" x2="152.274" y2="116.347" gradientUnits="userSpaceOnUse">
<stop stop-color="#461E18"/>
<stop offset="0.08" stop-color="#6F4A27"/>
<stop offset="0.38" stop-color="#AF9253"/>
<stop offset="0.56" stop-color="#EADABC"/>
<stop offset="0.79" stop-color="#A48560"/>
<stop offset="0.8" stop-color="#A1815C"/>
<stop offset="0.96" stop-color="#8A542E"/>
</linearGradient>
<linearGradient id="paint1_linear_1_261" x1="65.5447" y1="187.327" x2="152.871" y2="117.09" gradientUnits="userSpaceOnUse">
<stop stop-color="#FFF042"/>
<stop offset="0.09" stop-color="#FFBD24"/>
<stop offset="0.1" stop-color="#FEBF28"/>
<stop offset="0.15" stop-color="#FBD049"/>
<stop offset="0.21" stop-color="#F8DD60"/>
<stop offset="0.25" stop-color="#F7E56F"/>
<stop offset="0.29" stop-color="#F7E874"/>
<stop offset="0.48" stop-color="#FFC300"/>
<stop offset="0.63" stop-color="#F78500"/>
<stop offset="0.67" stop-color="#F7A026"/>
<stop offset="0.72" stop-color="#F7BE4F"/>
<stop offset="0.76" stop-color="#F7D068"/>
<stop offset="0.78" stop-color="#F7D772"/>
<stop offset="0.79" stop-color="#F7D66E"/>
<stop offset="0.84" stop-color="#F7CF48"/>
<stop offset="0.89" stop-color="#F7CB30"/>
<stop offset="0.92" stop-color="#F7CA28"/>
<stop offset="0.94" stop-color="#F7B715"/>
<stop offset="0.98" stop-color="#F7A605"/>
<stop offset="1" stop-color="#F7A100"/>
</linearGradient>
<linearGradient id="paint2_linear_1_261" x1="90.3267" y1="50.0854" x2="143.511" y2="50.0854" gradientUnits="userSpaceOnUse">
<stop stop-color="#DB910C"/>
<stop offset="0.34" stop-color="#FFCF6E"/>
<stop offset="0.57" stop-color="#B06600"/>
<stop offset="1" stop-color="#F7C728"/>
</linearGradient>
<linearGradient id="paint3_linear_1_261" x1="74.1123" y1="9.74549" x2="103.357" y2="9.74549" gradientUnits="userSpaceOnUse">
<stop stop-color="#DB910C"/>
<stop offset="0.34" stop-color="#FFCF6E"/>
<stop offset="0.57" stop-color="#B06600"/>
<stop offset="1" stop-color="#F7C728"/>
</linearGradient>
<linearGradient id="paint4_linear_1_261" x1="52.7426" y1="42.4324" x2="98.0832" y2="42.4324" gradientUnits="userSpaceOnUse">
<stop stop-color="#FFC300"/>
<stop offset="0.18" stop-color="#FFD03D"/>
<stop offset="0.32" stop-color="#F4DF8E"/>
<stop offset="0.39" stop-color="#F0E7B6"/>
<stop offset="0.43" stop-color="#F2E79E"/>
<stop offset="0.48" stop-color="#F4E787"/>
<stop offset="0.53" stop-color="#F6E778"/>
<stop offset="0.57" stop-color="#F7E874"/>
<stop offset="0.7" stop-color="#FFC300"/>
<stop offset="0.86" stop-color="#F9D843"/>
<stop offset="1" stop-color="#F7A100"/>
</linearGradient>
<linearGradient id="paint5_linear_1_261" x1="59.9888" y1="41.8297" x2="119.093" y2="45.9411" gradientUnits="userSpaceOnUse">
<stop stop-color="#F7A100"/>
<stop offset="0.05" stop-color="#F7A605"/>
<stop offset="0.12" stop-color="#F7B715"/>
<stop offset="0.2" stop-color="#F7D230"/>
<stop offset="0.21" stop-color="#F7D734"/>
<stop offset="0.22" stop-color="#F7D73D"/>
<stop offset="0.23" stop-color="#F7DA56"/>
<stop offset="0.24" stop-color="#F7DE7F"/>
<stop offset="0.25" stop-color="#F7DF8A"/>
<stop offset="0.27" stop-color="#F7D378"/>
<stop offset="0.31" stop-color="#F7B54A"/>
<stop offset="0.37" stop-color="#F78500"/>
<stop offset="0.52" stop-color="#FFC300"/>
<stop offset="0.71" stop-color="#F7E874"/>
<stop offset="0.72" stop-color="#F6E778"/>
<stop offset="0.74" stop-color="#F4E787"/>
<stop offset="0.76" stop-color="#F2E79E"/>
<stop offset="0.78" stop-color="#F0E7B6"/>
<stop offset="0.79" stop-color="#F4DF8E"/>
<stop offset="0.82" stop-color="#FFD03D"/>
<stop offset="0.91" stop-color="#FFBD24"/>
<stop offset="1" stop-color="#FFF042"/>
</linearGradient>
<linearGradient id="paint6_linear_1_261" x1="89.5607" y1="47.6693" x2="129.141" y2="57.8159" gradientUnits="userSpaceOnUse">
<stop stop-color="#006633"/>
<stop offset="0.16" stop-color="#009433"/>
<stop offset="0.33" stop-color="#00C034"/>
<stop offset="0.49" stop-color="#00E035"/>
<stop offset="0.61" stop-color="#00F335"/>
<stop offset="0.7" stop-color="#00FB36"/>
</linearGradient>
<linearGradient id="paint7_linear_1_261" x1="57.9826" y1="74.2083" x2="83.0191" y2="6.05098" gradientUnits="userSpaceOnUse">
<stop stop-color="#006633"/>
<stop offset="0.17" stop-color="#007033"/>
<stop offset="0.48" stop-color="#008D34"/>
<stop offset="0.88" stop-color="#00BC35"/>
<stop offset="1" stop-color="#00CC36"/>
</linearGradient>
<linearGradient id="paint8_linear_1_261" x1="78.1709" y1="154.994" x2="52.2608" y2="151.936" gradientUnits="userSpaceOnUse">
<stop stop-color="#DB910C"/>
<stop offset="0.34" stop-color="#FFCF6E"/>
<stop offset="0.57" stop-color="#B06600"/>
<stop offset="1" stop-color="#F7C728"/>
</linearGradient>
<linearGradient id="paint9_linear_1_261" x1="100.522" y1="128.268" x2="60.3511" y2="123.528" gradientUnits="userSpaceOnUse">
<stop stop-color="#FFC300"/>
<stop offset="0.18" stop-color="#FFD03D"/>
<stop offset="0.32" stop-color="#F4DF8E"/>
<stop offset="0.39" stop-color="#F0E7B6"/>
<stop offset="0.43" stop-color="#F2E79E"/>
<stop offset="0.48" stop-color="#F4E787"/>
<stop offset="0.53" stop-color="#F6E778"/>
<stop offset="0.57" stop-color="#F7E874"/>
<stop offset="0.7" stop-color="#FFC300"/>
<stop offset="0.86" stop-color="#F9D843"/>
<stop offset="1" stop-color="#F7A100"/>
</linearGradient>
<linearGradient id="paint10_linear_1_261" x1="68.0247" y1="117.558" x2="20.9035" y2="111.997" gradientUnits="userSpaceOnUse">
<stop stop-color="#DB910C"/>
<stop offset="0.34" stop-color="#FFCF6E"/>
<stop offset="0.57" stop-color="#B06600"/>
<stop offset="1" stop-color="#F7C728"/>
</linearGradient>
<linearGradient id="paint11_linear_1_261" x1="94.0388" y1="128.045" x2="42.1044" y2="118.223" gradientUnits="userSpaceOnUse">
<stop stop-color="#F7A100"/>
<stop offset="0.05" stop-color="#F7A605"/>
<stop offset="0.12" stop-color="#F7B715"/>
<stop offset="0.2" stop-color="#F7D230"/>
<stop offset="0.21" stop-color="#F7D734"/>
<stop offset="0.22" stop-color="#F7D73D"/>
<stop offset="0.23" stop-color="#F7DA56"/>
<stop offset="0.24" stop-color="#F7DE7F"/>
<stop offset="0.25" stop-color="#F7DF8A"/>
<stop offset="0.27" stop-color="#F7D378"/>
<stop offset="0.31" stop-color="#F7B54A"/>
<stop offset="0.37" stop-color="#F78500"/>
<stop offset="0.52" stop-color="#FFC300"/>
<stop offset="0.71" stop-color="#F7E874"/>
<stop offset="0.72" stop-color="#F6E778"/>
<stop offset="0.74" stop-color="#F4E787"/>
<stop offset="0.76" stop-color="#F2E79E"/>
<stop offset="0.78" stop-color="#F0E7B6"/>
<stop offset="0.79" stop-color="#F4DF8E"/>
<stop offset="0.82" stop-color="#FFD03D"/>
<stop offset="0.91" stop-color="#FFBD24"/>
<stop offset="1" stop-color="#FFF042"/>
</linearGradient>
<linearGradient id="paint12_linear_1_261" x1="68.4509" y1="119.776" x2="34.4418" y2="106.647" gradientUnits="userSpaceOnUse">
<stop stop-color="#006633"/>
<stop offset="0.16" stop-color="#009433"/>
<stop offset="0.33" stop-color="#00C034"/>
<stop offset="0.49" stop-color="#00E035"/>
<stop offset="0.61" stop-color="#00F335"/>
<stop offset="0.7" stop-color="#00FB36"/>
</linearGradient>
<linearGradient id="paint13_linear_1_261" x1="99.2022" y1="99.5638" x2="69.8933" y2="157.335" gradientUnits="userSpaceOnUse">
<stop stop-color="#006633"/>
<stop offset="0.2" stop-color="#006933"/>
<stop offset="0.4" stop-color="#007533"/>
<stop offset="0.59" stop-color="#008934"/>
<stop offset="0.79" stop-color="#00A434"/>
<stop offset="0.98" stop-color="#00C735"/>
<stop offset="1" stop-color="#00CC36"/>
</linearGradient>
<linearGradient id="paint14_linear_1_261" x1="137.882" y1="47.8668" x2="152.963" y2="71.1882" gradientUnits="userSpaceOnUse">
<stop stop-color="#DB910C"/>
<stop offset="0.34" stop-color="#FFCF6E"/>
<stop offset="0.57" stop-color="#B06600"/>
<stop offset="1" stop-color="#F7C728"/>
</linearGradient>
<linearGradient id="paint15_linear_1_261" x1="100.795" y1="47.6823" x2="124.177" y2="83.8388" gradientUnits="userSpaceOnUse">
<stop stop-color="#FFC300"/>
<stop offset="0.18" stop-color="#FFD03D"/>
<stop offset="0.32" stop-color="#F4DF8E"/>
<stop offset="0.39" stop-color="#F0E7B6"/>
<stop offset="0.43" stop-color="#F2E79E"/>
<stop offset="0.48" stop-color="#F4E787"/>
<stop offset="0.53" stop-color="#F6E778"/>
<stop offset="0.57" stop-color="#F7E874"/>
<stop offset="0.7" stop-color="#FFC300"/>
<stop offset="0.86" stop-color="#F9D843"/>
<stop offset="1" stop-color="#F7A100"/>
</linearGradient>
<linearGradient id="paint16_linear_1_261" x1="114.074" y1="81.6002" x2="141.501" y2="124.012" gradientUnits="userSpaceOnUse">
<stop stop-color="#DB910C"/>
<stop offset="0.34" stop-color="#FFCF6E"/>
<stop offset="0.57" stop-color="#B06600"/>
<stop offset="1" stop-color="#F7C728"/>
</linearGradient>
<linearGradient id="paint17_linear_1_261" x1="105.013" y1="53.15" x2="132.214" y2="102.402" gradientUnits="userSpaceOnUse">
<stop stop-color="#F7A100"/>
<stop offset="0.05" stop-color="#F7A605"/>
<stop offset="0.12" stop-color="#F7B715"/>
<stop offset="0.2" stop-color="#F7D230"/>
<stop offset="0.21" stop-color="#F7D734"/>
<stop offset="0.22" stop-color="#F7D73D"/>
<stop offset="0.23" stop-color="#F7DA56"/>
<stop offset="0.24" stop-color="#F7DE7F"/>
<stop offset="0.25" stop-color="#F7DF8A"/>
<stop offset="0.27" stop-color="#F7D378"/>
<stop offset="0.31" stop-color="#F7B54A"/>
<stop offset="0.37" stop-color="#F78500"/>
<stop offset="0.52" stop-color="#FFC300"/>
<stop offset="0.71" stop-color="#F7E874"/>
<stop offset="0.72" stop-color="#F6E778"/>
<stop offset="0.74" stop-color="#F4E787"/>
<stop offset="0.76" stop-color="#F2E79E"/>
<stop offset="0.78" stop-color="#F0E7B6"/>
<stop offset="0.79" stop-color="#F4DF8E"/>
<stop offset="0.82" stop-color="#FFD03D"/>
<stop offset="0.91" stop-color="#FFBD24"/>
<stop offset="1" stop-color="#FFF042"/>
</linearGradient>
<linearGradient id="paint18_linear_1_261" x1="115.591" y1="79.7471" x2="127.905" y2="116.545" gradientUnits="userSpaceOnUse">
<stop stop-color="#006633"/>
<stop offset="0.16" stop-color="#009433"/>
<stop offset="0.33" stop-color="#00C034"/>
<stop offset="0.49" stop-color="#00E035"/>
<stop offset="0.61" stop-color="#00F335"/>
<stop offset="0.7" stop-color="#00FB36"/>
</linearGradient>
<linearGradient id="paint19_linear_1_261" x1="78.1425" y1="68.2437" x2="145.411" y2="53.0717" gradientUnits="userSpaceOnUse">
<stop stop-color="#006633"/>
<stop offset="0.17" stop-color="#007033"/>
<stop offset="0.48" stop-color="#008D34"/>
<stop offset="0.88" stop-color="#00BC35"/>
<stop offset="1" stop-color="#00CC36"/>
</linearGradient>
<linearGradient id="paint20_linear_1_261" x1="9.0481" y1="86.1418" x2="11.1492" y2="58.392" gradientUnits="userSpaceOnUse">
<stop stop-color="#DB910C"/>
<stop offset="0.34" stop-color="#FFCF6E"/>
<stop offset="0.57" stop-color="#B06600"/>
<stop offset="1" stop-color="#F7C728"/>
</linearGradient>
<linearGradient id="paint21_linear_1_261" x1="38.529" y1="108.769" x2="41.7867" y2="65.7448" gradientUnits="userSpaceOnUse">
<stop stop-color="#FFC300"/>
<stop offset="0.18" stop-color="#FFD03D"/>
<stop offset="0.32" stop-color="#F4DF8E"/>
<stop offset="0.39" stop-color="#F0E7B6"/>
<stop offset="0.43" stop-color="#F2E79E"/>
<stop offset="0.48" stop-color="#F4E787"/>
<stop offset="0.53" stop-color="#F6E778"/>
<stop offset="0.57" stop-color="#F7E874"/>
<stop offset="0.7" stop-color="#FFC300"/>
<stop offset="0.86" stop-color="#F9D843"/>
<stop offset="1" stop-color="#F7A100"/>
</linearGradient>
<linearGradient id="paint22_linear_1_261" x1="48.4922" y1="73.6569" x2="52.3135" y2="23.1888" gradientUnits="userSpaceOnUse">
<stop stop-color="#DB910C"/>
<stop offset="0.34" stop-color="#FFCF6E"/>
<stop offset="0.57" stop-color="#B06600"/>
<stop offset="1" stop-color="#F7C728"/>
</linearGradient>
<linearGradient id="paint23_linear_1_261" x1="38.4776" y1="101.85" x2="46.6259" y2="46.0616" gradientUnits="userSpaceOnUse">
<stop stop-color="#F7A100"/>
<stop offset="0.05" stop-color="#F7A605"/>
<stop offset="0.12" stop-color="#F7B715"/>
<stop offset="0.2" stop-color="#F7D230"/>
<stop offset="0.21" stop-color="#F7D734"/>
<stop offset="0.22" stop-color="#F7D73D"/>
<stop offset="0.23" stop-color="#F7DA56"/>
<stop offset="0.24" stop-color="#F7DE7F"/>
<stop offset="0.25" stop-color="#F7DF8A"/>
<stop offset="0.27" stop-color="#F7D378"/>
<stop offset="0.31" stop-color="#F7B54A"/>
<stop offset="0.37" stop-color="#F78500"/>
<stop offset="0.52" stop-color="#FFC300"/>
<stop offset="0.71" stop-color="#F7E874"/>
<stop offset="0.72" stop-color="#F6E778"/>
<stop offset="0.74" stop-color="#F4E787"/>
<stop offset="0.76" stop-color="#F2E79E"/>
<stop offset="0.78" stop-color="#F0E7B6"/>
<stop offset="0.79" stop-color="#F4DF8E"/>
<stop offset="0.82" stop-color="#FFD03D"/>
<stop offset="0.91" stop-color="#FFBD24"/>
<stop offset="1" stop-color="#FFF042"/>
</linearGradient>
<linearGradient id="paint24_linear_1_261" x1="46.1393" y1="74.2101" x2="58.611" y2="37.3826" gradientUnits="userSpaceOnUse">
<stop stop-color="#006633"/>
<stop offset="0.16" stop-color="#009433"/>
<stop offset="0.33" stop-color="#00C034"/>
<stop offset="0.49" stop-color="#00E035"/>
<stop offset="0.61" stop-color="#00F335"/>
<stop offset="0.7" stop-color="#00FB36"/>
</linearGradient>
<linearGradient id="paint25_linear_1_261" x1="69.0523" y1="106.079" x2="6.17935" y2="77.426" gradientUnits="userSpaceOnUse">
<stop stop-color="#006633"/>
<stop offset="0.12" stop-color="#007033"/>
<stop offset="0.32" stop-color="#008D34"/>
<stop offset="0.58" stop-color="#00BC35"/>
<stop offset="0.66" stop-color="#00CC36"/>
<stop offset="0.96" stop-color="#81F468"/>
</linearGradient>
</defs>
</svg>
