<svg xmlns="http://www.w3.org/2000/svg" xmlns:xlink="http://www.w3.org/1999/xlink" width="40" zoomAndPan="magnify" viewBox="0 0 30 30.000001" height="40" preserveAspectRatio="xMidYMid meet" version="1.0"><defs><clipPath id="f57b4017ff"><path d="M 4 12 L 26 12 L 26 27.582031 L 4 27.582031 Z M 4 12 " clip-rule="nonzero"/></clipPath><clipPath id="2545aae2dc"><path d="M 0.484375 0 L 29.515625 0 L 29.515625 13 L 0.484375 13 Z M 0.484375 0 " clip-rule="nonzero"/></clipPath></defs><g clip-path="url(#f57b4017ff)"><path fill="#38b6ff" d="M 24.390625 25.585938 C 24.390625 25.953125 24.085938 26.246094 23.722656 26.246094 L 19.03125 26.246094 C 18.65625 26.246094 18.363281 25.945312 18.363281 25.585938 L 18.363281 18.714844 C 18.363281 17.617188 17.460938 16.730469 16.351562 16.730469 L 13.671875 16.730469 C 12.5625 16.730469 11.660156 17.617188 11.660156 18.714844 L 11.660156 25.585938 C 11.660156 25.953125 11.359375 26.246094 10.992188 26.246094 L 6.285156 26.246094 C 5.914062 26.246094 5.617188 25.945312 5.617188 25.585938 L 5.617188 12.34375 L 4.277344 12.34375 L 4.277344 25.585938 C 4.277344 26.679688 5.175781 27.570312 6.285156 27.570312 L 10.976562 27.570312 C 12.085938 27.570312 12.984375 26.679688 12.984375 25.585938 L 12.984375 18.714844 C 12.984375 18.347656 13.285156 18.054688 13.652344 18.054688 L 16.335938 18.054688 C 16.707031 18.054688 17.003906 18.351562 17.003906 18.714844 L 17.003906 25.585938 C 17.003906 26.679688 17.902344 27.570312 19.011719 27.570312 L 23.703125 27.570312 C 24.8125 27.570312 25.714844 26.679688 25.714844 25.585938 L 25.714844 12.34375 L 24.371094 12.34375 Z M 24.390625 25.585938 " fill-opacity="1" fill-rule="nonzero"/></g><g clip-path="url(#2545aae2dc)"><path fill="#38b6ff" d="M 16.304688 0.652344 C 15.546875 0.0117188 14.449219 0.0117188 13.6875 0.652344 L 0.484375 11.835938 L 1.355469 12.839844 L 14.566406 1.65625 C 14.820312 1.445312 15.1875 1.445312 15.433594 1.65625 L 28.644531 12.839844 L 29.515625 11.835938 Z M 16.304688 0.652344 " fill-opacity="1" fill-rule="nonzero"/></g></svg>