<svg width="916" height="283" viewBox="0 0 916 283" fill="none" xmlns="http://www.w3.org/2000/svg">
<path d="M161.344 165.741C162.592 165.681 163.733 166.535 164.156 167.811C168.605 181.218 175.904 194.094 185.22 204.877C190.151 210.543 195.574 215.722 201.556 220.005C207.513 224.305 213.823 227.937 220.349 230.723C222.001 231.367 223.613 232.092 225.268 232.674L230.155 234.292C230.21 234.311 230.266 234.327 230.322 234.341L235.245 235.622C236.907 236.045 238.597 236.28 240.256 236.626C246.933 237.768 253.567 238.116 259.988 237.73C261.586 237.576 263.191 237.52 264.763 237.306L269.354 236.615C269.413 236.606 269.47 236.595 269.528 236.582L273.999 235.589C275.52 235.284 276.955 234.729 278.43 234.325C283.42 232.739 288.137 230.677 292.535 228.209C293.773 227.514 295.327 227.922 296.134 229.198C296.134 229.198 296.087 239.608 297.906 242.825C300.081 246.669 311.082 252.838 311.082 252.838C312.119 254.477 311.443 256.663 309.731 257.268C303.102 259.608 296.189 261.313 289.093 262.335C286.995 262.576 284.951 262.95 282.822 263.058C280.701 263.187 278.592 263.333 276.477 263.427L270.065 263.391C267.928 263.343 265.761 263.123 263.622 262.985C255.022 262.206 246.394 260.463 237.978 257.767C235.88 257.032 233.777 256.4 231.711 255.569L225.627 253.054C225.575 253.032 225.523 253.009 225.472 252.984L219.531 250.088C217.548 249.072 215.621 247.904 213.68 246.817C205.991 242.254 198.856 236.793 192.429 230.736C185.969 224.692 180.454 217.847 175.768 210.765C167.119 197.553 161.495 183.355 158.851 169.217C158.522 167.455 159.68 165.823 161.343 165.743L161.344 165.741Z" fill="url(#paint0_linear_3_3)"/>
<path d="M161.109 168.181C162.357 168.12 163.498 168.974 163.921 170.25C168.37 183.657 175.669 196.533 184.985 207.317C189.916 212.982 195.339 218.161 201.321 222.444C207.278 226.744 213.589 230.376 220.114 233.162C221.767 233.806 223.378 234.531 225.033 235.113L229.92 236.731C229.975 236.75 230.031 236.766 230.087 236.781L235.01 238.061C236.672 238.484 238.362 238.719 240.022 239.065C246.698 240.207 253.333 240.555 259.754 240.17C261.351 240.015 262.957 239.959 264.528 239.745L269.119 239.054C269.178 239.045 269.235 239.034 269.293 239.022L273.764 238.028C275.285 237.723 276.72 237.168 278.195 236.764C283.185 235.179 287.902 233.116 292.3 230.648C293.538 229.953 295.092 230.361 295.899 231.637C295.899 231.637 292.827 243.402 294.646 246.618C296.821 250.463 310.847 255.276 310.847 255.276C311.884 256.915 311.208 259.102 309.496 259.706C302.867 262.047 295.954 263.751 288.858 264.773C286.76 265.014 284.716 265.388 282.587 265.496C280.466 265.626 278.357 265.771 276.242 265.865L269.831 265.83C267.694 265.782 265.527 265.561 263.387 265.424C254.787 264.644 246.159 262.901 237.743 260.205C235.645 259.47 233.542 258.838 231.476 258.007L225.392 255.492C225.34 255.47 225.288 255.447 225.238 255.422L219.297 252.526C217.313 251.51 215.386 250.343 213.446 249.255C205.757 244.692 198.621 239.232 192.194 233.175C185.735 227.131 180.219 220.286 175.533 213.203C166.885 199.991 161.26 185.793 158.616 171.656C158.287 169.893 159.445 168.262 161.108 168.181L161.109 168.181Z" fill="url(#paint1_linear_3_3)"/>
<path d="M162.533 145.958L156.352 146.511C165.903 145.656 176.981 143.465 192.256 135.588C203.845 129.614 213.402 121.438 221.385 113.316C232.354 102.185 238.934 88.8321 241.267 76.0472C243.6 63.2622 241.686 51.0448 235.666 42.184C228.562 31.7278 218.326 27.4537 206.177 27.4342L212.359 26.8804C224.508 26.8999 234.743 31.174 241.848 41.6303C247.868 50.4911 249.782 62.7085 247.449 75.4934C245.116 88.2784 238.536 101.631 227.566 112.762C219.583 120.884 210.026 129.06 198.438 135.034C183.163 142.911 172.084 145.103 162.533 145.958Z" fill="url(#paint2_linear_3_3)"/>
<path d="M131.262 0.143768C132.347 0.0463337 133.415 -0.000759333 134.467 0.000864565C134.472 0.000864565 134.478 0.000864565 134.483 0.000864565C133.005 0.00248846 132.158 0.0715041 131.261 0.144579L131.262 0.143768Z" fill="#F9B233"/>
<path d="M134.484 3.05176e-05C134.478 3.05176e-05 134.472 3.05176e-05 134.468 3.05176e-05C151.116 0.0260129 163.935 12.2954 178.908 33.1827C178.961 33.1779 178.988 33.1771 178.989 33.1795C178.327 32.2563 177.437 31.0303 176.762 30.1168C176.109 29.2326 175.223 28.065 174.563 27.1865C173.924 26.3364 173.049 25.22 172.386 24.3885C171.744 23.5831 170.882 22.5146 170.223 21.7221C169.59 20.9597 168.725 19.9602 168.083 19.2059C167.463 18.4767 166.597 17.5381 165.952 16.8309C165.326 16.1448 164.467 15.2517 163.815 14.5899C163.189 13.955 162.33 13.1341 161.692 12.5113C161.07 11.9032 160.19 11.1465 159.545 10.5627C158.263 9.40402 157.123 8.55472 155.235 7.1468C154.588 6.66532 153.699 6.05717 153.007 5.64632C151.726 4.88634 149.988 3.92255 148.662 3.24539C147.988 2.90112 147.051 2.52275 146.347 2.24669C145.685 1.98768 144.783 1.69457 144.111 1.46316C143.403 1.21958 142.432 0.981676 141.702 0.813603C141.016 0.655273 140.092 0.479892 139.396 0.373527C137.298 0.0544311 135.931 0.0284487 134.484 3.05176e-05Z" fill="#F9B233"/>
<path d="M125.081 0.696692L131.262 0.142944C132.347 0.0455097 133.414 -0.00158331 134.467 4.05899e-05L128.285 0.55379C127.233 0.552166 126.165 0.599259 125.081 0.696692V0.696692Z" fill="#F9B233"/>
<path d="M128.285 0.554591L134.467 3.05176e-05C151.115 0.0260129 163.934 12.2954 178.907 33.1827L172.726 33.7365C157.753 12.8491 144.934 0.579762 128.285 0.554591Z" fill="url(#paint3_linear_3_3)"/>
<path d="M127.677 2.75336C143.328 2.7493 155.679 14.4885 169.778 34.1327C156.804 71.1519 143.45 109.253 131.221 144.144C122.421 134.767 112.436 124.581 103.156 106.946C96.7778 94.8332 94.1463 81.6959 92.3649 69.852C91.8761 66.1089 91.4425 62.2254 91.3158 58.4831C91.2687 54.8326 91.2817 51.0635 91.5805 47.4925C91.9508 44.0296 92.3827 40.4643 93.0794 37.1564C93.8394 33.9801 94.6619 30.7047 95.7263 27.7524C99.9582 16.0441 106.921 7.54142 115.709 4.75644C119.807 3.63108 123.949 2.74687 127.677 2.75336H127.677Z" fill="url(#paint4_linear_3_3)"/>
<path d="M235.666 42.184C228.561 31.7277 218.326 27.4537 206.176 27.4342C204.477 27.4317 202.74 27.5121 200.969 27.6704C198.494 27.8994 196.758 28.1625 194.759 28.5124C194.536 28.5514 193.344 28.7633 191.764 29.1043C190.594 29.3569 190.007 29.5006 188.722 29.8156C188.709 29.8189 187.397 30.142 185.634 30.6406C184.146 31.062 182.954 31.4346 182.505 31.5751C181.817 31.7903 180.71 32.1443 179.337 32.6136C178.53 32.8896 178.344 32.9522 177.309 33.3257L172.725 33.7365C157.753 12.8491 144.934 0.579776 128.285 0.554606C127.233 0.552982 126.165 0.600075 125.081 0.697509C124.084 0.792507 123.427 0.86883 122.174 1.07019C121.745 1.13921 120.843 1.29673 119.619 1.57604C118.25 1.88864 117.124 2.2191 117 2.25564C115.935 2.57067 115.231 2.77935 114.213 3.17639C112.158 3.97778 110.64 4.91315 110.18 5.1957C108.246 6.38683 106.875 7.5804 106.425 7.97257C104.867 9.32934 103.402 10.8785 101.971 12.6932C100.957 13.9794 100.22 15.0934 99.9776 15.4595C99.0699 16.8309 98.4918 17.8589 98.1459 18.4735C97.7635 19.1531 97.1642 20.2671 96.4806 21.718C95.7847 23.1942 95.3162 24.3423 94.9866 25.1769C94.7739 25.7145 94.5059 26.4371 94.3062 26.9787C94.2558 27.1159 94.1909 27.2994 94.143 27.4374C94.0951 27.5763 94.0334 27.7614 93.9822 27.8994C93.8823 28.1771 93.7695 28.5538 93.6696 28.8315C92.9843 30.9231 92.5345 32.6591 92.5329 32.6688C92.502 32.8182 92.4411 33.0123 92.4038 33.16C92.2674 33.6919 92.2349 33.8177 92.1537 34.1506C91.971 34.8952 91.8371 35.4895 91.8005 35.6543C91.6682 36.2479 91.3929 37.482 91.0811 39.2423C90.8635 40.4741 90.7247 41.4167 90.6589 41.8698C90.6045 42.24 90.49 43.082 90.4421 43.4701C90.4226 43.6309 90.3975 43.8461 90.3755 44.0068C90.3739 44.0166 90.2221 45.2564 90.0906 46.7179C89.9444 48.3353 89.8721 49.632 89.8259 50.582C89.7755 51.614 89.7365 52.9042 89.7252 53.95C89.7187 54.5118 89.7024 56.0042 89.7552 57.9318C89.8031 59.6775 89.8941 61.1138 89.9119 61.3834C89.9233 61.5571 89.942 61.7877 89.9501 61.9615C89.9501 61.9704 90.0979 64.2041 90.3788 66.6115C90.4291 67.0402 90.5615 68.1794 90.758 69.5329C90.8676 70.2912 91.0633 71.5538 91.1209 71.9233C91.2062 72.4713 91.328 73.2005 91.4132 73.7477C91.4424 73.9613 91.8906 76.5782 92.053 77.4486C92.5572 80.1556 92.6084 80.4122 93.1833 83.1005C93.1873 83.12 93.6834 85.3756 94.0772 86.9151C94.2242 87.4899 94.419 88.2572 94.5733 88.8313C94.7276 89.4086 94.9452 90.1751 95.1051 90.7507C95.2659 91.3296 95.503 92.0953 95.6743 92.6718C95.8887 93.392 96.5009 95.2903 96.9353 96.5123C97.3461 97.6669 97.9153 99.1999 98.3732 100.337C99.2688 102.557 99.9793 104.072 100.009 104.136C100.543 105.271 101.272 106.777 101.856 107.887C103.09 110.225 103.839 111.531 104.706 113.043C104.909 113.397 106.004 115.291 107.599 117.798C108.846 119.758 109.864 121.231 110.537 122.207C110.916 122.757 111.967 124.258 113.522 126.324C114.492 127.613 114.687 127.858 116.554 130.203C116.653 130.328 119.022 133.295 122.774 137.47C124.36 139.234 125.615 140.591 125.962 140.965C126.446 141.486 127.091 142.183 127.577 142.702C128.066 143.224 128.717 143.92 129.206 144.441C130.306 145.612 131.406 146.781 132.506 147.951C132.493 147.937 132.479 147.918 132.465 147.901C132.54 147.996 132.609 148.047 132.668 148.041L136.229 147.722C136.055 147.936 136.006 148.056 136.118 148.047C137.642 147.816 139.15 147.645 140.657 147.51C143.039 147.306 144.351 147.228 148.308 147.029C150.158 146.936 152.012 146.83 153.871 146.711C154.617 146.663 155.609 146.573 156.354 146.514C165.905 145.659 176.984 143.467 192.259 135.591C203.847 129.616 213.404 121.44 221.388 113.318C232.356 102.187 238.936 88.8345 241.27 76.0496C243.602 63.2646 241.689 51.0473 235.669 42.1865L235.666 42.184ZM144.074 144.935C148.811 144.669 153.973 144.702 160.127 143.889C153.973 144.702 148.811 144.669 144.074 144.935ZM131.221 144.144C122.421 134.767 112.436 124.581 103.156 106.946C96.7778 94.8332 94.1462 81.6959 92.3648 69.852C91.876 66.1089 91.4424 62.2254 91.3158 58.4831C91.2687 54.8326 91.2817 51.0635 91.5805 47.4925C91.9507 44.0296 92.3827 40.4643 93.0793 37.1564C93.8393 33.9801 94.6618 30.7047 95.7263 27.7524C99.9582 16.0441 106.921 7.54142 115.709 4.75644C119.807 3.63108 123.949 2.74687 127.676 2.75336C143.328 2.7493 155.678 14.4885 169.778 34.1327L131.221 144.144H131.221Z" fill="url(#paint5_linear_3_3)"/>
<path d="M171.407 37.3992C194.817 29.0337 215.361 28.4402 226.884 44.9325C238.049 60.9133 233.835 89.0424 213.277 109.172C205.796 116.516 196.846 123.912 186.009 129.323C160.905 141.86 147.965 138.524 133.574 140.652L171.407 37.3992V37.3992Z" fill="url(#paint6_linear_3_3)"/>
<path d="M133.574 140.652C123.212 129.938 113.806 120.633 105.075 104.466C99.0188 93.2524 96.5748 81.1689 94.942 70.3627C90.6614 42.1491 100.51 14.9302 118.323 9.41948C140.058 2.69654 154.222 14.0939 171.407 37.3992L133.574 140.652Z" fill="url(#paint7_linear_3_3)"/>
<path d="M132.481 151.096C133.701 151.114 135.328 151.113 136.548 151.096C136.551 151.096 136.555 151.096 136.558 151.096C135.185 151.14 133.83 151.134 132.481 151.096Z" fill="#F9B233"/>
<path d="M130.925 282.794C129.954 282.767 129.002 282.697 128.07 282.586C128.065 282.586 128.06 282.586 128.056 282.585C129.365 282.738 130.123 282.765 130.925 282.794V282.794Z" fill="#F9B233"/>
<path d="M128.056 282.585C128.06 282.585 128.065 282.586 128.07 282.586C113.323 280.822 103.249 268.61 92.1675 248.54C92.1204 248.538 92.0968 248.537 92.0952 248.534C92.5848 249.422 93.2457 250.601 93.7475 251.481C94.2339 252.333 94.8964 253.46 95.3893 254.307C95.8659 255.127 96.5252 256.208 97.0254 257.014C97.5101 257.795 98.1629 258.831 98.6631 259.603C99.1446 260.345 99.8063 261.32 100.297 262.056C100.77 262.767 101.439 263.689 101.936 264.383C102.419 265.057 103.087 265.938 103.595 266.592C104.083 267.22 104.758 268.036 105.258 268.656C105.745 269.26 106.446 270.022 106.957 270.607C107.972 271.767 108.893 272.639 110.418 274.085C110.941 274.579 111.665 275.21 112.236 275.648C113.29 276.455 114.73 277.491 115.834 278.23C116.395 278.605 117.185 279.038 117.78 279.357C118.34 279.655 119.109 280.009 119.68 280.285C120.281 280.575 121.118 280.887 121.746 281.112C122.337 281.324 123.137 281.576 123.743 281.743C125.568 282.245 126.777 282.411 128.056 282.587V282.585Z" fill="#F9B233"/>
<path d="M92.096 248.533C107.892 216.215 119.574 181.891 139.481 151.581C139.52 151.502 139.564 151.459 139.615 151.461L92.1675 248.539C92.1172 248.538 92.0944 248.536 92.0952 248.533L92.096 248.533Z" fill="#F9B233"/>
<path d="M66.5116 250.96C64.9258 250.916 63.3782 250.805 61.8729 250.625C61.868 250.625 61.8631 250.625 61.8583 250.624C62.1287 250.654 62.4892 250.697 62.7604 250.723C63.1314 250.759 63.6267 250.804 63.9994 250.832C64.7521 250.886 65.7573 250.931 66.5116 250.96V250.96Z" fill="#F9B233"/>
<path d="M138.015 151.252L132.481 151.096C133.83 151.135 135.185 151.14 136.558 151.096L142.093 151.252C140.719 151.297 139.364 151.291 138.015 151.252Z" fill="#F9B233"/>
<path d="M136.459 282.95L130.925 282.794C129.954 282.767 129.002 282.697 128.07 282.586L133.604 282.742C134.536 282.853 135.487 282.923 136.459 282.95Z" fill="#F9B233"/>
<path d="M61.8582 250.624C61.863 250.624 61.8679 250.625 61.8728 250.625C51.1112 249.337 42.4899 244.48 37.2894 234.473C32.883 225.993 32.4648 214.968 35.8685 203.885C39.2722 192.802 46.4985 181.661 57.3811 172.946C65.3033 166.585 74.6261 160.341 85.5175 156.26C99.8744 150.879 109.918 150.096 118.47 150.337C117.514 150.315 116.239 150.298 115.283 150.301C114.554 150.303 113.584 150.328 112.857 150.353C112.096 150.38 111.083 150.435 110.323 150.49C109.544 150.546 108.506 150.648 107.728 150.72C106.897 150.798 105.794 150.948 104.968 151.068C104.113 151.192 102.978 151.394 102.125 151.534C101.225 151.683 100.036 151.951 99.142 152.138C98.1791 152.34 96.9067 152.659 95.9551 152.909C94.9597 153.169 93.6435 153.557 92.6537 153.835C91.5852 154.136 90.1822 154.612 89.1283 154.96C88.0191 155.327 86.5576 155.867 85.4607 156.269C84.9687 156.449 84.3207 156.709 83.8319 156.899C83.3293 157.094 82.3704 157.486 80.654 158.249C80.1838 158.458 79.5603 158.743 79.0975 158.967C78.1832 159.412 76.9661 160.008 76.064 160.477C74.1592 161.467 72.7237 162.305 71.6754 162.916C71.2467 163.166 70.6784 163.506 70.257 163.768C69.4239 164.287 68.3148 164.983 67.4923 165.52C66.5366 166.144 64.9184 167.235 63.5064 168.251C63.1199 168.53 62.6035 168.899 62.2211 169.183C60.7799 170.254 60.4803 170.476 59.7162 171.067C56.9564 173.202 55.8749 174.135 55.6865 174.3C55.2197 174.71 54.592 175.249 54.1317 175.664C53.6778 176.074 53.0753 176.624 52.6401 177.054C52.2065 177.482 51.6171 178.04 51.1965 178.481C50.7824 178.915 50.2229 179.489 49.8153 179.93C49.4094 180.369 48.8702 180.957 48.4837 181.413C48.1029 181.864 47.5874 182.459 47.213 182.914C46.8404 183.368 46.3459 183.975 45.9935 184.445C45.6452 184.908 45.1686 185.517 44.834 185.991C44.5019 186.462 44.0521 187.085 43.7273 187.562C43.4058 188.032 42.9877 188.667 42.6799 189.146C41.6203 190.793 40.7581 192.35 40.7507 192.364C40.4861 192.852 40.1199 193.496 39.8698 193.992C39.3786 194.969 38.7339 196.278 38.2808 197.274C37.7766 198.383 37.1019 200.072 36.9175 200.585C36.7389 201.083 36.4856 201.742 36.3224 202.244C36.1608 202.743 35.9375 203.405 35.7832 203.906C35.6314 204.401 35.439 205.065 35.3026 205.564C34.8138 207.348 34.515 208.859 34.5125 208.872C34.42 209.366 34.2803 210.021 34.204 210.517C34.0546 211.494 33.8711 212.799 33.7599 213.78C33.7055 214.264 33.6568 214.91 33.6251 215.395C33.5934 215.874 33.5715 216.515 33.548 216.995C33.5252 217.47 33.535 218.104 33.5293 218.579C33.5293 218.592 33.5252 220.002 33.6665 221.694C33.9767 225.405 34.7009 227.922 35.0379 229.074C35.1613 229.496 35.3448 230.053 35.4901 230.468C35.6338 230.879 35.8474 231.418 36 231.826C36.1527 232.233 36.3995 232.757 36.5725 233.156C36.9411 234.003 37.3893 234.803 38.0104 235.91C38.0169 235.922 38.7054 237.144 39.774 238.611C40.5989 239.743 41.2874 240.527 41.734 241.018C42.0442 241.359 42.4615 241.812 42.7985 242.127C43.1233 242.432 43.5495 242.846 43.8824 243.141C44.2218 243.441 44.6781 243.838 45.0403 244.11C45.391 244.374 45.853 244.734 46.2111 244.988C46.5781 245.248 47.0766 245.581 47.4566 245.821C48.8313 246.69 50.0281 247.263 50.0403 247.268C50.8408 247.651 51.9207 248.135 52.7497 248.451C54.1179 248.973 55.227 249.288 55.6451 249.406C56.2971 249.591 57.3527 249.867 58.6843 250.128C59.9964 250.386 60.9009 250.502 61.859 250.625L61.8582 250.624Z" fill="#F9B233"/>
<path d="M133.605 282.742L128.071 282.586C113.324 280.822 103.25 268.611 92.1682 248.54L97.7025 248.696C108.784 268.767 118.858 280.978 133.605 282.742Z" fill="url(#paint8_linear_3_3)"/>
<path d="M134.374 280.857C120.508 279.224 110.793 267.532 100.355 248.653C115.722 217.212 131.537 184.852 146.021 155.219C152.837 164.446 160.618 174.515 166.996 191.11C171.38 202.508 172.337 214.423 172.677 225.102C172.719 228.469 172.697 231.955 172.417 235.284C172.077 238.524 171.671 241.861 171.033 244.994C170.343 248.024 169.587 251.137 168.624 253.995C167.619 256.73 166.547 259.546 165.295 262.05C160.321 271.98 153.263 278.786 145.185 280.334C141.437 280.903 137.676 281.253 134.373 280.857H134.374Z" fill="url(#paint9_linear_3_3)"/>
<path d="M142.132 151.325C135.029 165.859 127.926 180.391 120.823 194.925C118.453 199.775 116.083 204.624 113.713 209.474C112.29 212.384 110.394 216.264 108.972 219.174C108.26 220.629 107.312 222.57 106.601 224.025C105.178 226.935 103.281 230.816 101.859 233.726C101.148 235.181 100.199 237.122 99.4881 238.577C98.0655 241.487 95.6614 245.17 94.7471 248.277C94.8372 248.093 94.5214 247.452 93.9392 246.685L139.59 153.28C141.001 152.351 142.015 151.564 142.132 151.325V151.325Z" fill="#F9B233"/>
<path d="M72.0458 251.116L66.5115 250.96C64.9258 250.916 63.3782 250.805 61.8728 250.625L67.4071 250.781C68.9124 250.961 70.46 251.072 72.0458 251.116Z" fill="#F9B233"/>
<path d="M118.469 150.337L124.003 150.493C115.452 150.252 105.408 151.035 91.051 156.415C80.1595 160.497 70.8367 166.741 62.9145 173.102C52.032 181.816 44.8064 192.958 41.4019 204.041C37.9982 215.124 38.4164 226.149 42.8228 234.629C48.0234 244.636 56.6446 249.493 67.4062 250.781L61.872 250.625C51.1104 249.337 42.4891 244.48 37.2886 234.473C32.8821 225.993 32.464 214.968 35.8677 203.885C39.2714 192.802 46.4977 181.661 57.3803 172.946C65.3024 166.585 74.6252 160.341 85.5167 156.26C99.8736 150.879 109.917 150.096 118.469 150.337V150.337Z" fill="url(#paint10_linear_3_3)"/>
<path d="M42.8237 234.63C48.0243 244.637 56.6455 249.494 67.4071 250.782C68.9124 250.962 70.46 251.072 72.0458 251.117C74.2624 251.173 75.8278 251.121 77.6352 251.02C77.8366 251.009 78.9157 250.946 80.3504 250.809C81.414 250.708 81.9483 250.642 83.1207 250.498C83.1321 250.496 84.3289 250.347 85.9423 250.089C87.3047 249.872 88.4 249.666 88.8125 249.589C89.4442 249.47 90.4624 249.272 91.7282 249C92.4719 248.84 92.6425 248.804 93.5989 248.581L97.7033 248.697C108.785 268.769 118.859 280.98 133.606 282.743C134.538 282.855 135.489 282.924 136.461 282.952C137.354 282.972 137.944 282.973 139.075 282.926C139.462 282.91 140.278 282.864 141.392 282.745C142.637 282.612 143.669 282.436 143.783 282.417C144.76 282.249 145.405 282.138 146.349 281.892C148.253 281.397 149.696 280.727 150.132 280.525C151.97 279.672 153.31 278.757 153.75 278.457C155.272 277.418 156.732 276.199 158.189 274.74C159.222 273.706 159.992 272.797 160.244 272.497C161.192 271.377 161.812 270.527 162.183 270.018C162.593 269.457 163.24 268.532 163.997 267.318C164.769 266.083 165.303 265.115 165.683 264.41C165.927 263.956 166.241 263.344 166.475 262.885C166.534 262.769 166.61 262.613 166.667 262.496C166.724 262.378 166.799 262.22 166.858 262.104C166.976 261.868 167.114 261.546 167.232 261.31C168.058 259.529 168.638 258.038 168.641 258.029C168.684 257.9 168.758 257.734 168.806 257.607C168.983 257.151 169.025 257.042 169.131 256.756C169.371 256.115 169.552 255.603 169.601 255.461C169.781 254.949 170.154 253.884 170.614 252.358C170.935 251.289 171.157 250.468 171.263 250.074C171.35 249.751 171.54 249.017 171.623 248.679C171.657 248.538 171.702 248.35 171.738 248.21C171.74 248.202 172.004 247.119 172.274 245.839C172.572 244.421 172.772 243.279 172.913 242.443C173.065 241.534 173.235 240.394 173.354 239.47C173.418 238.973 173.589 237.652 173.744 235.939C173.884 234.387 173.953 233.105 173.966 232.864C173.974 232.709 173.982 232.502 173.992 232.347C173.993 232.339 174.096 230.345 174.099 228.183C174.099 227.798 174.1 226.775 174.068 225.555C174.05 224.872 174.009 223.732 173.996 223.4C173.979 222.905 173.946 222.247 173.928 221.752C173.925 221.56 173.802 219.195 173.749 218.407C173.585 215.956 173.566 215.723 173.338 213.281C173.336 213.263 173.133 211.213 172.945 209.808C172.874 209.283 172.782 208.583 172.706 208.059C172.63 207.532 172.517 206.83 172.436 206.303C172.354 205.773 172.224 205.07 172.132 204.542C172.018 203.882 171.673 202.135 171.417 201.008C171.174 199.942 170.83 198.524 170.542 197.469C169.981 195.408 169.51 193.992 169.49 193.932C169.136 192.871 168.648 191.46 168.245 190.416C167.397 188.215 166.87 186.98 166.259 185.55C166.116 185.214 165.344 183.422 164.193 181.035C163.293 179.169 162.546 177.756 162.051 176.821C161.773 176.294 160.999 174.855 159.838 172.862C159.113 171.618 158.966 171.381 157.556 169.108C157.481 168.988 155.694 166.111 152.806 162.02C151.586 160.291 150.616 158.958 150.347 158.59C149.973 158.078 149.475 157.393 149.098 156.882C148.72 156.369 148.215 155.684 147.837 155.172C146.985 154.019 146.133 152.868 145.281 151.717C145.291 151.731 145.301 151.748 145.312 151.765C145.256 151.674 145.2 151.621 145.147 151.619L141.959 151.529C142.135 151.357 142.191 151.256 142.09 151.253C140.716 151.298 139.362 151.292 138.013 151.253C135.881 151.185 134.71 151.116 131.184 150.879C129.536 150.768 127.882 150.668 126.222 150.579C125.556 150.543 124.667 150.52 124.002 150.495C115.45 150.254 105.406 151.036 91.0494 156.417C80.1579 160.499 70.8351 166.743 62.913 173.103C52.0304 181.818 44.8049 192.96 41.4004 204.043C37.9967 215.126 38.4148 226.15 42.8213 234.63L42.8237 234.63ZM134.718 153.174C130.492 152.914 125.923 152.345 120.385 152.422C125.922 152.345 130.492 152.914 134.718 153.174ZM146.022 155.219C152.838 164.446 160.619 174.515 166.997 191.11C171.38 202.508 172.338 214.423 172.678 225.102C172.719 228.469 172.697 231.956 172.418 235.284C172.078 238.524 171.672 241.861 171.034 244.994C170.343 248.024 169.588 251.137 168.625 253.995C167.619 256.73 166.548 259.546 165.296 262.05C160.322 271.98 153.264 278.786 145.186 280.334C141.437 280.903 137.676 281.253 134.373 280.857C120.507 279.224 110.792 267.532 100.354 248.653L146.02 155.219H146.022Z" fill="url(#paint11_linear_3_3)"/>
<path d="M99.2542 245.589C77.6385 250.553 59.3754 248.93 50.8921 233.113C42.6719 217.787 49.3462 193.306 69.6652 177.621C77.0604 171.897 85.7645 166.28 95.9309 162.62C119.484 154.138 130.599 158.446 143.571 158.066L99.2542 245.588V245.589Z" fill="url(#paint12_linear_3_3)"/>
<path d="M143.571 158.067C151.632 168.643 158.992 177.871 165.037 193.107C169.23 203.676 170.132 214.637 170.447 224.382C171.289 249.826 159.717 272.911 143.359 275.93C123.399 279.614 112.042 268.035 99.2542 245.589L143.571 158.067V158.067Z" fill="url(#paint13_linear_3_3)"/>
<path d="M144.479 164.742C143.666 163.729 142.561 162.395 141.717 161.407C141.715 161.404 141.713 161.402 141.71 161.399C142.68 162.495 143.594 163.61 144.479 164.743V164.742Z" fill="#F9B233"/>
<path d="M253.533 76.6155C254.17 77.4307 254.759 78.2581 255.3 79.0984C255.303 79.1025 255.307 79.1066 255.309 79.1114C254.546 77.9341 254.054 77.2935 253.533 76.6163V76.6155Z" fill="#F9B233"/>
<path d="M255.309 79.1106C255.307 79.1066 255.303 79.1017 255.3 79.0976C263.865 92.3884 260.689 108.938 251.753 131.651C251.784 131.691 251.798 131.711 251.797 131.714C252.192 130.71 252.711 129.369 253.092 128.359C253.46 127.383 253.934 126.074 254.295 125.095C254.644 124.146 255.083 122.873 255.404 121.915C255.715 120.988 256.123 119.749 256.415 118.815C256.697 117.917 257.047 116.712 257.318 115.81C257.579 114.939 257.881 113.765 258.113 112.886C258.337 112.033 258.607 110.888 258.798 110.026C258.982 109.2 259.193 108.092 259.362 107.262C259.526 106.452 259.676 105.359 259.808 104.544C260.071 102.924 260.16 101.577 260.31 99.3452C260.361 98.5811 260.387 97.5589 260.358 96.794C260.303 95.3804 260.176 93.4975 260.032 92.0904C259.959 91.3759 259.778 90.4332 259.635 89.7293C259.5 89.0675 259.269 88.1971 259.107 87.5419C258.936 86.8517 258.624 85.9545 258.383 85.2855C258.156 84.6562 257.82 83.8297 257.544 83.2199C256.717 81.3833 256.033 80.279 255.309 79.1098V79.1106Z" fill="#F9B233"/>
<path d="M251.797 131.714C214.571 140.7 178.494 154.42 140.125 158.671C140.033 158.693 139.968 158.685 139.935 158.643L251.752 131.65C251.785 131.692 251.799 131.713 251.796 131.714L251.797 131.714Z" fill="#F9B233"/>
<path d="M271.154 151.048C272.194 152.379 273.154 153.723 274.029 155.08C274.032 155.084 274.035 155.088 274.038 155.093C273.878 154.851 273.669 154.526 273.507 154.286C273.284 153.957 272.985 153.52 272.755 153.196C272.289 152.542 271.642 151.687 271.154 151.048Z" fill="#F9B233"/>
<path d="M140.85 160.098L144.479 164.742C143.594 163.609 142.68 162.494 141.71 161.398L138.082 156.754C139.051 157.85 139.965 158.965 140.85 160.098Z" fill="#F9B233"/>
<path d="M249.905 71.9712L253.533 76.6155C254.17 77.4307 254.759 78.2581 255.3 79.0984L251.672 74.4541C251.13 73.6137 250.542 72.7864 249.905 71.9712Z" fill="#F9B233"/>
<path d="M274.037 155.092C274.035 155.088 274.032 155.083 274.029 155.079C280.278 164.778 282.147 175.145 277.472 186.203C273.51 195.573 264.753 203.4 253.353 208.132C241.953 212.865 227.911 214.502 213.378 211.494C202.784 209.315 191.336 205.909 180.595 199.748C166.437 191.628 158.976 183.923 153.37 176.747C154 177.546 154.852 178.603 155.504 179.385C156 179.98 156.678 180.759 157.193 181.338C157.732 181.943 158.465 182.737 159.025 183.323C159.6 183.924 160.388 184.705 160.976 185.294C161.604 185.923 162.476 186.726 163.135 187.322C163.817 187.939 164.752 188.733 165.447 189.337C166.181 189.974 167.208 190.766 167.968 191.372C168.786 192.025 169.912 192.851 170.762 193.462C171.652 194.101 172.863 194.918 173.763 195.54C174.736 196.211 176.078 197.04 177.079 197.667C178.133 198.328 179.568 199.16 180.642 199.787C181.124 200.068 181.778 200.423 182.265 200.694C182.766 200.974 183.739 201.494 185.529 202.384C186.02 202.627 186.677 202.946 187.175 203.172C188.16 203.621 189.475 204.214 190.472 204.635C192.576 205.525 194.238 206.134 195.451 206.579C195.947 206.761 196.612 206.996 197.113 207.164C198.105 207.495 199.428 207.932 200.426 208.242C201.587 208.602 203.579 209.189 205.373 209.656C205.863 209.785 206.517 209.958 207.009 210.078C208.865 210.533 209.251 210.628 210.254 210.852C213.879 211.667 215.377 211.92 215.641 211.962C216.292 212.068 217.161 212.217 217.815 212.312C218.459 212.405 219.319 212.526 219.967 212.592C220.611 212.657 221.47 212.761 222.117 212.807C222.754 212.851 223.604 212.921 224.242 212.955C224.878 212.99 225.726 213.034 226.361 213.041C226.99 213.047 227.827 213.066 228.455 213.063C229.081 213.061 229.914 213.054 230.538 213.024C231.154 212.995 231.978 212.973 232.593 212.925C233.205 212.878 234.021 212.823 234.633 212.767C235.237 212.711 236.041 212.623 236.642 212.551C238.712 212.302 240.575 211.953 240.591 211.949C241.171 211.835 241.948 211.698 242.525 211.565C243.66 211.305 245.17 210.945 246.294 210.641C247.546 210.301 249.389 209.708 249.936 209.51C250.465 209.32 251.177 209.08 251.7 208.872C252.218 208.667 252.913 208.4 253.428 208.186C253.937 207.975 254.612 207.682 255.115 207.454C256.909 206.644 258.351 205.864 258.364 205.857C258.832 205.598 259.465 205.267 259.923 204.993C260.825 204.453 262.02 203.717 262.901 203.141C263.334 202.859 263.897 202.459 264.316 202.157C264.731 201.857 265.271 201.44 265.681 201.133C266.086 200.83 266.599 200.391 266.993 200.073C267.004 200.064 268.162 199.11 269.453 197.846C272.286 195.072 273.859 192.77 274.574 191.712C274.836 191.323 275.169 190.795 275.41 190.394C275.65 189.998 275.947 189.456 276.177 189.054C276.407 188.653 276.67 188.094 276.878 187.682C277.323 186.805 277.674 185.894 278.161 184.634C278.166 184.62 278.7 183.227 279.177 181.354C279.545 179.909 279.72 178.812 279.821 178.113C279.891 177.627 279.978 176.977 280.009 176.488C280.037 176.014 280.088 175.384 280.104 174.911C280.119 174.428 280.135 173.785 280.113 173.303C280.091 172.836 280.073 172.213 280.038 171.747C280.002 171.27 279.936 170.635 279.875 170.16C279.655 168.443 279.313 167.072 279.309 167.058C279.08 166.143 278.744 164.928 278.44 164.034C277.939 162.558 277.444 161.434 277.258 161.011C276.968 160.351 276.477 159.298 275.787 158.03C275.108 156.779 274.589 155.958 274.04 155.089L274.037 155.092Z" fill="#F9B233"/>
<path d="M251.671 74.4541L255.299 79.0984C263.864 92.3892 260.688 108.939 251.752 131.652L248.123 127.007C257.06 104.295 260.235 87.7449 251.671 74.4541Z" fill="url(#paint14_linear_3_3)"/>
<path d="M249.604 75.102C257.678 87.5817 254.684 103.485 246.288 124.86C210.073 133.602 172.801 142.599 138.668 150.839C141.608 138.985 144.583 125.769 153.862 109.274C160.233 97.9413 169.354 89.0684 177.88 81.54C180.613 79.2202 183.487 76.8713 186.406 74.8406C189.294 72.9203 192.306 70.9879 195.309 69.3843C198.262 67.8944 201.327 66.3996 204.325 65.2499C207.25 64.2179 210.287 63.1851 213.19 62.512C224.71 59.8496 235.082 61.018 241.835 66.5904C244.845 69.2779 247.686 72.1254 249.604 75.102V75.102Z" fill="url(#paint15_linear_3_3)"/>
<path d="M138.116 156.672C154.856 152.631 171.594 148.591 188.335 144.55C193.921 143.201 199.505 141.853 205.092 140.504C208.443 139.695 212.913 138.617 216.265 137.807C217.941 137.403 220.176 136.863 221.852 136.459C225.204 135.649 229.673 134.571 233.026 133.761C234.702 133.357 236.937 132.817 238.613 132.413C241.965 131.603 246.617 131.075 249.786 129.715C249.573 129.766 249.263 130.461 249.029 131.458L141.444 157.428C139.724 156.903 138.39 156.605 138.116 156.671V156.672Z" fill="#F9B233"/>
<path d="M267.525 146.404L271.153 151.048C272.194 152.379 273.153 153.723 274.028 155.08L270.399 150.435C269.525 149.079 268.565 147.735 267.525 146.404Z" fill="#F9B233"/>
<path d="M153.368 176.747L149.739 172.102C155.347 179.278 162.807 186.984 176.965 195.104C187.705 201.265 199.154 204.671 209.748 206.85C224.281 209.858 238.324 208.22 249.723 203.488C261.123 198.756 269.879 190.929 273.842 181.559C278.517 170.501 276.648 160.134 270.398 150.435L274.027 155.079C280.276 164.778 282.146 175.145 277.47 186.203C273.508 195.573 264.751 203.4 253.351 208.133C241.952 212.865 227.91 214.502 213.377 211.494C202.782 209.316 191.334 205.909 180.594 199.748C166.436 191.628 158.975 183.923 153.368 176.747V176.747Z" fill="url(#paint16_linear_3_3)"/>
<path d="M273.843 181.559C278.518 170.501 276.649 160.134 270.399 150.435C269.525 149.078 268.565 147.734 267.525 146.403C266.066 144.547 264.961 143.298 263.651 141.886C263.505 141.728 262.721 140.886 261.635 139.803C260.83 139 260.413 138.606 259.499 137.743C259.49 137.734 258.555 136.855 257.249 135.706C256.145 134.736 255.234 133.977 254.89 133.691C254.364 133.254 253.51 132.553 252.428 131.701C251.792 131.199 251.646 131.084 250.815 130.451L248.123 127.007C257.06 104.294 260.235 87.7441 251.671 74.4533C251.129 73.6129 250.541 72.7855 249.904 71.9703C249.314 71.2242 248.915 70.7402 248.108 69.8447C247.832 69.5385 247.241 68.8995 246.387 68.0673C245.432 67.1368 244.587 66.4093 244.495 66.3297C243.694 65.6428 243.165 65.1889 242.323 64.5816C240.624 63.3564 239.095 62.6272 238.632 62.4072C236.685 61.4791 235.027 61.0017 234.482 60.845C232.596 60.3018 230.606 59.9324 228.42 59.727C226.871 59.5816 225.602 59.5678 225.186 59.5638C223.624 59.5475 222.506 59.6157 221.837 59.6571C221.098 59.7026 219.901 59.7992 218.391 60.0022C216.854 60.2084 215.697 60.4269 214.862 60.5941C214.324 60.7021 213.609 60.8604 213.074 60.9806C212.938 61.0107 212.759 61.0537 212.624 61.087C212.489 61.1203 212.309 61.1665 212.173 61.1966C211.901 61.2599 211.542 61.3647 211.269 61.428C209.247 61.9598 207.631 62.4965 207.623 62.4998C207.488 62.5517 207.301 62.6037 207.164 62.65C206.669 62.8156 206.552 62.8546 206.245 62.961C205.558 63.1989 205.015 63.3986 204.864 63.4546C204.323 63.6552 203.197 64.0717 201.632 64.731C200.537 65.1922 199.714 65.5681 199.318 65.7492C198.995 65.897 198.264 66.2396 197.929 66.4012C197.791 66.4686 197.606 66.5595 197.467 66.6253C197.459 66.6293 196.391 67.1474 195.157 67.7961C193.793 68.5131 192.721 69.1245 191.939 69.5775C191.09 70.0696 190.041 70.7037 189.201 71.2339C188.75 71.5189 187.551 72.2748 186.041 73.3109C184.674 74.2495 183.575 75.0622 183.369 75.2157C183.236 75.3139 183.061 75.4479 182.927 75.5445C182.92 75.5494 181.215 76.8185 179.44 78.284C179.124 78.5447 178.284 79.2381 177.306 80.0931C176.758 80.5721 175.852 81.3792 175.587 81.6155C175.194 81.9662 174.675 82.4388 174.282 82.7896C174.127 82.9227 172.271 84.6294 171.66 85.2075C169.762 87.0052 169.584 87.1789 167.736 89.0237C167.723 89.0375 166.18 90.5956 165.155 91.7039C164.773 92.118 164.261 92.6693 163.883 93.0875C163.502 93.5081 163.003 94.0773 162.626 94.5011C162.247 94.9282 161.759 95.512 161.388 95.9456C160.924 96.4879 159.726 97.9551 158.975 98.9319C158.265 99.8551 157.337 101.099 156.666 102.051C155.357 103.91 154.515 105.258 154.48 105.314C153.85 106.325 153.025 107.683 152.442 108.722C151.212 110.911 150.558 112.182 149.8 113.653C149.622 113.998 148.676 115.848 147.499 118.413C146.579 120.418 145.929 121.99 145.499 123.03C145.256 123.616 144.601 125.228 143.755 127.533C143.227 128.972 143.132 129.253 142.225 131.952C142.177 132.095 141.031 135.514 139.636 140.66C139.047 142.833 138.613 144.535 138.493 145.004C138.327 145.66 138.104 146.532 137.94 147.188C137.776 147.846 137.557 148.725 137.393 149.383C137.026 150.863 136.661 152.344 136.294 153.824C136.299 153.807 136.307 153.786 136.313 153.767C136.277 153.875 136.272 153.956 136.306 154.001L138.397 156.676C138.136 156.648 138.015 156.671 138.081 156.756C139.05 157.852 139.964 158.967 140.849 160.099C142.24 161.894 142.979 162.9 145.178 165.953C146.206 167.38 147.247 168.804 148.301 170.226C148.724 170.796 149.308 171.541 149.739 172.105C155.346 179.281 162.806 186.986 176.964 195.106C187.705 201.267 199.153 204.674 209.747 206.852C224.28 209.86 238.323 208.223 249.722 203.491C261.122 198.759 269.878 190.931 273.841 181.561L273.843 181.559ZM138.669 150.839C141.609 138.985 144.584 125.769 153.863 109.274C160.234 97.9413 169.355 89.0683 177.881 81.54C180.614 79.2202 183.487 76.8713 186.407 74.8406C189.294 72.9203 192.307 70.9879 195.309 69.3843C198.262 67.8943 201.328 66.3996 204.326 65.2498C207.251 64.2178 210.287 63.1851 213.191 62.5119C224.711 59.8496 235.083 61.018 241.836 66.5904C244.846 69.2779 247.686 72.1254 249.604 75.102C257.678 87.5817 254.685 103.485 246.288 124.86L138.669 150.839V150.839Z" fill="url(#paint17_linear_3_3)"/>
<path d="M244.522 127.844C263.266 142.201 274.333 158.279 267.121 175.972C260.133 193.117 235.527 204.262 208.872 198.246C199.158 196.068 188.643 192.743 178.74 186.891C155.796 173.334 151.784 161.294 142.666 150.914L244.522 127.843V127.844Z" fill="url(#paint18_linear_3_3)"/>
<path d="M142.667 150.915C145.868 137.125 148.439 124.826 156.829 109.526C162.649 98.914 171.026 90.7329 178.803 83.8589C199.097 65.8962 225.883 59.7148 239.463 71.0796C256.033 84.9469 254.247 102.12 244.522 127.844L142.666 150.915H142.667Z" fill="url(#paint19_linear_3_3)"/>
<path d="M140.426 140.859C140.461 142.16 140.534 143.894 140.608 145.193C140.608 145.198 140.608 145.201 140.608 145.205C140.5 143.743 140.445 142.3 140.426 140.859V140.859Z" fill="#F9B233"/>
<path d="M0.00309691 145.084C-0.0107062 144.048 0.0209596 143.03 0.0980947 142.033C0.0980947 142.027 0.0980947 142.022 0.0980947 142.017C-0.00583467 143.419 -0.00177478 144.228 0.00309691 145.085V145.084Z" fill="#F9B233"/>
<path d="M0.0989075 142.017C0.0989075 142.022 0.0989075 142.028 0.0989075 142.033C1.32008 126.238 13.8834 114.957 34.7789 102.25C34.7789 102.2 34.7789 102.175 34.7813 102.173C33.8573 102.735 32.6304 103.492 31.7154 104.066C30.8295 104.622 29.6579 105.379 28.7769 105.941C27.9244 106.486 26.8023 107.236 25.9652 107.806C25.1548 108.358 24.079 109.1 23.28 109.667C22.5111 110.212 21.5003 110.962 20.7386 111.517C20.0022 112.054 19.0498 112.807 18.332 113.368C17.6362 113.913 16.7268 114.663 16.0521 115.235C15.405 115.783 14.5646 116.54 13.9272 117.099C13.3053 117.646 12.5242 118.427 11.9241 118.998C10.733 120.13 9.84473 121.151 8.37266 122.841C7.86926 123.419 7.22863 124.22 6.78855 124.848C5.97498 126.008 4.93569 127.588 4.19762 128.798C3.8225 129.412 3.39623 130.274 3.08363 130.923C2.79052 131.532 2.44706 132.367 2.17912 132.988C1.89737 133.642 1.60182 134.547 1.38909 135.227C1.18935 135.867 0.956325 136.731 0.806115 137.383C0.353047 139.351 0.229631 140.646 0.0989075 142.017Z" fill="#F9B233"/>
<path d="M34.7812 102.173C69.9297 117.563 107.031 128.48 140.221 148.341C140.308 148.38 140.354 148.425 140.355 148.479L34.778 102.25C34.778 102.197 34.778 102.172 34.7812 102.173Z" fill="#F9B233"/>
<path d="M31.0528 75.0151C31.0293 73.323 31.078 71.6691 31.203 70.0566C31.203 70.0509 31.203 70.046 31.203 70.0411C31.1836 70.331 31.1535 70.7167 31.1381 71.0074C31.1162 71.4044 31.0902 71.9346 31.078 72.3325C31.0537 73.1371 31.0512 74.2105 31.0528 75.0159V75.0151Z" fill="#F9B233"/>
<path d="M140.507 146.764L140.426 140.859C140.445 142.299 140.5 143.742 140.608 145.204L140.69 151.109C140.581 149.647 140.526 148.204 140.507 146.764Z" fill="#F9B233"/>
<path d="M0.0842918 150.989L0.00309691 145.084C-0.0107062 144.048 0.0209596 143.03 0.0980947 142.033L0.17929 147.938C0.102154 148.937 0.0704886 149.953 0.0842918 150.989Z" fill="#F9B233"/>
<path d="M31.203 70.0412C31.203 70.046 31.203 70.0517 31.203 70.0566C32.0945 58.5302 36.8858 49.1254 47.3178 43.1356C56.1582 38.0609 67.8885 37.1223 79.8517 40.2548C91.815 43.3873 104.012 50.5909 113.785 61.7991C120.918 69.9575 127.988 79.614 132.824 91.039C139.199 106.099 140.482 116.768 140.607 125.892C140.589 124.872 140.55 123.513 140.503 122.494C140.469 121.718 140.4 120.685 140.339 119.911C140.276 119.102 140.171 118.024 140.08 117.218C139.985 116.39 139.83 115.289 139.718 114.462C139.599 113.579 139.389 112.41 139.225 111.536C139.055 110.63 138.789 109.43 138.602 108.527C138.403 107.573 138.064 106.319 137.825 105.375C137.567 104.357 137.169 103.016 136.861 102.013C136.54 100.964 136.068 99.579 135.726 98.5365C135.357 97.4111 134.788 95.9375 134.369 94.8291C133.929 93.6632 133.288 92.1302 132.811 90.9789C132.598 90.4625 132.29 89.7837 132.066 89.2713C131.836 88.7452 131.375 87.74 130.486 85.9448C130.242 85.4536 129.911 84.8008 129.65 84.3176C129.136 83.3628 128.446 82.0929 127.906 81.1527C126.766 79.1666 125.81 77.6743 125.111 76.5847C124.825 76.1389 124.437 75.5486 124.139 75.111C123.548 74.2462 122.758 73.0949 122.149 72.2432C121.441 71.2526 120.206 69.5767 119.059 68.1168C118.745 67.7174 118.328 67.1831 118.009 66.7885C116.804 65.3002 116.553 64.9908 115.889 64.2032C113.491 61.3574 112.448 60.2466 112.264 60.0534C111.808 59.5743 111.204 58.9296 110.741 58.4571C110.284 57.9918 109.671 57.3748 109.194 56.9298C108.719 56.4873 108.097 55.8832 107.609 55.4553C107.128 55.0331 106.491 54.4631 106.003 54.0482C105.517 53.6349 104.867 53.0869 104.364 52.6955C103.867 52.309 103.21 51.7869 102.706 51.4086C102.206 51.0318 101.537 50.5317 101.021 50.1776C100.511 49.8277 99.8411 49.3462 99.3214 49.0109C98.8042 48.678 98.1198 48.2265 97.5977 47.9018C97.0821 47.5802 96.3871 47.1629 95.8633 46.856C94.0608 45.8004 92.363 44.9511 92.3484 44.9438C91.8158 44.684 91.1126 44.3219 90.5727 44.0783C89.5098 43.5984 88.0865 42.97 87.005 42.5315C85.8009 42.0435 83.9699 41.3997 83.4145 41.2259C82.8762 41.0578 82.1633 40.8167 81.6201 40.6657C81.0818 40.5155 80.3665 40.3076 79.8257 40.1655C79.2915 40.0259 78.5753 39.8505 78.0362 39.7271C76.1135 39.2862 74.4896 39.0353 74.4758 39.0328C73.9456 38.9565 73.2408 38.8363 72.709 38.7771C71.6616 38.661 70.2626 38.5246 69.2119 38.4499C68.6947 38.4133 68.0038 38.3906 67.4857 38.3776C66.9734 38.3654 66.2897 38.3703 65.7766 38.367C65.2699 38.3638 64.5944 38.4028 64.0869 38.4174C64.0731 38.4174 62.5702 38.4767 60.7742 38.7032C56.833 39.1993 54.182 40.0835 52.9705 40.4943C52.5264 40.6446 51.9402 40.8654 51.5042 41.0392C51.073 41.2105 50.5079 41.4622 50.0808 41.6433C49.6545 41.8243 49.1057 42.1109 48.6891 42.3131C47.8033 42.7434 46.971 43.2574 45.8189 43.9687C45.8059 43.9768 44.5352 44.7644 43.0201 45.9693C41.8509 46.899 41.0454 47.6679 40.542 48.1656C40.1921 48.5115 39.7277 48.976 39.4069 49.3495C39.0976 49.71 38.6746 50.1817 38.3749 50.5503C38.0705 50.9255 37.6677 51.4297 37.3933 51.8275C37.1278 52.2132 36.7649 52.7215 36.5107 53.1145C36.2501 53.5172 35.9172 54.0636 35.6785 54.4793C34.8146 55.9831 34.2559 57.2838 34.2511 57.2968C33.88 58.1664 33.4115 59.3397 33.1119 60.2369C32.6166 61.7187 32.3308 62.9147 32.2228 63.3645C32.0547 64.0677 31.8087 65.2052 31.5895 66.635C31.3743 68.0446 31.2907 69.014 31.2022 70.0403L31.203 70.0412Z" fill="#F9B233"/>
<path d="M0.179309 147.938L0.098114 142.033C1.31928 126.238 13.8826 114.957 34.7781 102.25L34.8593 108.156C13.9638 120.862 1.40048 132.143 0.179309 147.938V147.938Z" fill="url(#paint20_linear_3_3)"/>
<path d="M2.22217 148.674C3.34266 133.823 15.37 122.948 35.0233 110.981C69.2169 125.954 104.409 141.363 136.637 155.474C127.107 163.151 116.724 171.893 99.3239 179.431C87.372 184.612 74.7178 186.164 63.3522 187.003C59.7658 187.198 56.0495 187.33 52.4891 187.181C49.0213 186.963 45.4471 186.68 42.0791 186.14C38.8199 185.539 35.4674 184.873 32.3788 183.975C29.42 183.025 26.3703 182.01 23.6462 180.787C12.8408 175.93 5.27347 168.712 3.26227 160.173C2.4893 156.204 1.94773 152.21 2.22136 148.674H2.22217Z" fill="url(#paint21_linear_3_3)"/>
<path d="M140.612 151.155C124.806 144.234 109.002 137.314 93.1961 130.393C87.9217 128.084 82.6489 125.775 77.3745 123.466C74.2095 122.08 69.9898 120.233 66.8248 118.847C65.2423 118.154 63.1321 117.23 61.5496 116.537C58.3846 115.151 54.1641 113.303 50.9991 111.917C49.4166 111.224 47.3064 110.3 45.7239 109.607C42.5589 108.221 38.5268 105.823 35.1743 104.987C35.3748 105.075 36.043 104.71 36.8347 104.056L138.416 148.535C139.47 149.996 140.353 151.042 140.613 151.156L140.612 151.155Z" fill="#F9B233"/>
<path d="M31.1332 80.9205L31.052 75.0152C31.0285 73.3231 31.0772 71.6691 31.2022 70.0566L31.2834 75.9619C31.1584 77.5744 31.1105 79.2284 31.1332 80.9205Z" fill="#F9B233"/>
<path d="M140.608 125.893L140.689 131.798C140.564 122.674 139.281 112.005 132.906 96.9451C128.07 85.5202 121 75.8637 113.867 67.7052C104.093 56.4971 91.897 49.2935 79.9337 46.161C67.9705 43.0285 56.2402 43.9663 47.3997 49.0418C36.9678 55.0315 32.1765 64.4363 31.285 75.9627L31.2038 70.0574C32.0953 58.531 36.8866 49.1262 47.3185 43.1365C56.159 38.0618 67.8893 37.1232 79.8525 40.2557C91.8158 43.3882 104.013 50.5918 113.785 61.7999C120.918 69.9584 127.989 79.6149 132.825 91.0398C139.2 106.1 140.483 116.769 140.608 125.893Z" fill="url(#paint22_linear_3_3)"/>
<path d="M47.3981 49.0417C36.9662 55.0315 32.1749 64.4363 31.2834 75.9627C31.1584 77.5752 31.1105 79.2292 31.1332 80.9213C31.173 83.2865 31.2972 84.9526 31.4864 86.8736C31.5075 87.088 31.6228 88.2345 31.8331 89.7577C31.989 90.8863 32.0832 91.4539 32.2894 92.6961C32.2918 92.7083 32.5038 93.9766 32.8505 95.6849C33.1428 97.1269 33.4107 98.2856 33.5122 98.7216C33.6665 99.3898 33.9239 100.466 34.2697 101.802C34.4735 102.588 34.5198 102.768 34.7999 103.777L34.86 108.156C13.9645 120.863 1.40125 132.144 0.18008 147.939C0.102945 148.937 0.0712793 149.954 0.0850824 150.99C0.103757 151.943 0.128928 152.572 0.229609 153.775C0.264523 154.187 0.348966 155.055 0.525971 156.236C0.724086 157.557 0.956303 158.649 0.982285 158.769C1.20476 159.803 1.35172 160.486 1.65539 161.48C2.26841 163.487 3.04626 164.995 3.28172 165.452C4.27311 167.372 5.30672 168.759 5.64693 169.214C6.82263 170.79 8.18671 172.291 9.80654 173.78C10.9538 174.834 11.9582 175.614 12.2879 175.87C13.5245 176.829 14.4582 177.452 15.016 177.824C15.6331 178.236 16.648 178.884 17.9747 179.637C19.3258 180.404 20.3806 180.931 21.1487 181.303C21.6431 181.544 22.3097 181.85 22.8099 182.079C22.9366 182.136 23.1063 182.211 23.2337 182.267C23.362 182.323 23.5333 182.395 23.66 182.453C23.9158 182.567 24.2657 182.702 24.5215 182.817C26.4572 183.617 28.0713 184.169 28.0811 184.172C28.2207 184.212 28.401 184.283 28.5382 184.33C29.0327 184.497 29.1504 184.537 29.4598 184.639C30.1532 184.865 30.7077 185.036 30.8612 185.082C31.4141 185.25 32.5655 185.6 34.2137 186.023C35.3667 186.319 36.2517 186.518 36.6772 186.613C37.0247 186.691 37.8155 186.86 38.1801 186.933C38.3311 186.964 38.5341 187.003 38.6851 187.035C38.6941 187.036 39.86 187.27 41.2371 187.5C42.7611 187.755 43.9871 187.917 44.8844 188.029C45.8603 188.151 47.0815 188.281 48.0729 188.367C48.6055 188.413 50.0207 188.536 51.8533 188.625C53.5129 188.706 54.8819 188.722 55.1401 188.724C55.3057 188.726 55.5266 188.725 55.6914 188.73C55.6995 188.73 57.8301 188.751 60.1344 188.658C60.5452 188.641 61.6349 188.597 62.9332 188.508C63.6607 188.458 64.8729 188.363 65.2269 188.335C65.7531 188.293 66.4538 188.23 66.9791 188.189C67.1837 188.176 69.6991 187.939 70.5362 187.848C73.141 187.563 73.3878 187.533 75.9804 187.181C75.999 187.179 78.1751 186.87 79.6642 186.607C80.2204 186.509 80.9625 186.379 81.5179 186.274C82.0765 186.168 82.8194 186.018 83.3772 185.908C83.9383 185.797 84.682 185.627 85.2406 185.506C85.9389 185.354 87.7853 184.91 88.9756 184.586C90.101 184.279 91.5958 183.85 92.7073 183.496C94.8785 182.806 96.3668 182.241 96.4293 182.218C97.5449 181.793 99.0267 181.21 100.121 180.734C102.429 179.732 103.721 179.115 105.219 178.401C105.569 178.233 107.445 177.33 109.938 175.997C111.887 174.955 113.358 174.096 114.333 173.526C114.882 173.206 116.382 172.317 118.453 170.991C119.746 170.163 119.993 169.995 122.352 168.392C122.477 168.306 125.464 166.273 129.695 163.013C131.483 161.635 132.861 160.541 133.241 160.238C133.77 159.816 134.477 159.255 135.005 158.831C135.535 158.405 136.242 157.837 136.772 157.41C137.961 156.451 139.15 155.491 140.339 154.532C140.326 154.543 140.306 154.554 140.289 154.567C140.383 154.502 140.437 154.441 140.436 154.385C140.436 154.385 140.691 151.218 140.689 151.111C140.581 149.649 140.667 136.829 140.698 134.17C140.706 133.458 140.692 132.51 140.689 131.799C140.564 122.675 139.282 112.006 132.906 96.9459C128.07 85.5209 121 75.8644 113.867 67.706C104.093 56.4978 91.897 49.2942 79.9337 46.1617C67.9705 43.0292 56.2403 43.967 47.3998 49.0425L47.3981 49.0417ZM136.637 155.474C127.107 163.151 116.724 171.892 99.3239 179.43C87.372 184.611 74.7178 186.164 63.3521 187.003C59.7657 187.198 56.0495 187.33 52.4891 187.181C49.0212 186.963 45.447 186.68 42.0791 186.14C38.8199 185.539 35.4674 184.873 32.3787 183.975C29.42 183.025 26.3703 182.01 23.6462 180.787C12.8408 175.93 5.27343 168.712 3.26224 160.173C2.48926 156.203 1.94769 152.21 2.22132 148.673C3.34181 133.823 15.3692 122.948 35.0224 110.981L136.636 155.474L136.637 155.474Z" fill="url(#paint23_linear_3_3)"/>
<path d="M38.2386 109.67C31.9833 86.8558 32.8976 67.3195 49.3745 57.5729C65.3406 48.1275 91.7281 54.1472 109.351 75.1012C115.781 82.727 122.156 91.7518 126.511 102.422C136.602 127.145 132.507 139.183 133.492 152.99L38.2386 109.67Z" fill="url(#paint24_linear_3_3)"/>
<path d="M133.492 152.99C122.581 162.053 113.076 170.309 97.1082 177.431C86.0332 182.371 74.3915 183.823 64.0204 184.594C36.942 186.628 11.8227 175.327 7.87501 158.028C3.05772 136.921 14.8911 124.3 38.2395 109.669L133.492 152.989V152.99Z" fill="url(#paint25_linear_3_3)"/>
<path d="M403.297 182.648C403.557 182.648 403.818 182.648 404.078 182.648C406.487 182.648 407.691 181.314 407.691 178.645V169.27L401.246 167.902C398.902 167.382 397.73 165.982 397.73 163.703V134.016C397.73 131.477 399 130.207 401.539 130.207H444.996C449.618 130.207 451.93 132.518 451.93 137.141V170.051C451.93 180.142 448.577 188.964 441.871 196.516L432.887 206.672C426.181 214.224 417.815 218 407.789 218H370.289C360.003 218 351.181 214.615 343.824 207.844L342.555 206.672C335.003 199.706 331.227 191.275 331.227 181.379V99.1523C331.227 88.9961 334.514 80.1094 341.09 72.4922L343.629 69.5625C350.27 61.8802 358.603 58.0391 368.629 58.0391H433.473C438.095 58.0391 440.406 60.3503 440.406 64.9727V98.6641C440.406 103.286 438.095 105.598 433.473 105.598H392.359C381.878 105.598 376.637 110.839 376.637 121.32V172.102C376.637 177.115 379.143 179.914 384.156 180.5L403.297 182.648ZM492.848 34.0156C495.387 34.0156 496.721 35.2852 496.852 37.8242L502.223 158.82H535.523C540.797 158.82 543.434 161.457 543.434 166.73V210.09C543.434 215.363 540.797 218 535.523 218H471.754C466.611 218 464.039 215.493 464.039 210.48C464.039 210.285 464.039 210.09 464.039 209.895L469.996 37.8242C470.061 35.2852 471.396 34.0156 474 34.0156H492.848ZM623.512 65.7539C623.512 60.4805 626.148 57.8438 631.422 57.8438H658.961C664.104 57.8438 666.741 60.3828 666.871 65.4609L670.094 179.035C670.094 179.426 670.094 179.816 670.094 180.207C670.094 189.452 667.001 197.85 660.816 205.402L659.938 206.477C653.622 214.159 645.484 218 635.523 218H593.434C583.082 218 574.033 214.908 566.285 208.723L564.82 207.551C557.398 201.626 553.688 193.749 553.688 183.918C553.688 183.527 553.688 183.169 553.688 182.844L557.105 54.8164C557.171 52.2773 558.505 51.0078 561.109 51.0078H587.477C590.081 51.0078 591.415 52.2773 591.48 54.8164L595.289 166.438C595.419 170.604 597.372 172.688 601.148 172.688C601.93 172.688 602.809 172.59 603.785 172.395L617.164 169.758C621.396 168.911 623.512 166.405 623.512 162.238V65.7539ZM770.973 172.395V212.434C770.973 216.405 768.987 218.391 765.016 218.391H722.438C712.281 218.391 703.655 214.842 696.559 207.746L695.387 206.574C688.29 199.478 684.742 190.819 684.742 180.598V93.9766C684.742 82.8438 688.225 74.1523 695.191 67.9023L696.168 67.0234C703.915 60.0573 712.086 56.5742 720.68 56.5742C721.07 56.5742 721.461 56.5742 721.852 56.5742L767.262 58.1367C772.405 58.332 774.977 61.0013 774.977 66.1445V105.891C774.977 111.164 772.34 113.801 767.066 113.801H731.617C726.344 113.801 723.707 116.438 723.707 121.711V158.527C723.707 163.801 726.344 166.438 731.617 166.438H765.016C768.987 166.438 770.973 168.423 770.973 172.395ZM792.066 215.559C789.397 215.559 788.062 214.224 788.062 211.555V67.1211C788.062 61.9128 790.634 59.2435 795.777 59.1133L828.199 58.332C828.329 58.332 828.46 58.332 828.59 58.332C833.603 58.332 836.109 60.6758 836.109 65.3633C836.109 65.6237 836.109 65.8841 836.109 66.1445L833.082 118.391L879.859 46.2227C880.576 45.1159 881.65 44.5625 883.082 44.5625H911.695C914.495 44.5625 915.895 45.832 915.895 48.3711C915.895 49.2174 915.667 49.9661 915.211 50.6172L869.605 131.184L903.59 210.969C904.501 213.052 904.957 214.81 904.957 216.242C904.957 219.562 902.613 221.223 897.926 221.223H868.336C864.104 221.223 861.142 219.562 859.449 216.242L826.246 150.422L821.266 211.848C821.07 214.322 819.736 215.559 817.262 215.559H792.066Z" fill="url(#paint26_linear_3_3)"/>
<defs>
<linearGradient id="paint0_linear_3_3" x1="112.422" y1="322.972" x2="263.58" y2="201.393" gradientUnits="userSpaceOnUse">
<stop stop-color="#461E18"/>
<stop offset="0.08" stop-color="#6F4A27"/>
<stop offset="0.38" stop-color="#AF9253"/>
<stop offset="0.56" stop-color="#EADABC"/>
<stop offset="0.79" stop-color="#A48560"/>
<stop offset="0.8" stop-color="#A1815C"/>
<stop offset="0.96" stop-color="#8A542E"/>
</linearGradient>
<linearGradient id="paint1_linear_3_3" x1="113.456" y1="324.257" x2="264.614" y2="202.678" gradientUnits="userSpaceOnUse">
<stop stop-color="#FFF042"/>
<stop offset="0.09" stop-color="#FFBD24"/>
<stop offset="0.1" stop-color="#FEBF28"/>
<stop offset="0.15" stop-color="#FBD049"/>
<stop offset="0.21" stop-color="#F8DD60"/>
<stop offset="0.25" stop-color="#F7E56F"/>
<stop offset="0.29" stop-color="#F7E874"/>
<stop offset="0.48" stop-color="#FFC300"/>
<stop offset="0.63" stop-color="#F78500"/>
<stop offset="0.67" stop-color="#F7A026"/>
<stop offset="0.72" stop-color="#F7BE4F"/>
<stop offset="0.76" stop-color="#F7D068"/>
<stop offset="0.78" stop-color="#F7D772"/>
<stop offset="0.79" stop-color="#F7D66E"/>
<stop offset="0.84" stop-color="#F7CF48"/>
<stop offset="0.89" stop-color="#F7CB30"/>
<stop offset="0.92" stop-color="#F7CA28"/>
<stop offset="0.94" stop-color="#F7B715"/>
<stop offset="0.98" stop-color="#F7A605"/>
<stop offset="1" stop-color="#F7A100"/>
</linearGradient>
<linearGradient id="paint2_linear_3_3" x1="156.352" y1="86.6959" x2="248.412" y2="86.6959" gradientUnits="userSpaceOnUse">
<stop stop-color="#DB910C"/>
<stop offset="0.34" stop-color="#FFCF6E"/>
<stop offset="0.57" stop-color="#B06600"/>
<stop offset="1" stop-color="#F7C728"/>
</linearGradient>
<linearGradient id="paint3_linear_3_3" x1="128.285" y1="16.8691" x2="178.907" y2="16.8691" gradientUnits="userSpaceOnUse">
<stop stop-color="#DB910C"/>
<stop offset="0.34" stop-color="#FFCF6E"/>
<stop offset="0.57" stop-color="#B06600"/>
<stop offset="1" stop-color="#F7C728"/>
</linearGradient>
<linearGradient id="paint4_linear_3_3" x1="91.2955" y1="73.4489" x2="169.778" y2="73.4489" gradientUnits="userSpaceOnUse">
<stop stop-color="#FFC300"/>
<stop offset="0.18" stop-color="#FFD03D"/>
<stop offset="0.32" stop-color="#F4DF8E"/>
<stop offset="0.39" stop-color="#F0E7B6"/>
<stop offset="0.43" stop-color="#F2E79E"/>
<stop offset="0.48" stop-color="#F4E787"/>
<stop offset="0.53" stop-color="#F6E778"/>
<stop offset="0.57" stop-color="#F7E874"/>
<stop offset="0.7" stop-color="#FFC300"/>
<stop offset="0.86" stop-color="#F9D843"/>
<stop offset="1" stop-color="#F7A100"/>
</linearGradient>
<linearGradient id="paint5_linear_3_3" x1="103.838" y1="72.4056" x2="206.145" y2="79.5223" gradientUnits="userSpaceOnUse">
<stop stop-color="#F7A100"/>
<stop offset="0.05" stop-color="#F7A605"/>
<stop offset="0.12" stop-color="#F7B715"/>
<stop offset="0.2" stop-color="#F7D230"/>
<stop offset="0.21" stop-color="#F7D734"/>
<stop offset="0.22" stop-color="#F7D73D"/>
<stop offset="0.23" stop-color="#F7DA56"/>
<stop offset="0.24" stop-color="#F7DE7F"/>
<stop offset="0.25" stop-color="#F7DF8A"/>
<stop offset="0.27" stop-color="#F7D378"/>
<stop offset="0.31" stop-color="#F7B54A"/>
<stop offset="0.37" stop-color="#F78500"/>
<stop offset="0.52" stop-color="#FFC300"/>
<stop offset="0.71" stop-color="#F7E874"/>
<stop offset="0.72" stop-color="#F6E778"/>
<stop offset="0.74" stop-color="#F4E787"/>
<stop offset="0.76" stop-color="#F2E79E"/>
<stop offset="0.78" stop-color="#F0E7B6"/>
<stop offset="0.79" stop-color="#F4DF8E"/>
<stop offset="0.82" stop-color="#FFD03D"/>
<stop offset="0.91" stop-color="#FFBD24"/>
<stop offset="1" stop-color="#FFF042"/>
</linearGradient>
<linearGradient id="paint6_linear_3_3" x1="155.026" y1="82.5138" x2="223.538" y2="100.077" gradientUnits="userSpaceOnUse">
<stop stop-color="#006633"/>
<stop offset="0.16" stop-color="#009433"/>
<stop offset="0.33" stop-color="#00C034"/>
<stop offset="0.49" stop-color="#00E035"/>
<stop offset="0.61" stop-color="#00F335"/>
<stop offset="0.7" stop-color="#00FB36"/>
</linearGradient>
<linearGradient id="paint7_linear_3_3" x1="100.366" y1="128.452" x2="143.703" y2="10.474" gradientUnits="userSpaceOnUse">
<stop stop-color="#006633"/>
<stop offset="0.17" stop-color="#007033"/>
<stop offset="0.48" stop-color="#008D34"/>
<stop offset="0.88" stop-color="#00BC35"/>
<stop offset="1" stop-color="#00CC36"/>
</linearGradient>
<linearGradient id="paint8_linear_3_3" x1="135.311" y1="268.288" x2="90.4615" y2="262.996" gradientUnits="userSpaceOnUse">
<stop stop-color="#DB910C"/>
<stop offset="0.34" stop-color="#FFCF6E"/>
<stop offset="0.57" stop-color="#B06600"/>
<stop offset="1" stop-color="#F7C728"/>
</linearGradient>
<linearGradient id="paint9_linear_3_3" x1="174.001" y1="222.028" x2="104.465" y2="213.823" gradientUnits="userSpaceOnUse">
<stop stop-color="#FFC300"/>
<stop offset="0.18" stop-color="#FFD03D"/>
<stop offset="0.32" stop-color="#F4DF8E"/>
<stop offset="0.39" stop-color="#F0E7B6"/>
<stop offset="0.43" stop-color="#F2E79E"/>
<stop offset="0.48" stop-color="#F4E787"/>
<stop offset="0.53" stop-color="#F6E778"/>
<stop offset="0.57" stop-color="#F7E874"/>
<stop offset="0.7" stop-color="#FFC300"/>
<stop offset="0.86" stop-color="#F9D843"/>
<stop offset="1" stop-color="#F7A100"/>
</linearGradient>
<linearGradient id="paint10_linear_3_3" x1="117.748" y1="203.488" x2="36.183" y2="193.863" gradientUnits="userSpaceOnUse">
<stop stop-color="#DB910C"/>
<stop offset="0.34" stop-color="#FFCF6E"/>
<stop offset="0.57" stop-color="#B06600"/>
<stop offset="1" stop-color="#F7C728"/>
</linearGradient>
<linearGradient id="paint11_linear_3_3" x1="162.777" y1="221.641" x2="72.8809" y2="204.639" gradientUnits="userSpaceOnUse">
<stop stop-color="#F7A100"/>
<stop offset="0.05" stop-color="#F7A605"/>
<stop offset="0.12" stop-color="#F7B715"/>
<stop offset="0.2" stop-color="#F7D230"/>
<stop offset="0.21" stop-color="#F7D734"/>
<stop offset="0.22" stop-color="#F7D73D"/>
<stop offset="0.23" stop-color="#F7DA56"/>
<stop offset="0.24" stop-color="#F7DE7F"/>
<stop offset="0.25" stop-color="#F7DF8A"/>
<stop offset="0.27" stop-color="#F7D378"/>
<stop offset="0.31" stop-color="#F7B54A"/>
<stop offset="0.37" stop-color="#F78500"/>
<stop offset="0.52" stop-color="#FFC300"/>
<stop offset="0.71" stop-color="#F7E874"/>
<stop offset="0.72" stop-color="#F6E778"/>
<stop offset="0.74" stop-color="#F4E787"/>
<stop offset="0.76" stop-color="#F2E79E"/>
<stop offset="0.78" stop-color="#F0E7B6"/>
<stop offset="0.79" stop-color="#F4DF8E"/>
<stop offset="0.82" stop-color="#FFD03D"/>
<stop offset="0.91" stop-color="#FFBD24"/>
<stop offset="1" stop-color="#FFF042"/>
</linearGradient>
<linearGradient id="paint12_linear_3_3" x1="118.486" y1="207.328" x2="59.6176" y2="184.602" gradientUnits="userSpaceOnUse">
<stop stop-color="#006633"/>
<stop offset="0.16" stop-color="#009433"/>
<stop offset="0.33" stop-color="#00C034"/>
<stop offset="0.49" stop-color="#00E035"/>
<stop offset="0.61" stop-color="#00F335"/>
<stop offset="0.7" stop-color="#00FB36"/>
</linearGradient>
<linearGradient id="paint13_linear_3_3" x1="171.716" y1="172.341" x2="120.983" y2="272.341" gradientUnits="userSpaceOnUse">
<stop stop-color="#006633"/>
<stop offset="0.2" stop-color="#006933"/>
<stop offset="0.4" stop-color="#007533"/>
<stop offset="0.59" stop-color="#008934"/>
<stop offset="0.79" stop-color="#00A434"/>
<stop offset="0.98" stop-color="#00C735"/>
<stop offset="1" stop-color="#00CC36"/>
</linearGradient>
<linearGradient id="paint14_linear_3_3" x1="238.668" y1="82.8557" x2="264.774" y2="123.224" gradientUnits="userSpaceOnUse">
<stop stop-color="#DB910C"/>
<stop offset="0.34" stop-color="#FFCF6E"/>
<stop offset="0.57" stop-color="#B06600"/>
<stop offset="1" stop-color="#F7C728"/>
</linearGradient>
<linearGradient id="paint15_linear_3_3" x1="174.473" y1="82.5362" x2="214.946" y2="145.122" gradientUnits="userSpaceOnUse">
<stop stop-color="#FFC300"/>
<stop offset="0.18" stop-color="#FFD03D"/>
<stop offset="0.32" stop-color="#F4DF8E"/>
<stop offset="0.39" stop-color="#F0E7B6"/>
<stop offset="0.43" stop-color="#F2E79E"/>
<stop offset="0.48" stop-color="#F4E787"/>
<stop offset="0.53" stop-color="#F6E778"/>
<stop offset="0.57" stop-color="#F7E874"/>
<stop offset="0.7" stop-color="#FFC300"/>
<stop offset="0.86" stop-color="#F9D843"/>
<stop offset="1" stop-color="#F7A100"/>
</linearGradient>
<linearGradient id="paint16_linear_3_3" x1="197.458" y1="141.247" x2="244.933" y2="214.66" gradientUnits="userSpaceOnUse">
<stop stop-color="#DB910C"/>
<stop offset="0.34" stop-color="#FFCF6E"/>
<stop offset="0.57" stop-color="#B06600"/>
<stop offset="1" stop-color="#F7C728"/>
</linearGradient>
<linearGradient id="paint17_linear_3_3" x1="181.774" y1="92.0006" x2="228.857" y2="177.254" gradientUnits="userSpaceOnUse">
<stop stop-color="#F7A100"/>
<stop offset="0.05" stop-color="#F7A605"/>
<stop offset="0.12" stop-color="#F7B715"/>
<stop offset="0.2" stop-color="#F7D230"/>
<stop offset="0.21" stop-color="#F7D734"/>
<stop offset="0.22" stop-color="#F7D73D"/>
<stop offset="0.23" stop-color="#F7DA56"/>
<stop offset="0.24" stop-color="#F7DE7F"/>
<stop offset="0.25" stop-color="#F7DF8A"/>
<stop offset="0.27" stop-color="#F7D378"/>
<stop offset="0.31" stop-color="#F7B54A"/>
<stop offset="0.37" stop-color="#F78500"/>
<stop offset="0.52" stop-color="#FFC300"/>
<stop offset="0.71" stop-color="#F7E874"/>
<stop offset="0.72" stop-color="#F6E778"/>
<stop offset="0.74" stop-color="#F4E787"/>
<stop offset="0.76" stop-color="#F2E79E"/>
<stop offset="0.78" stop-color="#F0E7B6"/>
<stop offset="0.79" stop-color="#F4DF8E"/>
<stop offset="0.82" stop-color="#FFD03D"/>
<stop offset="0.91" stop-color="#FFBD24"/>
<stop offset="1" stop-color="#FFF042"/>
</linearGradient>
<linearGradient id="paint18_linear_3_3" x1="200.084" y1="138.039" x2="221.398" y2="201.735" gradientUnits="userSpaceOnUse">
<stop stop-color="#006633"/>
<stop offset="0.16" stop-color="#009433"/>
<stop offset="0.33" stop-color="#00C034"/>
<stop offset="0.49" stop-color="#00E035"/>
<stop offset="0.61" stop-color="#00F335"/>
<stop offset="0.7" stop-color="#00FB36"/>
</linearGradient>
<linearGradient id="paint19_linear_3_3" x1="135.262" y1="118.127" x2="251.701" y2="91.8652" gradientUnits="userSpaceOnUse">
<stop stop-color="#006633"/>
<stop offset="0.17" stop-color="#007033"/>
<stop offset="0.48" stop-color="#008D34"/>
<stop offset="0.88" stop-color="#00BC35"/>
<stop offset="1" stop-color="#00CC36"/>
</linearGradient>
<linearGradient id="paint20_linear_3_3" x1="15.6618" y1="149.108" x2="19.2987" y2="101.074" gradientUnits="userSpaceOnUse">
<stop stop-color="#DB910C"/>
<stop offset="0.34" stop-color="#FFCF6E"/>
<stop offset="0.57" stop-color="#B06600"/>
<stop offset="1" stop-color="#F7C728"/>
</linearGradient>
<linearGradient id="paint21_linear_3_3" x1="66.6922" y1="188.276" x2="72.3311" y2="113.802" gradientUnits="userSpaceOnUse">
<stop stop-color="#FFC300"/>
<stop offset="0.18" stop-color="#FFD03D"/>
<stop offset="0.32" stop-color="#F4DF8E"/>
<stop offset="0.39" stop-color="#F0E7B6"/>
<stop offset="0.43" stop-color="#F2E79E"/>
<stop offset="0.48" stop-color="#F4E787"/>
<stop offset="0.53" stop-color="#F6E778"/>
<stop offset="0.57" stop-color="#F7E874"/>
<stop offset="0.7" stop-color="#FFC300"/>
<stop offset="0.86" stop-color="#F9D843"/>
<stop offset="1" stop-color="#F7A100"/>
</linearGradient>
<linearGradient id="paint22_linear_3_3" x1="83.9381" y1="127.497" x2="90.5526" y2="40.1389" gradientUnits="userSpaceOnUse">
<stop stop-color="#DB910C"/>
<stop offset="0.34" stop-color="#FFCF6E"/>
<stop offset="0.57" stop-color="#B06600"/>
<stop offset="1" stop-color="#F7C728"/>
</linearGradient>
<linearGradient id="paint23_linear_3_3" x1="66.6032" y1="176.298" x2="80.7076" y2="79.7309" gradientUnits="userSpaceOnUse">
<stop stop-color="#F7A100"/>
<stop offset="0.05" stop-color="#F7A605"/>
<stop offset="0.12" stop-color="#F7B715"/>
<stop offset="0.2" stop-color="#F7D230"/>
<stop offset="0.21" stop-color="#F7D734"/>
<stop offset="0.22" stop-color="#F7D73D"/>
<stop offset="0.23" stop-color="#F7DA56"/>
<stop offset="0.24" stop-color="#F7DE7F"/>
<stop offset="0.25" stop-color="#F7DF8A"/>
<stop offset="0.27" stop-color="#F7D378"/>
<stop offset="0.31" stop-color="#F7B54A"/>
<stop offset="0.37" stop-color="#F78500"/>
<stop offset="0.52" stop-color="#FFC300"/>
<stop offset="0.71" stop-color="#F7E874"/>
<stop offset="0.72" stop-color="#F6E778"/>
<stop offset="0.74" stop-color="#F4E787"/>
<stop offset="0.76" stop-color="#F2E79E"/>
<stop offset="0.78" stop-color="#F0E7B6"/>
<stop offset="0.79" stop-color="#F4DF8E"/>
<stop offset="0.82" stop-color="#FFD03D"/>
<stop offset="0.91" stop-color="#FFBD24"/>
<stop offset="1" stop-color="#FFF042"/>
</linearGradient>
<linearGradient id="paint24_linear_3_3" x1="79.8655" y1="128.455" x2="101.454" y2="64.7078" gradientUnits="userSpaceOnUse">
<stop stop-color="#006633"/>
<stop offset="0.16" stop-color="#009433"/>
<stop offset="0.33" stop-color="#00C034"/>
<stop offset="0.49" stop-color="#00E035"/>
<stop offset="0.61" stop-color="#00F335"/>
<stop offset="0.7" stop-color="#00FB36"/>
</linearGradient>
<linearGradient id="paint25_linear_3_3" x1="119.527" y1="183.618" x2="10.6961" y2="134.021" gradientUnits="userSpaceOnUse">
<stop stop-color="#006633"/>
<stop offset="0.12" stop-color="#007033"/>
<stop offset="0.32" stop-color="#008D34"/>
<stop offset="0.58" stop-color="#00BC35"/>
<stop offset="0.66" stop-color="#00CC36"/>
<stop offset="0.96" stop-color="#81F468"/>
</linearGradient>
<linearGradient id="paint26_linear_3_3" x1="618" y1="19" x2="618" y2="234" gradientUnits="userSpaceOnUse">
<stop stop-color="white"/>
<stop offset="1" stop-color="#A9A9A9"/>
</linearGradient>
</defs>
</svg>
