<svg id="visual" viewBox="0 0 960 540" width="960" height="540" xmlns="http://www.w3.org/2000/svg" xmlns:xlink="http://www.w3.org/1999/xlink" version="1.1"><g stroke-width="20" stroke-linejoin="bevel"><path d="M426.1 278L360.2 285L369.2 321.5Z" fill="#1b1b1b" stroke="#000000"></path><path d="M369.2 321.5L425.1 352.5L426.1 278Z" fill="#000000" stroke="#000000"></path><path d="M426.1 278L391.2 212.5L360.2 285Z" fill="#282828" stroke="#000000"></path><path d="M317.4 391L373.2 382L369.2 321.5Z" fill="#0c0c0c" stroke="#000000"></path><path d="M369.2 321.5L373.2 382L425.1 352.5Z" fill="#000000" stroke="#000000"></path><path d="M391.2 212.5L301.4 269L360.2 285Z" fill="#1b1b1b" stroke="#000000"></path><path d="M360.2 285L301.4 269L369.2 321.5Z" fill="#000000" stroke="#000000"></path><path d="M531.9 291L463.1 216.5L426.1 278Z" fill="#000000" stroke="#000000"></path><path d="M426.1 278L463.1 216.5L391.2 212.5Z" fill="#000000" stroke="#000000"></path><path d="M523.9 386L510.9 320.5L425.1 352.5Z" fill="#212121" stroke="#000000"></path><path d="M425.1 352.5L510.9 320.5L426.1 278Z" fill="#1b1b1b" stroke="#000000"></path><path d="M274.4 334.5L317.4 391L369.2 321.5Z" fill="#141414" stroke="#000000"></path><path d="M301.4 269L274.4 334.5L369.2 321.5Z" fill="#282828" stroke="#000000"></path><path d="M376.2 467.5L433.1 418L373.2 382Z" fill="#000000" stroke="#000000"></path><path d="M373.2 382L433.1 418L425.1 352.5Z" fill="#141414" stroke="#000000"></path><path d="M510.9 320.5L531.9 291L426.1 278Z" fill="#000000" stroke="#000000"></path><path d="M391.2 212.5L276.4 213.5L301.4 269Z" fill="#212121" stroke="#000000"></path><path d="M301.4 269L237.5 289L274.4 334.5Z" fill="#000000" stroke="#000000"></path><path d="M436.1 130L358.2 144L391.2 212.5Z" fill="#000000" stroke="#000000"></path><path d="M391.2 212.5L358.2 144L276.4 213.5Z" fill="#000000" stroke="#000000"></path><path d="M276.4 213.5L237.5 289L301.4 269Z" fill="#000000" stroke="#000000"></path><path d="M211.5 424L274.4 463.5L317.4 391Z" fill="#000000" stroke="#000000"></path><path d="M433.1 418L523.9 386L425.1 352.5Z" fill="#282828" stroke="#000000"></path><path d="M510.9 320.5L594.8 331.5L531.9 291Z" fill="#282828" stroke="#000000"></path><path d="M531.9 291L530.9 209.5L463.1 216.5Z" fill="#212121" stroke="#000000"></path><path d="M463.1 216.5L436.1 130L391.2 212.5Z" fill="#0c0c0c" stroke="#000000"></path><path d="M237.5 289L227.5 316.5L274.4 334.5Z" fill="#282828" stroke="#000000"></path><path d="M494.9 132L436.1 130L463.1 216.5Z" fill="#000000" stroke="#000000"></path><path d="M274.4 463.5L376.2 467.5L317.4 391Z" fill="#000000" stroke="#000000"></path><path d="M317.4 391L376.2 467.5L373.2 382Z" fill="#000000" stroke="#000000"></path><path d="M433.1 418L513.9 460.5L523.9 386Z" fill="#000000" stroke="#000000"></path><path d="M358.2 144L306.4 141L276.4 213.5Z" fill="#282828" stroke="#000000"></path><path d="M276.4 213.5L223.5 195.5L237.5 289Z" fill="#1b1b1b" stroke="#000000"></path><path d="M374.2 79.5L306.4 141L358.2 144Z" fill="#000000" stroke="#000000"></path><path d="M530.9 209.5L494.9 132L463.1 216.5Z" fill="#000000" stroke="#000000"></path><path d="M306.4 141L223.5 195.5L276.4 213.5Z" fill="#000000" stroke="#000000"></path><path d="M142.7 285L148.7 322.5L227.5 316.5Z" fill="#141414" stroke="#000000"></path><path d="M376.2 467.5L421.1 493.5L433.1 418Z" fill="#000000" stroke="#000000"></path><path d="M577.8 391L594.8 331.5L523.9 386Z" fill="#000000" stroke="#000000"></path><path d="M523.9 386L594.8 331.5L510.9 320.5Z" fill="#000000" stroke="#000000"></path><path d="M531.9 291L608.8 277L530.9 209.5Z" fill="#000000" stroke="#000000"></path><path d="M530.9 209.5L575.8 136L494.9 132Z" fill="#141414" stroke="#000000"></path><path d="M421.1 493.5L513.9 460.5L433.1 418Z" fill="#000000" stroke="#000000"></path><path d="M513.9 460.5L577.8 391L523.9 386Z" fill="#000000" stroke="#000000"></path><path d="M211.5 424L317.4 391L274.4 334.5Z" fill="#000000" stroke="#000000"></path><path d="M376.2 467.5L349.2 540L421.1 493.5Z" fill="#000000" stroke="#000000"></path><path d="M594.8 331.5L608.8 277L531.9 291Z" fill="#000000" stroke="#000000"></path><path d="M422.1 48.5L374.2 79.5L436.1 130Z" fill="#141414" stroke="#000000"></path><path d="M436.1 130L374.2 79.5L358.2 144Z" fill="#000000" stroke="#000000"></path><path d="M306.4 141L201.5 150L223.5 195.5Z" fill="#000000" stroke="#000000"></path><path d="M227.5 316.5L211.5 424L274.4 334.5Z" fill="#000000" stroke="#000000"></path><path d="M151.7 389L211.5 424L227.5 316.5Z" fill="#141414" stroke="#000000"></path><path d="M608.8 277L599.8 196.5L530.9 209.5Z" fill="#000000" stroke="#000000"></path><path d="M211.5 424L237.5 471.5L274.4 463.5Z" fill="#0c0c0c" stroke="#000000"></path><path d="M274.4 463.5L349.2 540L376.2 467.5Z" fill="#0c0c0c" stroke="#000000"></path><path d="M599.8 196.5L575.8 136L530.9 209.5Z" fill="#282828" stroke="#000000"></path><path d="M493.9 65.5L422.1 48.5L436.1 130Z" fill="#282828" stroke="#000000"></path><path d="M198.5 83.5L201.5 150L306.4 141Z" fill="#282828" stroke="#000000"></path><path d="M142.7 285L227.5 316.5L237.5 289Z" fill="#000000" stroke="#000000"></path><path d="M142.7 285L237.5 289L223.5 195.5Z" fill="#000000" stroke="#000000"></path><path d="M138.7 487.5L215.5 540L237.5 471.5Z" fill="#000000" stroke="#000000"></path><path d="M299.4 540L349.2 540L274.4 463.5Z" fill="#000000" stroke="#000000"></path><path d="M421.1 493.5L450.1 540L513.9 460.5Z" fill="#282828" stroke="#000000"></path><path d="M493.9 65.5L436.1 130L494.9 132Z" fill="#212121" stroke="#000000"></path><path d="M374.2 79.5L282.4 51.5L306.4 141Z" fill="#000000" stroke="#000000"></path><path d="M349.2 540L450.1 540L421.1 493.5Z" fill="#0c0c0c" stroke="#000000"></path><path d="M513.9 460.5L604.8 450.5L577.8 391Z" fill="#141414" stroke="#000000"></path><path d="M575.8 136L493.9 65.5L494.9 132Z" fill="#1b1b1b" stroke="#000000"></path><path d="M131.7 219.5L142.7 285L223.5 195.5Z" fill="#000000" stroke="#000000"></path><path d="M670.6 407L646.6 317.5L594.8 331.5Z" fill="#000000" stroke="#000000"></path><path d="M594.8 331.5L646.6 317.5L608.8 277Z" fill="#282828" stroke="#000000"></path><path d="M608.8 277L669.6 191.5L599.8 196.5Z" fill="#000000" stroke="#000000"></path><path d="M670.6 407L594.8 331.5L577.8 391Z" fill="#1b1b1b" stroke="#000000"></path><path d="M93.8 402L151.7 389L148.7 322.5Z" fill="#212121" stroke="#000000"></path><path d="M148.7 322.5L151.7 389L227.5 316.5Z" fill="#282828" stroke="#000000"></path><path d="M521.9 540L604.8 450.5L513.9 460.5Z" fill="#000000" stroke="#000000"></path><path d="M237.5 471.5L299.4 540L274.4 463.5Z" fill="#000000" stroke="#000000"></path><path d="M215.5 540L299.4 540L237.5 471.5Z" fill="#000000" stroke="#000000"></path><path d="M359.2 0L282.4 51.5L374.2 79.5Z" fill="#282828" stroke="#000000"></path><path d="M646.6 317.5L663.6 279L608.8 277Z" fill="#000000" stroke="#000000"></path><path d="M599.8 196.5L682.6 152L575.8 136Z" fill="#000000" stroke="#000000"></path><path d="M736.5 323.5L663.6 279L646.6 317.5Z" fill="#000000" stroke="#000000"></path><path d="M201.5 150L131.7 219.5L223.5 195.5Z" fill="#212121" stroke="#000000"></path><path d="M142.7 285L89.8 286L148.7 322.5Z" fill="#0c0c0c" stroke="#000000"></path><path d="M145.7 119L131.7 219.5L201.5 150Z" fill="#000000" stroke="#000000"></path><path d="M450.1 540L521.9 540L513.9 460.5Z" fill="#000000" stroke="#000000"></path><path d="M282.4 51.5L198.5 83.5L306.4 141Z" fill="#000000" stroke="#000000"></path><path d="M663.6 279L669.6 191.5L608.8 277Z" fill="#141414" stroke="#000000"></path><path d="M575.8 136L605.8 80.5L493.9 65.5Z" fill="#212121" stroke="#000000"></path><path d="M671.6 471.5L670.6 407L604.8 450.5Z" fill="#282828" stroke="#000000"></path><path d="M604.8 450.5L670.6 407L577.8 391Z" fill="#1b1b1b" stroke="#000000"></path><path d="M726.5 146L682.6 152L669.6 191.5Z" fill="#141414" stroke="#000000"></path><path d="M422.1 48.5L359.2 0L374.2 79.5Z" fill="#141414" stroke="#000000"></path><path d="M282.4 51.5L204.5 0L198.5 83.5Z" fill="#000000" stroke="#000000"></path><path d="M464.1 0L359.2 0L422.1 48.5Z" fill="#000000" stroke="#000000"></path><path d="M682.6 152L605.8 80.5L575.8 136Z" fill="#000000" stroke="#000000"></path><path d="M493.9 65.5L464.1 0L422.1 48.5Z" fill="#000000" stroke="#000000"></path><path d="M138.7 487.5L237.5 471.5L211.5 424Z" fill="#000000" stroke="#000000"></path><path d="M496.9 0L464.1 0L493.9 65.5Z" fill="#282828" stroke="#000000"></path><path d="M92.8 184.5L89.8 286L131.7 219.5Z" fill="#000000" stroke="#000000"></path><path d="M131.7 219.5L89.8 286L142.7 285Z" fill="#0c0c0c" stroke="#000000"></path><path d="M151.7 389L138.7 487.5L211.5 424Z" fill="#000000" stroke="#000000"></path><path d="M198.5 83.5L145.7 119L201.5 150Z" fill="#282828" stroke="#000000"></path><path d="M359.2 0L307.4 0L282.4 51.5Z" fill="#282828" stroke="#000000"></path><path d="M198.5 83.5L144.7 89.5L145.7 119Z" fill="#000000" stroke="#000000"></path><path d="M600.8 0L496.9 0L493.9 65.5Z" fill="#000000" stroke="#000000"></path><path d="M61.8 339.5L93.8 402L148.7 322.5Z" fill="#141414" stroke="#000000"></path><path d="M93.8 402L138.7 487.5L151.7 389Z" fill="#282828" stroke="#000000"></path><path d="M145.7 119L92.8 184.5L131.7 219.5Z" fill="#000000" stroke="#000000"></path><path d="M760.5 281L669.6 191.5L663.6 279Z" fill="#000000" stroke="#000000"></path><path d="M669.6 191.5L682.6 152L599.8 196.5Z" fill="#282828" stroke="#000000"></path><path d="M521.9 540L607.8 540L604.8 450.5Z" fill="#000000" stroke="#000000"></path><path d="M169.7 0L144.7 89.5L198.5 83.5Z" fill="#000000" stroke="#000000"></path><path d="M145.7 119L71.8 134L92.8 184.5Z" fill="#000000" stroke="#000000"></path><path d="M607.8 540L671.6 471.5L604.8 450.5Z" fill="#1b1b1b" stroke="#000000"></path><path d="M670.6 407L736.5 323.5L646.6 317.5Z" fill="#000000" stroke="#000000"></path><path d="M89.8 286L61.8 339.5L148.7 322.5Z" fill="#0c0c0c" stroke="#000000"></path><path d="M0 278L61.8 339.5L89.8 286Z" fill="#000000" stroke="#000000"></path><path d="M741.5 403L736.5 323.5L670.6 407Z" fill="#1b1b1b" stroke="#000000"></path><path d="M682.6 152L661.6 77.5L605.8 80.5Z" fill="#282828" stroke="#000000"></path><path d="M605.8 80.5L600.8 0L493.9 65.5Z" fill="#000000" stroke="#000000"></path><path d="M726.5 146L661.6 77.5L682.6 152Z" fill="#000000" stroke="#000000"></path><path d="M77.8 540L144.7 540L138.7 487.5Z" fill="#000000" stroke="#000000"></path><path d="M138.7 487.5L144.7 540L215.5 540Z" fill="#000000" stroke="#000000"></path><path d="M83.8 464.5L138.7 487.5L93.8 402Z" fill="#0c0c0c" stroke="#000000"></path><path d="M307.4 0L204.5 0L282.4 51.5Z" fill="#141414" stroke="#000000"></path><path d="M0 383L83.8 464.5L93.8 402Z" fill="#282828" stroke="#000000"></path><path d="M661.6 77.5L600.8 0L605.8 80.5Z" fill="#000000" stroke="#000000"></path><path d="M80.8 48.5L71.8 134L144.7 89.5Z" fill="#000000" stroke="#000000"></path><path d="M144.7 89.5L71.8 134L145.7 119Z" fill="#212121" stroke="#000000"></path><path d="M92.8 184.5L0 278L89.8 286Z" fill="#0c0c0c" stroke="#000000"></path><path d="M671.6 471.5L741.5 403L670.6 407Z" fill="#000000" stroke="#000000"></path><path d="M731.5 484.5L741.5 403L671.6 471.5Z" fill="#000000" stroke="#000000"></path><path d="M760.5 281L663.6 279L736.5 323.5Z" fill="#212121" stroke="#000000"></path><path d="M751.5 180.5L726.5 146L669.6 191.5Z" fill="#000000" stroke="#000000"></path><path d="M661.6 77.5L686.6 0L600.8 0Z" fill="#1b1b1b" stroke="#000000"></path><path d="M607.8 540L665.6 540L671.6 471.5Z" fill="#000000" stroke="#000000"></path><path d="M792.3 275L760.5 281L796.3 316.5Z" fill="#0c0c0c" stroke="#000000"></path><path d="M204.5 0L169.7 0L198.5 83.5Z" fill="#000000" stroke="#000000"></path><path d="M760.5 281L751.5 180.5L669.6 191.5Z" fill="#282828" stroke="#000000"></path><path d="M665.6 540L731.5 484.5L671.6 471.5Z" fill="#000000" stroke="#000000"></path><path d="M796.3 316.5L760.5 281L736.5 323.5Z" fill="#000000" stroke="#000000"></path><path d="M0 185.5L0 278L92.8 184.5Z" fill="#000000" stroke="#000000"></path><path d="M61.8 339.5L0 383L93.8 402Z" fill="#141414" stroke="#000000"></path><path d="M796.3 316.5L736.5 323.5L789.3 385Z" fill="#000000" stroke="#000000"></path><path d="M760.5 281L790.3 195.5L751.5 180.5Z" fill="#141414" stroke="#000000"></path><path d="M0 278L0 357.5L61.8 339.5Z" fill="#000000" stroke="#000000"></path><path d="M169.7 0L80.8 48.5L144.7 89.5Z" fill="#141414" stroke="#000000"></path><path d="M71.8 134L0 185.5L92.8 184.5Z" fill="#000000" stroke="#000000"></path><path d="M0 482.5L77.8 540L83.8 464.5Z" fill="#000000" stroke="#000000"></path><path d="M83.8 464.5L77.8 540L138.7 487.5Z" fill="#000000" stroke="#000000"></path><path d="M789.3 385L736.5 323.5L741.5 403Z" fill="#000000" stroke="#000000"></path><path d="M0 357.5L0 383L61.8 339.5Z" fill="#000000" stroke="#000000"></path><path d="M808.3 469.5L789.3 385L741.5 403Z" fill="#0c0c0c" stroke="#000000"></path><path d="M801.3 142L726.5 146L751.5 180.5Z" fill="#000000" stroke="#000000"></path><path d="M801.3 142L730.5 66.5L726.5 146Z" fill="#000000" stroke="#000000"></path><path d="M726.5 146L730.5 66.5L661.6 77.5Z" fill="#000000" stroke="#000000"></path><path d="M801.3 142L790.3 195.5L894.2 205.5Z" fill="#141414" stroke="#000000"></path><path d="M792.3 275L790.3 195.5L760.5 281Z" fill="#212121" stroke="#000000"></path><path d="M0 124L0 185.5L71.8 134Z" fill="#212121" stroke="#000000"></path><path d="M730.5 66.5L686.6 0L661.6 77.5Z" fill="#000000" stroke="#000000"></path><path d="M169.7 0L89.8 0L80.8 48.5Z" fill="#000000" stroke="#000000"></path><path d="M0 62.5L0 124L71.8 134Z" fill="#000000" stroke="#000000"></path><path d="M0 62.5L71.8 134L80.8 48.5Z" fill="#000000" stroke="#000000"></path><path d="M871.2 279L790.3 195.5L792.3 275Z" fill="#000000" stroke="#000000"></path><path d="M790.3 195.5L801.3 142L751.5 180.5Z" fill="#000000" stroke="#000000"></path><path d="M730.5 66.5L731.5 0L686.6 0Z" fill="#1b1b1b" stroke="#000000"></path><path d="M665.6 540L756.5 540L731.5 484.5Z" fill="#000000" stroke="#000000"></path><path d="M731.5 484.5L808.3 469.5L741.5 403Z" fill="#000000" stroke="#000000"></path><path d="M0 383L0 482.5L83.8 464.5Z" fill="#282828" stroke="#000000"></path><path d="M811.3 64.5L731.5 0L730.5 66.5Z" fill="#000000" stroke="#000000"></path><path d="M904.2 317.5L871.2 279L796.3 316.5Z" fill="#0c0c0c" stroke="#000000"></path><path d="M888.2 114L811.3 64.5L801.3 142Z" fill="#000000" stroke="#000000"></path><path d="M756.5 540L808.3 469.5L731.5 484.5Z" fill="#212121" stroke="#000000"></path><path d="M0 0L0 62.5L80.8 48.5Z" fill="#282828" stroke="#000000"></path><path d="M0 482.5L0 540L77.8 540Z" fill="#1b1b1b" stroke="#000000"></path><path d="M801.3 142L811.3 64.5L730.5 66.5Z" fill="#000000" stroke="#000000"></path><path d="M871.2 279L792.3 275L796.3 316.5Z" fill="#212121" stroke="#000000"></path><path d="M904.2 317.5L796.3 316.5L896.2 394Z" fill="#141414" stroke="#000000"></path><path d="M756.5 540L813.3 540L808.3 469.5Z" fill="#000000" stroke="#000000"></path><path d="M808.3 469.5L896.2 394L789.3 385Z" fill="#0c0c0c" stroke="#000000"></path><path d="M89.8 0L0 0L80.8 48.5Z" fill="#141414" stroke="#000000"></path><path d="M813.3 540L865.2 475.5L808.3 469.5Z" fill="#000000" stroke="#000000"></path><path d="M960 281L894.2 205.5L871.2 279Z" fill="#0c0c0c" stroke="#000000"></path><path d="M871.2 279L894.2 205.5L790.3 195.5Z" fill="#000000" stroke="#000000"></path><path d="M896.2 394L796.3 316.5L789.3 385Z" fill="#000000" stroke="#000000"></path><path d="M865.2 475.5L896.2 394L808.3 469.5Z" fill="#000000" stroke="#000000"></path><path d="M877.2 0L822.3 0L811.3 64.5Z" fill="#141414" stroke="#000000"></path><path d="M811.3 64.5L822.3 0L731.5 0Z" fill="#0c0c0c" stroke="#000000"></path><path d="M902.2 50.5L888.2 114L960 76.5Z" fill="#000000" stroke="#000000"></path><path d="M894.2 205.5L888.2 114L801.3 142Z" fill="#0c0c0c" stroke="#000000"></path><path d="M813.3 540L866.2 540L865.2 475.5Z" fill="#000000" stroke="#000000"></path><path d="M960 456.5L960 412L896.2 394Z" fill="#212121" stroke="#000000"></path><path d="M960 155L888.2 114L894.2 205.5Z" fill="#000000" stroke="#000000"></path><path d="M888.2 114L902.2 50.5L811.3 64.5Z" fill="#1b1b1b" stroke="#000000"></path><path d="M904.2 317.5L960 281L871.2 279Z" fill="#000000" stroke="#000000"></path><path d="M960 331.5L960 281L904.2 317.5Z" fill="#282828" stroke="#000000"></path><path d="M960 331.5L904.2 317.5L896.2 394Z" fill="#000000" stroke="#000000"></path><path d="M902.2 50.5L877.2 0L811.3 64.5Z" fill="#000000" stroke="#000000"></path><path d="M960 412L960 331.5L896.2 394Z" fill="#282828" stroke="#000000"></path><path d="M960 281L960 198.5L894.2 205.5Z" fill="#000000" stroke="#000000"></path><path d="M960 456.5L896.2 394L865.2 475.5Z" fill="#212121" stroke="#000000"></path><path d="M960 198.5L960 155L894.2 205.5Z" fill="#141414" stroke="#000000"></path><path d="M902.2 50.5L960 0L877.2 0Z" fill="#000000" stroke="#000000"></path><path d="M960 540L960 456.5L865.2 475.5Z" fill="#282828" stroke="#000000"></path><path d="M960 155L960 76.5L888.2 114Z" fill="#000000" stroke="#000000"></path><path d="M866.2 540L960 540L865.2 475.5Z" fill="#0c0c0c" stroke="#000000"></path><path d="M960 76.5L960 0L902.2 50.5Z" fill="#000000" stroke="#000000"></path></g></svg>