<svg xmlns="http://www.w3.org/2000/svg" xmlns:xlink="http://www.w3.org/1999/xlink" width="40" zoomAndPan="magnify" viewBox="0 0 30 30.000001" height="40" preserveAspectRatio="xMidYMid meet" version="1.0"><defs><clipPath id="b0e0ba50a2"><path d="M 0.484375 0 L 29.515625 0 L 29.515625 29.03125 L 0.484375 29.03125 Z M 0.484375 0 " clip-rule="nonzero"/></clipPath></defs><g clip-path="url(#b0e0ba50a2)"><path fill="#dd0505" d="M 14.980469 -0.0117188 C 6.980469 -0.0117188 0.46875 6.496094 0.46875 14.496094 C 0.46875 22.496094 6.980469 29.003906 14.980469 29.003906 C 22.980469 29.003906 29.488281 22.496094 29.488281 14.496094 C 29.488281 6.496094 22.980469 -0.0117188 14.980469 -0.0117188 Z M 27.464844 14.496094 C 27.464844 17.558594 26.355469 20.363281 24.519531 22.535156 L 6.9375 4.957031 C 9.113281 3.121094 11.917969 2.011719 14.980469 2.011719 C 21.863281 2.011719 27.464844 7.613281 27.464844 14.496094 Z M 2.496094 14.496094 C 2.496094 11.433594 3.605469 8.628906 5.4375 6.457031 L 23.019531 24.035156 C 20.847656 25.871094 18.039062 26.980469 14.980469 26.980469 C 8.097656 26.980469 2.496094 21.378906 2.496094 14.496094 Z M 2.496094 14.496094 " fill-opacity="1" fill-rule="nonzero"/></g></svg>