<svg xmlns="http://www.w3.org/2000/svg" xmlns:xlink="http://www.w3.org/1999/xlink" width="40" zoomAndPan="magnify" viewBox="0 0 30 30.000001" height="40" preserveAspectRatio="xMidYMid meet" version="1.0"><defs><clipPath id="a68b45757b"><path d="M 0.484375 0.96875 L 29.515625 0.96875 L 29.515625 27.824219 L 0.484375 27.824219 Z M 0.484375 0.96875 " clip-rule="nonzero"/></clipPath></defs><g clip-path="url(#a68b45757b)"><path fill="#38b6ff" d="M 18.191406 22.941406 L 23.152344 22.941406 C 23.492188 22.941406 23.769531 22.667969 23.769531 22.332031 C 23.769531 21.992188 23.492188 21.71875 23.152344 21.71875 L 18.191406 21.71875 C 17.851562 21.71875 17.574219 21.992188 17.574219 22.332031 C 17.574219 22.667969 17.851562 22.941406 18.191406 22.941406 Z M 18.191406 15.617188 L 26.867188 15.617188 C 27.210938 15.617188 27.488281 15.34375 27.488281 15.007812 C 27.488281 14.667969 27.210938 14.394531 26.867188 14.394531 L 18.191406 14.394531 C 17.851562 14.394531 17.574219 14.667969 17.574219 15.007812 C 17.574219 15.34375 17.851562 15.617188 18.191406 15.617188 Z M 18.191406 11.953125 L 26.867188 11.953125 C 27.210938 11.953125 27.488281 11.679688 27.488281 11.34375 C 27.488281 11.007812 27.210938 10.734375 26.867188 10.734375 L 18.191406 10.734375 C 17.851562 10.734375 17.574219 11.007812 17.574219 11.34375 C 17.574219 11.679688 17.851562 11.953125 18.191406 11.953125 Z M 18.191406 19.277344 L 26.867188 19.277344 C 27.210938 19.277344 27.488281 19.003906 27.488281 18.667969 C 27.488281 18.332031 27.210938 18.058594 26.867188 18.058594 L 18.191406 18.058594 C 17.851562 18.058594 17.574219 18.332031 17.574219 18.667969 C 17.574219 19.003906 17.851562 19.277344 18.191406 19.277344 Z M 26.867188 0.96875 L 3.316406 0.96875 C 1.609375 0.96875 0.21875 2.339844 0.21875 4.019531 L 0.21875 24.773438 C 0.21875 26.453125 1.609375 27.824219 3.316406 27.824219 L 26.867188 27.824219 C 28.578125 27.824219 29.96875 26.453125 29.96875 24.773438 L 29.96875 4.019531 C 29.96875 2.339844 28.578125 0.96875 26.867188 0.96875 Z M 28.726562 24.773438 C 28.726562 25.78125 27.894531 26.601562 26.867188 26.601562 L 3.316406 26.601562 C 2.292969 26.601562 1.457031 25.78125 1.457031 24.773438 L 1.457031 7.074219 L 28.726562 7.074219 Z M 28.726562 5.851562 L 1.457031 5.851562 L 1.457031 4.019531 C 1.457031 3.011719 2.292969 2.191406 3.316406 2.191406 L 26.867188 2.191406 C 27.894531 2.191406 28.726562 3.011719 28.726562 4.019531 Z M 3.316406 22.941406 L 15.714844 22.941406 C 16.054688 22.941406 16.332031 22.667969 16.332031 22.328125 C 16.332031 20.800781 15.28125 19.472656 13.777344 19.101562 L 11.914062 18.644531 L 11.835938 18.335938 C 12.320312 17.8125 12.664062 17.140625 12.804688 16.445312 C 13.136719 16.277344 13.375 15.957031 13.425781 15.574219 L 13.558594 14.511719 C 13.601562 14.1875 13.5 13.863281 13.28125 13.621094 C 13.214844 13.546875 13.140625 13.480469 13.058594 13.425781 L 13.089844 12.777344 L 13.199219 12.664062 C 13.519531 12.332031 13.953125 11.617188 13.269531 10.585938 C 12.945312 10.097656 12.273438 9.515625 10.933594 9.515625 C 10.539062 9.515625 9.648438 9.515625 8.78125 10.046875 C 6.230469 10.136719 5.929688 11.488281 5.929688 12.511719 C 5.929688 12.714844 5.96875 13.089844 6.003906 13.40625 C 5.910156 13.460938 5.828125 13.535156 5.753906 13.613281 C 5.53125 13.863281 5.429688 14.1875 5.472656 14.511719 L 5.609375 15.574219 C 5.660156 15.972656 5.914062 16.300781 6.292969 16.464844 C 6.433594 17.128906 6.757812 17.773438 7.207031 18.285156 L 7.117188 18.644531 L 5.257812 19.101562 C 3.75 19.472656 2.699219 20.800781 2.699219 22.332031 C 2.699219 22.492188 2.761719 22.648438 2.878906 22.761719 C 2.996094 22.875 3.152344 22.941406 3.316406 22.941406 Z M 5.558594 20.285156 L 7.78125 19.738281 C 8.003906 19.683594 8.175781 19.511719 8.234375 19.292969 L 8.496094 18.25 C 8.550781 18.035156 8.484375 17.808594 8.316406 17.65625 C 7.835938 17.210938 7.515625 16.558594 7.464844 15.910156 C 7.4375 15.59375 7.164062 15.417969 6.839844 15.417969 L 6.679688 14.449219 C 6.859375 14.449219 7.027344 14.375 7.144531 14.242188 C 7.261719 14.109375 7.316406 13.9375 7.292969 13.761719 C 7.246094 13.394531 7.171875 12.726562 7.171875 12.511719 C 7.171875 11.878906 7.171875 11.28125 8.984375 11.265625 C 9.109375 11.261719 9.234375 11.222656 9.339844 11.152344 C 9.929688 10.734375 10.609375 10.734375 10.933594 10.734375 C 11.574219 10.734375 12 10.902344 12.230469 11.253906 C 12.484375 11.632812 12.378906 11.742188 12.3125 11.816406 L 12.042969 12.082031 C 11.933594 12.1875 11.867188 12.332031 11.859375 12.480469 L 11.796875 13.808594 C 11.789062 13.976562 11.808594 14.09375 11.921875 14.214844 C 12.039062 14.335938 12.160156 14.359375 12.328125 14.359375 L 12.246094 15.351562 C 11.925781 15.351562 11.65625 15.597656 11.628906 15.914062 C 11.574219 16.570312 11.234375 17.253906 10.734375 17.695312 C 10.5625 17.84375 10.492188 18.078125 10.546875 18.296875 L 10.800781 19.292969 C 10.855469 19.511719 11.027344 19.683594 11.25 19.738281 L 13.472656 20.285156 C 14.21875 20.46875 14.789062 21.023438 15.003906 21.71875 L 4.027344 21.71875 C 4.242188 21.023438 4.8125 20.46875 5.558594 20.285156 Z M 5.796875 3.410156 C 5.453125 3.410156 5.175781 3.683594 5.175781 4.019531 C 5.175781 4.359375 5.453125 4.632812 5.796875 4.632812 C 6.140625 4.632812 6.417969 4.359375 6.417969 4.019531 C 6.417969 3.683594 6.140625 3.410156 5.796875 3.410156 Z M 8.277344 3.410156 C 7.933594 3.410156 7.65625 3.683594 7.65625 4.019531 C 7.65625 4.359375 7.933594 4.632812 8.277344 4.632812 C 8.617188 4.632812 8.894531 4.359375 8.894531 4.019531 C 8.894531 3.683594 8.617188 3.410156 8.277344 3.410156 Z M 3.316406 3.410156 C 2.976562 3.410156 2.699219 3.683594 2.699219 4.019531 C 2.699219 4.359375 2.976562 4.632812 3.316406 4.632812 C 3.660156 4.632812 3.9375 4.359375 3.9375 4.019531 C 3.9375 3.683594 3.660156 3.410156 3.316406 3.410156 Z M 3.316406 3.410156 " fill-opacity="1" fill-rule="nonzero"/></g></svg>