<svg xmlns="http://www.w3.org/2000/svg" xmlns:xlink="http://www.w3.org/1999/xlink" width="40" zoomAndPan="magnify" viewBox="0 0 30 30.000001" height="40" preserveAspectRatio="xMidYMid meet" version="1.0"><defs><clipPath id="5be41bb33d"><path d="M 0.484375 0 L 29.515625 0 L 29.515625 29.03125 L 0.484375 29.03125 Z M 0.484375 0 " clip-rule="nonzero"/></clipPath></defs><g clip-path="url(#5be41bb33d)"><path fill="#66e3ce" d="M 25.824219 8.199219 L 27.996094 10.5 C 28.039062 10.542969 28.082031 10.59375 28.125 10.640625 C 29.058594 11.707031 29.519531 13.109375 29.515625 14.511719 C 29.515625 15.910156 29.050781 17.316406 28.132812 18.390625 C 28.09375 18.4375 28.046875 18.488281 28 18.539062 L 25.886719 20.839844 C 25.738281 21 25.539062 21.078125 25.34375 21.066406 C 24.96875 21.0625 24.613281 21.070312 24.28125 21.078125 C 23.609375 21.089844 23.011719 21.105469 22.402344 21.035156 C 21.871094 20.976562 21.460938 20.863281 21.046875 20.625 C 20.65625 20.402344 20.289062 20.078125 19.839844 19.585938 C 19.570312 19.289062 19.242188 18.925781 18.898438 18.542969 C 18.222656 17.792969 17.472656 16.957031 16.929688 16.394531 C 16.546875 15.996094 16.285156 15.75 16.085938 15.601562 C 15.9375 15.492188 15.824219 15.441406 15.707031 15.40625 C 15.1875 15.261719 14.804688 15.261719 14.289062 15.40625 C 14.171875 15.441406 14.058594 15.492188 13.910156 15.601562 C 13.710938 15.75 13.449219 15.996094 13.066406 16.394531 C 12.519531 16.957031 11.769531 17.792969 11.097656 18.542969 C 10.75 18.925781 10.421875 19.289062 10.152344 19.585938 C 9.703125 20.078125 9.339844 20.402344 8.945312 20.625 C 8.535156 20.863281 8.121094 20.976562 7.589844 21.035156 C 6.980469 21.105469 6.386719 21.089844 5.714844 21.078125 C 5.371094 21.070312 5.003906 21.0625 4.613281 21.066406 C 4.417969 21.066406 4.238281 20.980469 4.105469 20.835938 L 4.105469 20.839844 L 1.992188 18.539062 L 1.90625 18.445312 C 0.957031 17.359375 0.484375 15.941406 0.484375 14.523438 C 0.484375 13.105469 0.957031 11.683594 1.90625 10.601562 L 1.992188 10.503906 L 4.105469 8.207031 C 4.257812 8.042969 4.457031 7.96875 4.648438 7.980469 C 5.027344 7.980469 5.378906 7.972656 5.714844 7.96875 C 6.386719 7.953125 6.980469 7.941406 7.589844 8.007812 C 8.121094 8.070312 8.535156 8.179688 8.945312 8.417969 C 9.339844 8.644531 9.703125 8.96875 10.152344 9.457031 C 10.421875 9.753906 10.75 10.117188 11.097656 10.503906 C 11.769531 11.253906 12.519531 12.085938 13.066406 12.652344 C 13.449219 13.050781 13.710938 13.292969 13.910156 13.441406 C 14.058594 13.554688 14.171875 13.605469 14.289062 13.636719 C 14.808594 13.78125 15.1875 13.78125 15.707031 13.636719 C 15.824219 13.605469 15.9375 13.554688 16.085938 13.441406 C 16.285156 13.292969 16.546875 13.050781 16.929688 12.652344 C 17.472656 12.085938 18.222656 11.253906 18.898438 10.503906 C 19.242188 10.117188 19.570312 9.753906 19.839844 9.457031 C 20.289062 8.96875 20.65625 8.644531 21.046875 8.417969 C 21.460938 8.179688 21.871094 8.070312 22.402344 8.007812 C 23.011719 7.941406 23.582031 7.953125 24.234375 7.96875 C 24.570312 7.972656 24.929688 7.980469 25.320312 7.980469 C 25.515625 7.976562 25.691406 8.0625 25.824219 8.199219 Z M 21.421875 5.402344 L 17.574219 1.175781 C 16.863281 0.390625 15.929688 0 14.996094 0 C 14.0625 0 13.132812 0.390625 12.421875 1.175781 L 8.574219 5.402344 C 9.351562 5.484375 10.035156 5.753906 11 6.582031 C 11.761719 7.230469 12.839844 8.320312 13.730469 9.222656 C 14.078125 9.574219 14.398438 9.894531 14.695312 10.183594 C 14.804688 10.292969 14.90625 10.390625 14.996094 10.476562 C 15.085938 10.390625 15.1875 10.292969 15.300781 10.183594 C 15.597656 9.894531 15.914062 9.574219 16.261719 9.222656 C 17.15625 8.320312 18.234375 7.230469 18.992188 6.582031 C 19.960938 5.753906 20.640625 5.484375 21.421875 5.402344 Z M 17.578125 27.863281 L 21.433594 23.726562 C 20.644531 23.609375 19.964844 23.292969 18.992188 22.464844 C 18.234375 21.8125 17.15625 20.726562 16.261719 19.824219 C 15.914062 19.472656 15.597656 19.152344 15.300781 18.863281 C 15.1875 18.75 15.085938 18.65625 14.996094 18.570312 C 14.90625 18.65625 14.804688 18.75 14.695312 18.863281 C 14.398438 19.152344 14.078125 19.472656 13.730469 19.824219 C 12.839844 20.726562 11.761719 21.8125 11 22.464844 C 10.03125 23.292969 9.375 23.609375 8.605469 23.726562 L 12.417969 27.867188 C 13.132812 28.644531 14.058594 29.03125 14.988281 29.03125 C 15.921875 29.03125 16.855469 28.640625 17.578125 27.863281 Z M 17.578125 27.863281 " fill-opacity="1" fill-rule="nonzero"/></g></svg>